<svg id="TYPO" xmlns="http://www.w3.org/2000/svg" viewBox="0 0 64 64"><style>.st0{fill:#FFF}.st1{fill:#f6861e}.st2{fill:#55241a}.st3{fill:#84d0f0}.st4{fill:#e4741e}.st5{fill:#00aae6}.st6{fill:#e1f5f5}.st7{fill:#9ec300}.st8{fill:#85a600}</style><g id="XMLID_99_"><path class="st0" d="M38 10.2c-.4-1.3-1.6-2.3-3.1-2.3s-2.7 1-3.1 2.3H38z" id="XMLID_101_"/><path class="st0" d="M47.3 10.2c-.6-2.1-2.5-3.6-4.8-3.6s-4.2 1.5-4.8 3.6h9.6z" id="XMLID_100_"/></g><path class="st1" d="M60.1 51.1H1.4V31l29.4-14 29.3 14z"/><path class="st2" d="M1.4 31v5h58.7v-5L30.8 17z"/><path class="st0" d="M61.9 32.6c-.1 0-.3 0-.4-.1L30.8 18 1.3 31.9c-.4.2-1 0-1.2-.4-.2-.4 0-1 .4-1.2l30.2-14.2L62.2 31c.4.2.6.7.4 1.2-.1.2-.4.4-.7.4z"/><path class="st3" d="M22.5 31.7h16.4v19.4H22.5z"/><path class="st2" d="M39.6 51.1h-1.3V32.4H23.2v18.7h-1.3v-20h17.7z"/><path class="st2" d="M30.1 31.7h1.3v19.4h-1.3z"/><g id="XMLID_96_"><g id="XMLID_97_"><g id="XMLID_98_"><path class="st2" d="M5.5 39.4H10v4.5H5.5z"/><path class="st0" d="M10.3 44.2H5.1V39h5.2v5.2zm-4.5-.7h3.7v-3.7H5.8v3.7z"/></g></g></g><path class="st4" d="M5.1 44.3h5.2v.8H5.1z"/><g id="XMLID_93_"><g id="XMLID_94_"><g id="XMLID_95_"><path class="st2" d="M13.3 39.4h4.5v4.5h-4.5z"/><path class="st0" d="M18.1 44.2h-5.2V39h5.2v5.2zm-4.4-.7h3.7v-3.7h-3.7v3.7z"/></g></g></g><path class="st4" d="M12.9 44.3h5.2v.8h-5.2z"/><g id="XMLID_90_"><g id="XMLID_91_"><g id="XMLID_92_"><path class="st2" d="M43.1 39.4h4.5v4.5h-4.5z"/><path class="st0" d="M48 44.2h-5.2V39H48v5.2zm-4.5-.7h3.7v-3.7h-3.7v3.7z"/></g></g></g><path class="st4" d="M42.8 44.3H48v.8h-5.2z"/><path class="st5" d="M24.1 33.2h.8v17.4h-.8zM26.1 33.2h.8v17.4h-.8zM28 33.2h.8v17.4H28z"/><g><path class="st5" d="M32.4 33.2h.8v17.4h-.8zM34.4 33.2h.8v17.4h-.8zM36.3 33.2h.8v17.4h-.8z"/></g><g><path class="st0" d="M32.7 27.5h-4v-4h4v4zm-3.2-.7H32v-2.5h-2.5v2.5z"/></g><g><path class="st0" d="M61.1 13H52c-1.4 0-2.6 1.1-2.6 2.4v21.7l4.9 9.9h4.4l4.9-9.9V15.4c.1-1.2-1.1-2.4-2.5-2.4z"/><path class="st6" d="M63.7 15.2c0-.2-.1-.4-.2-.6h-5.6c-.7 0-1.3.6-1.3 1.1V47h2.2l4.9-9.9V15.4v-.2z"/><path class="st7" d="M49.4 22.2h14.2v11.1H49.4z"/><path class="st8" d="M56.6 22.2h7.1v11.1h-7.1z"/><path class="st2" d="M49.1 36.9H64v.8H49.1z"/><path class="st2" d="M50.8 37.3h.8v13.9h-.8zM61.8 37.3h.8v13.9h-.8z"/><path class="st2" d="M61.798 37.476l.564.567-10.917 10.862-.565-.567z"/><path class="st2" d="M51.555 37.303l10.86 10.78-.565.566-10.86-10.78z"/></g></svg>