<svg id="RECHTS" xmlns="http://www.w3.org/2000/svg" viewBox="0 0 400 232"><style>.st0{fill:#B3CF01;} .st1{fill:#85A600;} .st2{fill:#55241A;} .st3{fill:#9EC300;} .st4{fill:#C0CE06;} .st5{fill:#FFFFFF;} .st6{fill:#84D0F0;} .st7{fill-rule:evenodd;clip-rule:evenodd;fill:#FFFFFF;} .st8{fill:#00AAE6;} .st9{fill:#008EE6;} .st10{fill:#FFC92F;} .st11{fill:#F8B000;} .st12{fill:#F6861E;} .st13{opacity:0.15;fill:#FFFFFF;} .st14{fill:none;stroke:#FFFFFF;stroke-width:1.7975;stroke-miterlimit:10;} .st15{fill:#FAC133;} .st16{fill:#3BB6C8;} .st17{fill:#5FC2EC;} .st18{fill:#6D433A;} .st19{fill:#E7F1F5;} .st20{fill:none;stroke:#55241A;stroke-width:1.0223;stroke-linecap:round;stroke-miterlimit:10;} .st21{fill:#96B432;} .st22{fill:#0094E6;} .st23{fill:#744C44;} .st24{fill:#815D56;} .st25{fill:#E1F5F5;} .st26{fill:none;stroke:#55241A;stroke-width:0.5;stroke-miterlimit:10;}</style><path class="st0" d="M326.9 204.3c-2.2-9.2-10.4-16-20.3-16-2.8 0-5.5.6-7.9 1.6-.4-11.2-9.9-20.1-21.6-20.1-12 0-21.7 9.3-21.7 20.8 0 6 2.7 11.4 6.9 15.2v6.2h66v-.2c0-2.7-.5-5.2-1.4-7.5z"/><path class="st1" d="M41.1 211.8c.1-.8.2-1.6.2-2.4 0-1-.1-1.9-.3-2.8 1 .2 2 .4 3 .4 7.2 0 13-5.8 13-13s-5.8-13-13-13-13 5.8-13 13c0 1 .1 1.9.3 2.8-1-.2-2-.4-3-.4-6.3 0-11.6 4.5-12.7 10.5-1.7-1.7-4-2.8-6.5-2.8-4.5 0-8.2 3.3-8.9 7.6h40.9z"/><g id="XMLID_64_"><g id="XMLID_67_"><path class="st2" d="M47.4 188h3.3v20.5h-3.3z" id="XMLID_68_"/></g><path class="st1" d="M48.3 192.8c11.6 0 21-9.4 21-21v-50c0-11.6-9.4-21-21-21s-21 9.4-21 21v50c-.1 11.5 9.4 21 21 21z" id="XMLID_66_"/><path class="st1" d="M48.3 100.7c9.7 0 17.9 6.6 20.3 15.6-1.8-4.8-6.5-8.3-12-8.3-7 0-12.7 5.7-12.8 12.7v42.5c0 7.1-5.7 12.8-12.8 12.8-1.2 0-2.4-.2-3.5-.5-.2-1.2-.4-2.5-.4-3.8v-50c.1-11.6 9.6-21 21.2-21z" id="XMLID_65_"/></g><path class="st3" d="M67.5 208.3c1.7-2.3 1.8-5.3 1.8-8.2 0-2.3-.6-4.5-1.7-6.4 2.8-1.1 4.7-3.9 4.7-7 0-4.2-3.4-7.6-7.6-7.6-4.2 0-7.6 3.4-7.6 7.6v.5h-.8c-7.7 0-13.9 5.2-13.9 12.9 0 .9.1 1.8.3 2.6-1.1-.4-2.3-.7-3.6-.7-5.4 0-9.9 4.4-9.9 9.9h44.5v-3.5h-6.2z"/><g id="XMLID_6_"><g id="XMLID_14_"><path class="st2" d="M23.2 198.5h2.9v13.3h-2.9z" id="XMLID_15_"/></g><path class="st3" d="M23.9 199.8c10.2 0 18.4-8.2 18.4-18.4v-36.8c0-10.2-8.2-18.4-18.4-18.4s-18.4 8.2-18.4 18.4v36.8c0 10.1 8.3 18.4 18.4 18.4z" id="XMLID_13_"/><path class="st4" d="M23.9 126.1c8.5 0 15.7 5.8 17.8 13.7-1.6-4.2-5.7-7.3-10.5-7.3-6.2 0-11.2 5-11.2 11.1V174c0 6.2-5 11.2-11.2 11.2-1.1 0-2.1-.2-3-.4-.2-1.1-.3-2.2-.3-3.4v-36.8c0-10.2 8.3-18.5 18.4-18.5z" id="XMLID_7_"/></g><path class="st2" d="M66.1 144.4h-6.2c-.6 0-1.1-.5-1.1-1.1 0-.6.5-1.1 1.1-1.1h6.2c.6 0 1.1.5 1.1 1.1 0 .7-.4 1.1-1.1 1.1zM66.1 159.2h-6.2c-.6 0-1.1-.5-1.1-1.1 0-.6.5-1.1 1.1-1.1h6.2c.6 0 1.1.5 1.1 1.1 0 .6-.4 1.1-1.1 1.1z"/><path class="st5" d="M32.9 160.1v-18.9c0-1.4 1.1-2.5 2.5-2.5h22.3c1.4 0 2.5 1.1 2.5 2.5v18.9c0 1.4-1.1 2.5-2.5 2.5H35.4c-1.3.1-2.5-1.1-2.5-2.5z"/><path class="st6" d="M37.2 142.8h11c3.7 0 6.8 2.9 7 6.5l.7 9.6h-11c-3.7 0-6.8-2.9-7-6.5l-.7-9.6z"/><path class="st2" d="M44.9 156.9c-2.6 0-4.8-2-5-4.7l-.5-7.5h8.9c2.6 0 4.8 2 5 4.7l.5 7.5h-8.9z"/><path class="st7" d="M45.8 155.4H47V150h1.5v-1H47v-.8c0-.4.1-.5.5-.5h.9v-1.2h-1c-1 0-1.7.5-1.7 1.7v.8h-1.5l.3 1h1.2v5.4z"/><path id="XMLID_1642_" class="st8" d="M62.1 118.2h217.2v3.5H62.1z"/><path id="XMLID_55_" class="st9" d="M62.1 118.2h217.2v.9H62.1z"/><path id="XMLID_1641_" class="st6" d="M64.3 121.7h212.8v89.5H64.3z"/><path id="XMLID_44_" class="st8" d="M64.3 196.7h212.8v15.1H64.3z"/><g id="XMLID_1638_"><path class="st8" d="M277.1 163.2h-4.5c-.5 0-.9.4-.9.9v1.4c0 .5.4.9.9.9h4.5v-3.2z"/><path id="XMLID_1639_" class="st8" d="M268.9 162.3h5.3c.5 0 .9-.4.9-.9V160c0-.5-.4-.9-.9-.9h-5.3c-.5 0-.9.4-.9.9v1.4c0 .5.4.9.9.9z"/></g><g id="XMLID_42_"><path class="st8" d="M79.8 180h-4.5c-.5 0-.9.4-.9.9v1.4c0 .5.4.9.9.9h4.5V180z"/><path id="XMLID_60_" class="st8" d="M71.6 179h5.3c.5 0 .9-.4.9-.9v-1.4c0-.5-.4-.9-.9-.9h-5.3c-.5 0-.9.4-.9.9v1.4c0 .5.4.9.9.9z"/></g><path id="XMLID_1584_" class="st10" d="M64.3 39.8h212.8v77.3H64.3z"/><path id="XMLID_1583_" class="st11" d="M64.3 39.8h212.8v5.8H64.3z"/><g id="XMLID_1562_"><path class="st11" d="M69 86.8h-4.7V90H69c.5 0 .9-.4.9-.9v-1.4c-.1-.5-.5-.9-.9-.9z"/><path id="XMLID_1563_" class="st11" d="M72.7 85.7h-5.3c-.5 0-.9-.4-.9-.9v-1.4c0-.5.4-.9.9-.9h5.3c.5 0 .9.4.9.9v1.4c0 .5-.4.9-.9.9z"/></g><g id="XMLID_1577_"><path id="XMLID_1582_" class="st11" d="M141.6 59.8h-6.2l-3.2-6.8c-.3-.7.2-1.5 1-1.5h6.1l2.3 8.3z"/><path id="XMLID_1581_" class="st12" d="M147.5 59.8h-6.1l-2.4-8.3h7.8z"/><path id="XMLID_1580_" class="st11" d="M153.4 59.8h-6.2l-.8-8.3h7.8z"/><path id="XMLID_1579_" class="st12" d="M159.3 59.8h-6.2l.8-8.3h7.8z"/><path id="XMLID_1578_" class="st11" d="M165.2 59.8H159l2.3-8.3h6.1c.8 0 1.3.8 1 1.5l-3.2 6.8z"/></g><g id="XMLID_1543_"><g id="XMLID_1544_"><g id="XMLID_1545_"><g id="XMLID_1552_"><path id="XMLID_1561_" class="st5" d="M165.8 104.2h-31V57.7c0-.6.5-1.1 1.1-1.1h28.8c.6 0 1.1.5 1.1 1.1v46.5z"/><path id="XMLID_1560_" class="st5" d="M140.9 59.8h-7c-.4 0-.8-.4-.8-.8v-1.3c0-.6.5-1.1 1.1-1.1h5.6c.6 0 1.1.5 1.1 1.1v2.1z"/><path id="XMLID_1559_" class="st2" d="M138.1 59.8h24.5V101h-24.5z"/><path id="XMLID_1558_" class="st11" d="M158.1 95.6l.9-2.8h-3.6l.9 2.8c-1.1.4-1.9 1.4-1.9 2.6 0 1.5 1.2 2.8 2.8 2.8 1.5 0 2.8-1.2 2.8-2.8 0-1.2-.8-2.3-1.9-2.6z"/><path id="XMLID_1557_" class="st13" d="M138.1 93.9v7.1h24.5V69.4z"/><path id="XMLID_1556_" class="st2" d="M150.9 94.6h-2.7c0-.6-.2-1.2-.5-1.7l.1-1.6-1.3.7c-.4-.2-.7-.2-1.2-.2-.4 0-.8.1-1.2.2l-1.3-.7.1 1.7c-.3.5-.5 1-.5 1.7v6.3H155v-2.3c-.1-2.3-1.9-4.1-4.1-4.1z"/><path id="XMLID_1555_" class="st14" d="M150.7 58.6v44.1"/><path id="XMLID_1554_" class="st14" d="M136.9 73.5h26.8"/><path id="XMLID_1553_" class="st14" d="M136.9 87.8h26.8"/></g><g id="XMLID_1550_"><path id="XMLID_1551_" class="st5" d="M159.7 59.8h7c.4 0 .8-.4.8-.8v-1.3c0-.6-.5-1.1-1.1-1.1h-5.6c-.6 0-1.1.5-1.1 1.1v2.1z"/></g><g id="XMLID_1548_"><path id="XMLID_1549_" class="st11" d="M164.6 109.2h-28.5c-1.4 0-2.5-1.1-2.5-2.5v-3.5h33.5v3.5c0 1.4-1.1 2.5-2.5 2.5z"/></g><g id="XMLID_1546_"><path id="XMLID_1547_" class="st12" d="M164.6 106.3h-28.5c-1.4 0-2.5-1.1-2.5-2.5v-1.1h33.5v1.1c0 1.4-1.1 2.5-2.5 2.5z"/></g></g></g></g><g id="XMLID_48_"><path id="XMLID_54_" class="st11" d="M94.7 59.8h-6.2L85.4 53c-.3-.7.2-1.5 1-1.5h6.1l2.2 8.3z"/><path id="XMLID_53_" class="st12" d="M100.6 59.8h-6.1l-2.4-8.3h7.8z"/><path id="XMLID_52_" class="st11" d="M106.5 59.8h-6.2l-.8-8.3h7.8z"/><path id="XMLID_51_" class="st12" d="M112.4 59.8h-6.2l.8-8.3h7.8z"/><path id="XMLID_49_" class="st11" d="M118.3 59.8h-6.2l2.3-8.3h6.1c.8 0 1.3.8 1 1.5l-3.2 6.8z"/></g><g id="XMLID_18_"><g id="XMLID_22_"><g id="XMLID_25_"><g id="XMLID_32_"><path id="XMLID_47_" class="st5" d="M118.9 104.2h-31V57.7c0-.6.5-1.1 1.1-1.1h28.8c.6 0 1.1.5 1.1 1.1v46.5z"/><path id="XMLID_46_" class="st5" d="M94 59.8h-7c-.4 0-.8-.4-.8-.8v-1.3c0-.6.5-1.1 1.1-1.1h5.6c.6 0 1.1.5 1.1 1.1v2.1z"/><path id="XMLID_45_" class="st2" d="M91.2 59.8h24.5V101H91.2z"/><path id="XMLID_43_" class="st13" d="M91.2 93.9v7.1h24.5V69.4z"/><path id="XMLID_41_" class="st14" d="M103.8 58.6v44.1"/><path id="XMLID_34_" class="st14" d="M90 73.5h26.9"/><path id="XMLID_33_" class="st14" d="M90 87.8h26.9"/></g><g id="XMLID_30_"><path id="XMLID_31_" class="st5" d="M112.8 59.8h7c.4 0 .8-.4.8-.8v-1.3c0-.6-.5-1.1-1.1-1.1h-5.6c-.6 0-1.1.5-1.1 1.1v2.1z"/></g><g id="XMLID_28_"><path id="XMLID_29_" class="st11" d="M117.7 109.2H89.2c-1.4 0-2.5-1.1-2.5-2.5v-3.5h33.5v3.5c0 1.4-1.1 2.5-2.5 2.5z"/></g><g id="XMLID_26_"><path id="XMLID_27_" class="st12" d="M117.7 106.3H89.2c-1.4 0-2.5-1.1-2.5-2.5v-1.1h33.5v1.1c0 1.4-1.1 2.5-2.5 2.5z"/></g></g></g></g><g id="XMLID_1571_"><path id="XMLID_1576_" class="st11" d="M188 59.8h-6.2l-3.2-6.8c-.3-.7.2-1.5 1-1.5h6.1l2.3 8.3z"/><path id="XMLID_1575_" class="st12" d="M193.9 59.8h-6.1l-2.4-8.3h7.8z"/><path id="XMLID_1574_" class="st11" d="M199.8 59.8h-6.2l-.8-8.3h7.8z"/><path id="XMLID_1573_" class="st12" d="M205.7 59.8h-6.2l.8-8.3h7.8z"/><path id="XMLID_1572_" class="st11" d="M211.6 59.8h-6.2l2.3-8.3h6.1c.8 0 1.3.8 1 1.5l-3.2 6.8z"/></g><g id="XMLID_1525_"><g id="XMLID_1526_"><g id="XMLID_1527_"><path id="XMLID_1542_" class="st5" d="M212.3 104.2h-31V57.7c0-.6.5-1.1 1.1-1.1h28.8c.6 0 1.1.5 1.1 1.1v46.5z"/><path id="XMLID_1541_" class="st5" d="M187.4 59.8h-7c-.4 0-.8-.4-.8-.8v-1.3c0-.6.5-1.1 1.1-1.1h5.6c.6 0 1.1.5 1.1 1.1v2.1z"/><path id="XMLID_1540_" class="st2" d="M184.6 59.8h24.5V101h-24.5z"/><path id="XMLID_1539_" class="st15" d="M207.5 101h-3V90.2c0-.5.4-.9.9-.9h1.3c.5 0 .9.4.9.9V101z"/><path id="XMLID_1538_" class="st16" d="M200.9 101h3c1.1-.5 1.8-1.6 1.8-2.9 0-1.2-.6-2.2-1.5-2.8-.2-.1-.4-.4-.4-.7v-2.4c0-.3-.2-.6-.6-.6h-1.7c-.3 0-.6.2-.6.6v2.4c0 .3-.1.5-.4.7-.9.6-1.5 1.6-1.5 2.8.1 1.3.9 2.3 1.9 2.9z"/><path id="XMLID_1537_" class="st13" d="M184.6 93.9v7.1h24.5V69.4z"/><path id="XMLID_1536_" class="st14" d="M197.2 58.6v44.1"/><path id="XMLID_1535_" class="st14" d="M183.4 73.5h26.9"/><path id="XMLID_1534_" class="st14" d="M183.4 87.8h26.9"/><g id="XMLID_1532_"><path id="XMLID_1533_" class="st5" d="M206.2 59.8h7c.4 0 .8-.4.8-.8v-1.3c0-.6-.5-1.1-1.1-1.1h-5.6c-.6 0-1.1.5-1.1 1.1v2.1z"/></g><g id="XMLID_1530_"><path id="XMLID_1531_" class="st11" d="M211.1 109.2h-28.5c-1.4 0-2.5-1.1-2.5-2.5v-3.5h33.5v3.5c0 1.4-1.1 2.5-2.5 2.5z"/></g><g id="XMLID_1528_"><path id="XMLID_1529_" class="st12" d="M211.1 106.3h-28.5c-1.4 0-2.5-1.1-2.5-2.5v-1.1h33.5v1.1c0 1.4-1.1 2.5-2.5 2.5z"/></g></g></g></g><g id="XMLID_1565_"><path id="XMLID_1570_" class="st11" d="M234.4 59.8h-6.2L225 53c-.3-.7.2-1.5 1-1.5h6.1l2.3 8.3z"/><path id="XMLID_1569_" class="st12" d="M240.3 59.8h-6.1l-2.4-8.3h7.8z"/><path id="XMLID_1568_" class="st11" d="M246.2 59.8H240l-.8-8.3h7.8z"/><path id="XMLID_1567_" class="st12" d="M252.1 59.8h-6.2l.8-8.3h7.8z"/><path id="XMLID_1566_" class="st11" d="M258 59.8h-6.2l2.3-8.3h6.1c.8 0 1.3.8 1 1.5l-3.2 6.8z"/></g><g id="XMLID_1509_"><g id="XMLID_1510_"><g id="XMLID_1511_"><path id="XMLID_1524_" class="st5" d="M258.8 104.2h-31V57.7c0-.6.5-1.1 1.1-1.1h28.8c.6 0 1.1.5 1.1 1.1v46.5z"/><path id="XMLID_1523_" class="st5" d="M233.9 59.8h-7c-.4 0-.8-.4-.8-.8v-1.3c0-.6.5-1.1 1.1-1.1h5.6c.6 0 1.1.5 1.1 1.1v2.1z"/><path id="XMLID_1522_" class="st2" d="M231.1 59.8h24.5V101h-24.5z"/><path id="XMLID_1521_" class="st13" d="M231.1 93.9v7.1h24.5V69.4z"/><path id="XMLID_1520_" class="st14" d="M243.7 58.6v44.1"/><path id="XMLID_1519_" class="st14" d="M229.9 73.5h26.9"/><path id="XMLID_1518_" class="st14" d="M229.9 87.8h26.9"/><g id="XMLID_1516_"><path id="XMLID_1517_" class="st5" d="M252.7 59.8h7c.4 0 .8-.4.8-.8v-1.3c0-.6-.5-1.1-1.1-1.1h-5.6c-.6 0-1.1.5-1.1 1.1v2.1z"/></g><g id="XMLID_1514_"><path id="XMLID_1515_" class="st11" d="M257.6 109.2h-28.5c-1.4 0-2.5-1.1-2.5-2.5v-3.5h33.5v3.5c0 1.4-1.1 2.5-2.5 2.5z"/></g><g id="XMLID_1512_"><path id="XMLID_1513_" class="st12" d="M257.6 106.3h-28.5c-1.4 0-2.5-1.1-2.5-2.5v-1.1h33.5v1.1c0 1.4-1.1 2.5-2.5 2.5z"/></g></g></g></g><path id="XMLID_1508_" class="st10" d="M64.3 27h212.8v12.8H64.3z"/><path id="XMLID_1507_" class="st11" d="M64.3 27h212.8v4.6H64.3z"/><path id="XMLID_1506_" class="st5" d="M278.5 42.1H62.9c-2.5 0-4.6-2.1-4.6-4.6h224.8c0 2.5-2 4.6-4.6 4.6z"/><path id="XMLID_1496_" class="st10" d="M230.5 5h17.2v10.7h-17.2z"/><path id="XMLID_1495_" class="st12" d="M260.5 13.8H80.9c-2.4 0-4.8 1-6.5 2.8L64.3 27h212.8L267 16.6c-1.7-1.8-4-2.8-6.5-2.8z"/><path id="XMLID_1494_" class="st17" d="M64.3 121.7h212.8v3.4H64.3z"/><path class="st8" d="M133 134.3h28.1v70.4H133z"/><path class="st2" d="M161.1 148.4h-26.4v-14.2h26.4z"/><path class="st18" d="M161.1 147.9v-13.6h-5.9l-13.3 13.6z"/><path class="st19" d="M161.1 141.4c-.6-.8-1.2-.4-1.7-1.2-.5-.8.1-1.2-.4-2s-1.2-.4-1.7-1.2c-.5-.8 0-1.2-.4-2-.2-.5-.9-.7-.9-.7h5.5v8c-.2-.1-.3-.8-.4-.9zM134.7 141.4c.6-.8 1.2-.4 1.7-1.2.5-.8-.1-1.2.4-2s1.2-.4 1.7-1.2c.5-.8 0-1.2.4-2 .2-.5.9-.7.9-.7h-5.5v8c.2-.1.2-.8.4-.9z"/><path class="st5" d="M163.5 207h-31.1v-75h31.1v75zm-28.8-2.4h26.5v-70.4h-26.5v70.4z"/><path class="st2" d="M137.1 151.5h21.4V190h-21.4z"/><path class="st10" d="M159.9 179.1h-2.3c-.4 0-.6-.3-.6-.6 0-.4.3-.6.6-.6h2.3c.4 0 .6.3.6.6s-.2.6-.6.6z"/><path class="st18" d="M137.1 152.6V190h2.6l18.8-18.8v-18.6z"/><path id="XMLID_1493_" class="st19" d="M128.6 206.2h38.5v7.8h-38.5z"/><path id="XMLID_5_" class="st19" d="M125.7 209.3H170v5.1h-44.3z"/><path class="st5" d="M133 146.7h29.9v2.3H133z"/><g id="XMLID_1481_"><path id="XMLID_1492_" class="st10" d="M290.4 139l.8-5.7h-8.7l.8 5.7z"/><path id="XMLID_1491_" class="st5" d="M290.4 139l-.3 1.6h-6.5l-.3-1.6z"/><g id="XMLID_1486_"><path id="XMLID_1490_" class="st20" d="M288.6 144.6h-11v6.7"/><path id="XMLID_1489_" class="st20" d="M283.3 149.4c-.5.8-1.4 1.3-2.4 1.3-1.5 0-2.8-1.2-2.8-2.8 0-1.5 1.2-2.8 2.8-2.8.9 0 1.8.5 2.3 1.2"/><path id="XMLID_1488_" class="st20" d="M285.4 145.9c.3-.5.7-.8 1.3-.8.8 0 1.5.7 1.5 1.5s-.7 1.5-1.5 1.5"/><path id="XMLID_1487_" class="st20" d="M285.4 145.9l-2.1 3.5"/></g><path id="XMLID_1485_" class="st20" d="M286.8 144.6v-11.3"/><path id="XMLID_1484_" class="st20" d="M290.1 140.7h-6.5l-1.1-7.4h8.7z"/><path id="XMLID_1483_" class="st2" d="M286.6 130l-5.3 2.6c-.6.3-.4 1.2.3 1.2h10.6c.7 0 .9-.9.3-1.2l-5.3-2.6c-.3-.1-.5-.1-.6 0z"/><path id="XMLID_1482_" class="st2" d="M285 138.6h3.6v2.2H285z"/></g><g id="XMLID_1439_"><path id="XMLID_1442_" class="st11" d="M267.2 93.6h-5.3c-.5 0-.9-.4-.9-.9v-1.4c0-.5.4-.9.9-.9h5.3c.5 0 .9.4.9.9v1.4c-.1.6-.5.9-.9.9z"/><path id="XMLID_59_" class="st11" d="M275.7 93.6h-5.3c-.5 0-.9-.4-.9-.9v-1.4c0-.5.4-.9.9-.9h5.3c.5 0 .9.4.9.9v1.4c-.1.6-.4.9-.9.9z"/><path id="XMLID_1441_" class="st11" d="M271.3 89.4H266c-.5 0-.9-.4-.9-.9v-1.4c0-.5.4-.9.9-.9h5.3c.5 0 .9.4.9.9v1.4c0 .5-.4.9-.9.9z"/></g><path id="XMLID_1434_" class="st11" d="M175.8 98.5h-5.3c-.5 0-.9-.4-.9-.9v-1.4c0-.5.4-.9.9-.9h5.3c.5 0 .9.4.9.9v1.4c0 .5-.4.9-.9.9z"/><path id="XMLID_1433_" class="st11" d="M254.1 36.1h-5.3c-.5 0-.9-.4-.9-.9v-1.4c0-.5.4-.9.9-.9h5.3c.5 0 .9.4.9.9v1.4c0 .6-.4.9-.9.9z"/><path id="XMLID_1429_" class="st12" d="M248.6 2h-18.9c-1 0-1.8.8-1.8 1.8s.8 1.8 1.8 1.8h18.9c1 0 1.8-.8 1.8-1.8s-.8-1.8-1.8-1.8z"/><g><path class="st2" d="M80.6 133.3h38.1v62.4H80.6z"/><path class="st18" d="M87.2 174.8c0-5.8.6-9.1 2.2-11.2.6-.8 1.3-1.4 2.2-1.9l2.4 2.8-1.1-3.4c.4-.1.7-.2 1.1-.3l.8 2.4.2-2.5c1-.2 2.2-.2 3.5-.2 0 0 1 2.7 1.1 4l-3.6-1.6 3.6 3.4c-.2 1.4-.7 2.7-1.4 3.8l-4.8-3.3 4 4.3-.3.3-5.7-4 3.7 5.4c-1.2.6-2.5 1-4 1-1.1 0-2.2-.2-3.1-.6v1.8c0 10.4-.2 21.6-.2 21.7H87c0-.4.2-11.5.2-21.9zM83.4 174.8l-1.1 1.6-.1-1.9c-.2 0-.4-.1-.6-.1-.1 1.7-.1 3.5-.1 5.2l1.3-1.5-1.4 2.4v.4c0 .3-.2.4-.5.5v.1c-.1.8-.1 1.6-.2 2.4.8.4 1.8.6 2.8.6.7 0 1.5-.1 2.1-.3v12h.8v-13.7c0-4.8-.9-6.9-3-7.7z"/><path class="st18" d="M94.3 179.3c.5.8.7 1.7.7 2.6 0 1.2-.4 2.4-1.2 3.3l-2.3-1.4 1.3 2.3c-.1 0-.1.1-.2.1l-3.9-3 2.7 3.5c-.5.2-1.1.3-1.6.3-.8 0-1.5-.2-2.1-.5.2-5.3 1.6-7.2 6.6-7.2zM118.8 169.5l-26.4 26.3h25.5z"/><path class="st21" d="M108.3 188.5c0 1.7-.8 3.1-.8 3.1s-.8-1.4-.8-3.1.8-3.1.8-3.1.8 1.4.8 3.1z"/><path class="st21" d="M107 189.7c.6 1.2.5 2.5.5 2.5s-1.1-.7-1.7-2c-.6-1.2-.5-2.5-.5-2.5s1.1.8 1.7 2z"/><path class="st21" d="M107.8 189.7c-.6 1.2-.5 2.5-.5 2.5s1.1-.7 1.7-2c.6-1.2.5-2.5.5-2.5s-1.1.8-1.7 2z"/><path class="st22" d="M107.4 194.6c-.9 0-1.7-.8-1.7-1.7v-1.8h3.4v1.8c0 1-.7 1.7-1.7 1.7z"/><path class="st23" d="M102 143.2v-2.5h-2v-6.5h-.8v6.5h-2v2.5c-3.4 1-5.8 4.1-5.8 7.8v.9h16.3v-.9c.2-3.7-2.3-6.8-5.7-7.8z"/><path class="st18" d="M80.1 164.4l31.1-31H80.1z"/><path class="st24" d="M100.1 140.7v-6.5h-.8v6.5h-2v2.5c-3.4 1-5.8 4.1-5.8 7.8v.9h1.1l9.4-9.4v-1.8h-1.9z"/><path class="st5" d="M117.8 134.3v60.4H81.6v-60.4h36.2m2-2H79.6v64.4h40.1v-64.4h.1z"/><path class="st19" d="M81.6 141.4c.6-.8 1.2-.4 1.7-1.2.5-.8-.1-1.2.4-2s1.2-.4 1.7-1.2c.5-.8 0-1.2.4-2 .2-.5.9-.7.9-.7h-5.5v8c.2-.1.2-.8.4-.9zM117.8 141.4c-.6-.8-1.2-.4-1.7-1.2-.5-.8.1-1.2-.4-2s-1.2-.4-1.7-1.2c-.5-.8 0-1.2-.4-2-.2-.5-.9-.7-.9-.7h5.5v8c-.3-.1-.3-.8-.4-.9z"/><path class="st22" d="M118.6 201.1H80.8c-.6 0-1.2-.5-1.2-1.2v-1.6h40.1v1.6c.1.6-.5 1.2-1.1 1.2z"/><path class="st10" d="M79.6 196.6h40.1v1.6H79.6z"/><path class="st5" d="M80.6 146.7h37.8v2.3H80.6z"/><path class="st25" d="M100.1 160l-6.1 5.3v8.8h2.4v-5.4h2.9v5.4h6.8v-8.8l-6-5.3zm4.1 11.5h-2.9v-2.9h2.9v2.9zm0-11h-1.5v1.1l1.5 1.3v-2.4z"/></g><g><path class="st2" d="M176.5 133.3h84.1v62.4h-84.1z"/><path class="st18" d="M176.3 159l25.3-25.3h-24.4z"/><path class="st23" d="M244.7 143.2v-2.5h-2v-6.5h-.7v6.5h-2v2.5c-3.4 1-5.8 4.1-5.8 7.8v.9h16.3v-.9c0-3.7-2.5-6.8-5.8-7.8zM205.2 143.2v-2.5h-2v-6.5h-.8v6.5h-2v2.5c-3.4 1-5.8 4.1-5.8 7.8v.9H211v-.9c0-3.7-2.4-6.8-5.8-7.8z"/><path class="st18" d="M260.7 197.9l-.8-62.6-62.6 62.6z"/><path class="st24" d="M250.5 151c0-1.7-.6-3.3-1.5-4.7l-5.6 5.6h7v-.9z"/><path class="st21" d="M194.3 186.5c0 2.3-1.1 4.2-1.1 4.2s-1.1-1.9-1.1-4.2c0-2.3 1.1-4.2 1.1-4.2s1.1 1.9 1.1 4.2z"/><path class="st21" d="M192.6 188.1c.8 1.7.7 3.4.7 3.4s-1.4-1-2.2-2.6c-.8-1.7-.7-3.4-.7-3.4s1.4.9 2.2 2.6z"/><path class="st21" d="M193.7 188.1c-.8 1.7-.7 3.4-.7 3.4s1.4-1 2.2-2.6c.8-1.7.7-3.4.7-3.4s-1.4.9-2.2 2.6z"/><path class="st11" d="M193.2 194.6c-1.2 0-2.3-1-2.3-2.3V190h4.5v2.4c0 1.2-1 2.2-2.2 2.2z"/><path class="st21" d="M184.142 175.685l.516 6.48-.5.04-.514-6.48z"/><path class="st21" d="M185.43 176.455l.452.213-1.406 2.986-.452-.213z"/><path class="st22" d="M184.4 194.6c-1 0-1.8-.8-1.8-1.8v-5.4c0-1 .8-1.8 1.8-1.8s1.8.8 1.8 1.8v5.4c0 1-.8 1.8-1.8 1.8z"/><path class="st22" d="M183.7 181.9h1.4v4.7h-1.4z"/><circle class="st11" cx="183.8" cy="175.2" r=".6"/><circle class="st11" cx="186.3" cy="176.4" r=".5"/><circle class="st11" cx="185.8" cy="177.7" r=".5"/><g><circle class="st11" cx="185.3" cy="178.8" r=".4"/></g><g><path class="st2" d="M253.3 172.1c0-4.6-.5-7.1-1.7-8.8-.5-.6-1-1.1-1.7-1.5L248 164l.9-2.6-.9-.3-.6 1.9-.1-2c-.8-.1-1.7-.2-2.7-.2 0 0-.8 2.1-.9 3.1l2.9-1.3-2.8 2.6c.1 1.1.5 2.1 1.1 3l3.7-2.6-3.1 3.4.2.2 4.5-3.2-2.9 4.3c.9.5 2 .8 3.1.8.9 0 1.7-.2 2.5-.5v1.4c0 8.2.1 23.5.1 23.6h.6c-.1.1-.3-15.3-.3-23.5zM261.6 174.4c0-1-.3-1.9-.8-2.7-1.4 0-2.6 0-3.6.2v1.5l-.9-1.2c-1.6.7-2.4 2.3-2.4 6v17.4h.6v-16c.5.2 1.1.3 1.7.3 1.1 0 2.1-.3 2.9-.9l-2.4-4.1 3.2 3.5c.3-.3.6-.7.9-1.1l-1.8-2.5 2.2 1.8c.2-.8.4-1.5.4-2.2z"/><path class="st2" d="M247.7 175.7c-.4.6-.6 1.3-.6 2.1 0 1 .3 1.9.9 2.6l1.8-1.1-1 1.8c.1 0 .1.1.2.1l3.1-2.3-2.2 2.8c.4.1.8.2 1.3.2.6 0 1.2-.1 1.7-.4-.1-4.4-1.2-5.8-5.2-5.8zM259.3 181.5c.4.8.7 1.6.7 2.6 0 1.2-.4 2.3-1.1 3.2l-2.2-1.3 1.2 2.3c-.1 0-.1.1-.2.1l-3.8-2.9 2.7 3.4c-.5.2-1 .3-1.6.3-.7 0-1.5-.2-2.1-.5.2-5.4 1.6-7.2 6.4-7.2z"/></g><path class="st5" d="M259.6 134.3v60.4h-82.1v-60.4h82.1m2-2h-86.1v64.4h86.1v-64.4z"/><path class="st19" d="M177.3 141.4c.6-.8 1.2-.4 1.7-1.2.5-.8-.1-1.2.4-2s1.2-.4 1.7-1.2c.5-.8 0-1.2.4-2 .2-.5.9-.7.9-.7h-5.5v8c.3-.1.3-.8.4-.9zM259.6 141.4c-.6-.8-1.2-.4-1.7-1.2-.5-.8.1-1.2-.4-2s-1.2-.4-1.7-1.2c-.5-.8 0-1.2-.4-2-.2-.5-.9-.7-.9-.7h5.5v8c-.3-.1-.3-.8-.4-.9z"/><path class="st22" d="M260.4 201.1h-83.8c-.6 0-1.2-.5-1.2-1.2v-1.6h86.1v1.6c.1.6-.5 1.2-1.1 1.2z"/><path class="st10" d="M175.4 196.6h86.1v1.6h-86.1z"/><path class="st5" d="M176.4 146.7h84.1v2.3h-84.1z"/><g><path class="st2" d="M241.6 185.3c.6 1.5-.5 3.3-.5 3.3s-2-.6-2.6-2.1c-.6-1.5-.1-2.4.7-2.7.9-.3 1.8 0 2.4 1.5z"/><path class="st21" d="M235.6 184.443l2.395 6.684-.66.236-2.395-6.684zM238.342 183.91l.564 7.38-.698.052-.564-7.38z"/><path class="st21" d="M236.4 184.8c-.3 1.3-2 2-2 2s-1.1-1.4-.7-2.7c.3-1.3 1.1-1.7 1.8-1.5.8.3 1.2.9.9 2.2z"/><path class="st2" d="M239.663 186.175l.674.188-1.316 4.72-.674-.188z"/><path class="st21" d="M242.712 184.612l.6.362-3.768 6.252-.6-.36zM234.073 187.662l2.41 3.193-.56.422-2.41-3.194z"/><path class="st0" d="M239.3 183.6c-1 1.2-3.2 1.1-3.2 1.1s-.4-2.1.6-3.3 2-1.2 2.7-.6.9 1.6-.1 2.8zM234.1 188.7c-1 1.2-2.6 1.6-2.6 1.6s.1-1.6 1.1-2.9 1.8-1.4 2.2-1.1.3 1.2-.7 2.4z"/><path class="st12" d="M232.9 190.7c.9 2.3 3.2 4 5.8 4 2.7 0 4.9-1.7 5.8-4h-11.6z"/><path class="st21" d="M243.153 188.005l.086.695-2.284.28-.086-.694zM245.5 183.8c.6 1.5-.5 3.3-.5 3.3s-2-.6-2.6-2.1c-.6-1.5-.1-2.4.7-2.7.9-.3 1.8 0 2.4 1.5z"/><path class="st21" d="M244.4 188.4c.8.9.8 2.1.8 2.1s-1.2-.2-1.9-1.1-.8-1.4-.5-1.7c.3-.3.8-.2 1.6.7z"/></g><g><path class="st5" d="M201 161.5c.5 1.9 2 7.1 2 7.2.9 3 3.7 4.5 6 4.5h28.2c-.5-1.9-2-7.1-2-7.2-.9-3-3.7-4.5-6-4.5H201z"/><path class="st6" d="M238.6 174.2l-2.4-8.5c-1-3.3-4.2-5.3-7.1-5.3h-29.5l2.4 8.5c1 3.4 4.2 5.3 6.9 5.3h29.7zm-34.6-5.9s-1.1-4-1.6-5.8h26.8c2 0 4.4 1.3 5.1 3.8 0 0 1.4 5.1 1.6 5.8h-26.8c-2.1 0-4.4-1.4-5.1-3.8z"/><path class="st2" d="M204 168.3s-1.1-4-1.6-5.8h26.8c2 0 4.4 1.3 5.1 3.8 0 0 1.4 5.1 1.6 5.8h-26.8c-2.1 0-4.4-1.4-5.1-3.8z"/><path class="st7" d="M208.3 170.3h.9v-3.9h1.1v-.7h-1.1v-.7c0-.3.1-.4.4-.4h.7v-.9h-.8c-.7 0-1.3.4-1.3 1.3v.6h-1.1l.2.7h.9v4zM211.5 168.7c0 1.1.8 1.6 1.6 1.6.5 0 .9-.2 1.2-.6v.5h.9v-4.7h-.9v2.8c0 .6-.4 1-.9 1s-.9-.4-.9-1v-2.8h-.9v3.2zM216.9 170.3h.9v-2.8c0-.6.4-1 .9-1s.9.4.9 1v2.8h.9v-3.1c0-1.1-.8-1.6-1.6-1.6-.5 0-.9.2-1.2.6v-.5h-.9v4.6zM224.8 170.3h.9v-6.5h-.9v2.4c-.3-.3-.7-.6-1.2-.6-.6 0-1 .3-1.3.6-.3.3-.3.6-.3 1.8 0 1.1.1 1.5.3 1.8.3.3.7.6 1.3.6.5 0 .9-.2 1.2-.5v.4zm-.9-3.8c.9 0 .9.8.9 1.4 0 .7 0 1.5-.9 1.5s-.9-.7-.9-1.5c-.1-.7 0-1.4.9-1.4zM229.8 170.3h.9v-3.2c0-1.1-.8-1.5-1.9-1.5-.7 0-1.2.2-1.6.7l.7.6c.2-.3.4-.4.9-.4.7 0 1 .2 1 .6v.5h-1.3c-1 0-1.5.6-1.5 1.4 0 .8.6 1.4 1.6 1.4.6 0 1-.1 1.1-.5v.4zm0-1.7c0 .7-.3.8-1 .8-.6 0-.9-.3-.9-.6s.3-.6.8-.6h1.1v.4z"/></g></g><g><path class="st26" d="M142.8 166.3l5.3-5.2 4.8 5.2"/><path class="st25" d="M142.3 165.8h11.5v7h-11.5z"/></g><path id="XMLID_1_" class="st8" d="M60 114.8h221.5v3.4H60z"/><path class="st5" d="M279.6 24.7H58.3c0 2.5 2.1 4.6 4.6 4.6h216.7v-4.6z"/><g id="XMLID_63_"><path class="st0" d="M87.6 200.8c-.3 0-.5 0-.8.1v-.5c0-2.2-1.8-4.1-4.1-4.1-1.8 0-3.4 1.2-3.9 2.9-.7-.7-1.7-1.1-2.7-1.1-.8 0-1.5.2-2.2.6-.2-2-1.9-3.6-4-3.6-2.2 0-4.1 1.8-4.1 4.1 0 .2 0 .4.1.5-.4-.2-.9-.3-1.4-.3-2.1 0-3.8 1.7-3.8 3.8 0 2.1 1.7 3.8 3.8 3.8.5 0 .9-.1 1.3-.2v3.1h19.8v-1.6c.6.3 1.2.5 1.9.5 2.2 0 4.1-1.8 4.1-4.1.1-2.1-1.7-3.9-4-3.9z" id="XMLID_72_"/><path class="st21" d="M87.6 200.8c-.3 0-.5 0-.8.1v-.5c0-1.5-.8-2.7-1.9-3.5.2 1 .4 1.8 0 2.7-.4.8-1.3 1.4-2.2 1.6.5.7.5 1.7 0 2.4-.4.7-1.2 1.3-1.9 1.7-1.6.9-3.5 1.4-5.3.9.2 1.1.5 2.2 1.1 3.1.1.2.3.3.4.5h8.7v-1.6c.6.3 1.2.5 1.9.5 2.2 0 4.1-1.8 4.1-4.1 0-2-1.8-3.8-4.1-3.8z" id="XMLID_71_"/><path class="st5" d="M59.2 206.3l3 7.4h28.7l3-7.4c.4-1-.3-2.1-1.4-2.1H60.6c-1.1 0-1.9 1.1-1.4 2.1z" id="XMLID_69_"/></g><g id="XMLID_2_"><g id="XMLID_40_"><path id="XMLID_50_" class="st2" d="M344 192.8h-1.4v-3.3h1.4c3.6 0 6.6-2.9 6.6-6.6v-10.2h3.3v10.2c0 5.4-4.4 9.9-9.9 9.9z"/></g><g id="XMLID_37_"><g id="XMLID_38_"><path id="XMLID_39_" class="st2" d="M339.7 176.8h5.2v46.5h-5.2z"/></g></g><g id="XMLID_35_"><path id="XMLID_36_" class="st3" d="M343 177.9c17.4 0 31.6-14.1 31.6-31.6V88.2c0-17.4-14.1-31.6-31.6-31.6-17.4 0-31.6 14.1-31.6 31.6v58.2c0 17.4 14.2 31.5 31.6 31.5z"/></g><g id="XMLID_23_"><path id="XMLID_24_" class="st4" d="M343 56.6c14.6 0 27 10 30.5 23.5-2.7-7.3-9.7-12.5-18-12.5-10.6 0-19.1 8.5-19.2 19.1v46.9c0 10.6-8.6 19.2-19.2 19.2-1.8 0-3.6-.3-5.2-.7-.3-1.9-.5-3.8-.5-5.8V88.2c0-17.5 14.2-31.6 31.6-31.6z"/></g></g></svg>