<?xml version="1.0" encoding="utf-8"?>
<!-- Generator: Adobe Illustrator 19.1.0, SVG Export Plug-In . SVG Version: 6.00 Build 0)  -->
<svg version="1.1" id="RECHTS" xmlns="http://www.w3.org/2000/svg" xmlns:xlink="http://www.w3.org/1999/xlink" x="0px" y="0px"
	 viewBox="0 0 400 232" style="enable-background:new 0 0 400 232;" xml:space="preserve">
<style type="text/css">
	.st0{fill:#85A600;}
	.st1{fill:#55241A;}
	.st2{fill:#9EC300;}
	.st3{fill:#C0CE06;}
	.st4{fill:#FFC92F;}
	.st5{fill:#F8B000;}
	.st6{fill:#FFE393;}
	.st7{fill:#FFC865;}
	.st8{fill:none;stroke:#96B432;stroke-width:0.9288;stroke-miterlimit:10;}
	.st9{fill:#84D0F0;}
	.st10{fill:#00AAE6;}
	.st11{fill:#F6861E;}
	.st12{fill:#977A74;}
	.st13{fill:none;stroke:#FFFFFF;stroke-width:2.7638;stroke-miterlimit:10;}
	.st14{fill:#96B432;}
	.st15{opacity:0.12;}
	.st16{fill:#FFFFFF;}
	.st17{fill:#744C44;}
	.st18{opacity:0.2;}
	.st19{fill:#857B77;}
	.st20{fill:#61342B;}
	.st21{fill:#B3CF01;}
	.st22{fill:#0082E6;}
	.st23{fill:#D6681E;}
	.st24{fill:#6D433A;}
	.st25{fill:#1B98E9;}
	.st26{fill:#E1F5F5;}
	.st27{fill:#B0DDE2;}
	.st28{fill:#5DC9EF;}
	.st29{fill:#FFD100;}
</style>
<g>
	<path class="st0" d="M47.6,205.9v-3h-5.3c1.5-2,2.4-4.4,2.4-7.1c0-6.6-5.3-11.9-11.9-11.9s-11.9,5.3-11.9,11.9
		c0,0.8,0.1,1.5,0.2,2.2c-1-0.4-2-0.6-3.1-0.6c-4.7,0-8.4,3.8-8.4,8.4c0,0,0,0,0,0H47.6z"/>
</g>
<g>
	<path class="st0" d="M13.9,205.9c-0.9-2.5-3.2-4.3-6-4.3c-2.8,0-5.2,1.8-6,4.3H13.9z"/>
</g>
<g id="XMLID_64_">
	<g id="XMLID_67_">
		<g id="XMLID_68_">
			<g>
				<rect x="16.2" y="190.7" class="st1" width="2.4" height="15.1"/>
			</g>
		</g>
	</g>
	<g id="XMLID_66_">
		<path class="st2" d="M16,191.8h1.8c8.1,0,14.6-6.5,14.6-14.6V143c0-8.1-6.5-14.6-14.6-14.6H16c-8.1,0-14.6,6.5-14.6,14.6v34.2
			C1.4,185.3,7.9,191.8,16,191.8z"/>
	</g>
	<g id="XMLID_65_">
		<path class="st3" d="M16.9,128.4L16.9,128.4c7.2,0,13.2,4.9,15,11.5c-1.3-3.6-4.8-6.1-8.8-6.1c-5.2,0-9.4,4.2-9.4,9.4v26.9
			c0,5.2-4.2,9.4-9.4,9.4h0c-0.9,0-1.7-0.1-2.6-0.4c-0.2-0.9-0.3-1.9-0.3-2.8v-32.4C1.4,135.3,8.3,128.4,16.9,128.4z"/>
	</g>
</g>
<rect x="41.5" y="70" class="st4" width="358.6" height="136"/>
<rect x="41.5" y="153.8" class="st5" width="358.7" height="4.7"/>
<rect x="41.5" y="165.9" class="st5" width="358.7" height="4.7"/>
<rect x="41.5" y="177.9" class="st5" width="358.7" height="4.7"/>
<rect x="41.5" y="71.3" class="st5" width="358.6" height="2.8"/>
<g>
	<rect x="360.4" y="70" class="st6" width="2.3" height="135.9"/>
	<rect x="360.4" y="79.3" class="st5" width="2.3" height="0.6"/>
	<rect x="360.4" y="101.3" class="st5" width="2.3" height="0.6"/>
	<rect x="360.4" y="123.3" class="st5" width="2.3" height="0.6"/>
	<rect x="360.4" y="147.8" class="st5" width="2.3" height="0.6"/>
	<rect x="360.4" y="169.8" class="st5" width="2.3" height="0.6"/>
	<rect x="360.4" y="191.7" class="st5" width="2.3" height="0.6"/>
	<rect x="360.4" y="71.3" class="st7" width="2.3" height="2.8"/>
</g>
<path class="st0" d="M74.6,198.5c0-0.1,0-0.3,0-0.4c0-2.8-2.2-5-5-5c-0.8,0-1.5,0.2-2.2,0.5c-0.8-1.3-2.2-2.2-3.8-2.2
	c-0.8,0-1.5,0.2-2.1,0.6c-0.9-0.9-2.1-1.5-3.4-1.5c-2.4,0-4.3,1.8-4.6,4.1c-0.3-0.1-0.6-0.1-0.9-0.1c-2.3,0-4.1,1.7-4.4,3.9
	c-0.8,1-1.2,2.2-1.2,3.6c0,1.6,0.6,3,1.6,4h27.2c0.8-0.8,1.4-2,1.4-3.3C77.2,200.9,76.1,199.3,74.6,198.5z"/>
<path class="st8" d="M227.5,201.7v-4.2c0-3.2-2.6-5.7-5.7-5.7h0c-3.9,0-7-3.1-7-7v-11.3c0-1.1-0.9-2-2-2l0,0c-1.1,0-2-0.9-2-2v-5.3
	c0-1.6,1.3-2.9,2.9-2.9l0,0c2.1,0,3.8-1.7,3.8-3.8v-6.1"/>
<rect x="54" y="29.7" class="st4" width="25.7" height="25.9"/>
<rect x="50" y="29.7" class="st9" width="29.7" height="2.6"/>
<rect x="50" y="23.8" class="st10" width="52.7" height="5.9"/>
<polygon class="st11" points="90.6,18.3 400.2,18.3 400.2,68.8 31.2,68.8 "/>
<g>
	<path class="st5" d="M133,187.4H60.3v0.9c0,0.9,0.7,1.6,1.6,1.6h69.6c0.9,0,1.6-0.7,1.6-1.6V187.4z"/>
	<rect x="61.8" y="143" class="st1" width="69.8" height="43"/>
	<rect x="66.1" y="149.1" class="st12" width="57.3" height="30.1"/>
	<path class="st1" d="M75.5,190L75.5,190c-3.2,0-5.8-2.6-5.8-5.8V172c0-3.2,2.6-5.8,5.8-5.8h0c3.2,0,5.8,2.6,5.8,5.8v12.2
		C81.3,187.4,78.7,190,75.5,190z"/>
	<path class="st1" d="M67.8,184.3L67.8,184.3c-3.2,0-5.8-2.6-5.8-5.8v-12.2c0-3.2,2.6-5.8,5.8-5.8h0c3.2,0,5.8,2.6,5.8,5.8v12.2
		C73.6,181.7,71,184.3,67.8,184.3z"/>
	<path class="st1" d="M122.1,185.7c0-0.2,0-0.4,0.1-0.5c0.1-1.9-0.4-3.6-1.3-5c-0.8-1.3-1-2.8-0.6-4.2c0.2-0.6,0.2-1.2,0.2-1.8
		c0-1.3-0.4-2.6-1.1-3.6c-0.7-1.1-0.9-2.4-0.6-3.6c0.1-0.4,0.2-0.8,0.2-1.3c0-2.8-2.2-5.1-5-5.2c-2.9-0.1-5.4,2.3-5.4,5.2
		c0,0.4,0.1,0.9,0.2,1.3c0.3,1.2,0.1,2.6-0.6,3.6c-0.7,1-1.1,2.3-1.1,3.6c0,0.6,0.1,1.2,0.2,1.8c0.4,1.5,0.1,3-0.7,4.3
		c-0.8,1.3-1.3,2.8-1.3,4.5c0,0.4,0,0.7,0.1,1.1C110.9,185.2,116.5,185.8,122.1,185.7z"/>
	<g id="XMLID_62_">
		<path class="st10" d="M123.2,176.4l1.4-4.3h-5.5l1.4,4.3c-1.7,0.6-2.9,2.1-2.9,4c0,2.4,1.9,4.3,4.3,4.3c2.4,0,4.3-1.9,4.3-4.3
			C126.1,178.6,124.9,177,123.2,176.4z"/>
	</g>
	<rect x="61.8" y="143" class="st13" width="69.8" height="43"/>
	<line class="st13" x1="84.1" y1="143.3" x2="84.1" y2="185.7"/>
	<line class="st13" x1="61.9" y1="153.4" x2="84.2" y2="153.4"/>
	<g>
		<g>
			<path class="st14" d="M105.7,179.4c0,1.4-0.7,2.6-0.7,2.6s-0.7-1.2-0.7-2.6s0.7-2.6,0.7-2.6S105.7,178,105.7,179.4z"/>
			<path class="st14" d="M104.6,180.5c0.5,1,0.4,2.1,0.4,2.1s-0.9-0.6-1.4-1.6c-0.5-1-0.4-2.1-0.4-2.1S104.1,179.4,104.6,180.5z"/>
			<path class="st14" d="M105.3,180.5c-0.5,1-0.4,2.1-0.4,2.1s0.9-0.6,1.4-1.6c0.5-1,0.4-2.1,0.4-2.1S105.8,179.4,105.3,180.5z"/>
		</g>
		<path class="st5" d="M105,184.6L105,184.6c-0.8,0-1.4-0.6-1.4-1.4v-1.5h2.8v1.5C106.4,183.9,105.7,184.6,105,184.6z"/>
	</g>
	<g>
		<g>
			<path class="st14" d="M111.9,179.4c0,1.4-0.7,2.6-0.7,2.6s-0.7-1.2-0.7-2.6s0.7-2.6,0.7-2.6S111.9,178,111.9,179.4z"/>
			<path class="st14" d="M110.8,180.5c0.5,1,0.4,2.1,0.4,2.1s-0.9-0.6-1.4-1.6c-0.5-1-0.4-2.1-0.4-2.1S110.3,179.4,110.8,180.5z"/>
			<path class="st14" d="M111.5,180.5c-0.5,1-0.4,2.1-0.4,2.1s0.9-0.6,1.4-1.6c0.5-1,0.4-2.1,0.4-2.1S112,179.4,111.5,180.5z"/>
		</g>
		<path class="st5" d="M111.2,184.6L111.2,184.6c-0.8,0-1.4-0.6-1.4-1.4v-1.5h2.8v1.5C112.6,183.9,112,184.6,111.2,184.6z"/>
	</g>
	<g class="st15">
		<g>
			<path class="st16" d="M62.2,177.5L97.9,143h33.4l-0.7,8.2l-34.7,35.2H61.8C61.8,186.4,62.2,176.7,62.2,177.5z"/>
		</g>
	</g>
	<g>
		<g>
			<path class="st11" d="M99.4,171.6h-5.6c0,0,1.4,1.5,1.4,2.8c0,1.3-2.4,2.8-2.4,5.9c0,3.1,1.8,4.3,3.8,4.3h0
				c1.9,0,3.8-1.1,3.8-4.3c0-3.1-2.4-4.6-2.4-5.9C97.9,173.1,99.4,171.6,99.4,171.6z"/>
		</g>
	</g>
</g>
<g>
	<g>
		<g>
			<rect x="61.8" y="81.5" class="st1" width="69.8" height="38.6"/>
		</g>
	</g>
	<g>
		<g>
			<g>
				<path class="st17" d="M76.2,118.8L76.2,118.8c-1.4,0-2.6-1.2-2.6-2.6v-2.9h5.2v2.9C78.8,117.6,77.7,118.8,76.2,118.8z"/>
			</g>
		</g>
		<g>
			<g>
				<circle class="st17" cx="76.3" cy="111.9" r="1.8"/>
			</g>
		</g>
		<g>
			<g>
				<circle class="st17" cx="74.6" cy="109" r="1.8"/>
			</g>
		</g>
		<g>
			<g>
				<circle class="st17" cx="76.6" cy="106.5" r="1.8"/>
			</g>
		</g>
	</g>
	<g>
		<g>
			<path class="st17" d="M99.4,87.8v-1.5h-1.2v-3.9h-0.5v3.9h-1.2v1.5c-2,0.6-3.5,2.5-3.5,4.7v0.6h9.9v-0.6
				C102.9,90.3,101.4,88.5,99.4,87.8z"/>
		</g>
	</g>
	<g>
		<g>
			<path class="st11" d="M114.9,82.3v10.4c0,4.7,3.8,8.6,8.6,8.6h0v17.7h8.1V82.3H114.9z"/>
		</g>
	</g>
	<g>
		<g>
			<path class="st11" d="M78.1,82.3v10.4c0,4.7-3.8,8.6-8.6,8.6h0v17.7h-8.1V82.3H78.1z"/>
		</g>
	</g>
	<g>
		<g>
			<g>
				<path class="st16" d="M132.9,121.4H60.4V80.1h72.5V121.4z M63.2,118.7h67V82.9h-67V118.7z"/>
			</g>
		</g>
	</g>
	<g>
		<g>
			<path class="st5" d="M133,121.4H60.3v0.9c0,0.9,0.7,1.6,1.6,1.6h69.6c0.9,0,1.6-0.7,1.6-1.6V121.4z"/>
		</g>
	</g>
	<g>
		<g>
			<rect x="82.9" y="81.8" class="st16" width="2.8" height="38.1"/>
		</g>
	</g>
	<g class="st15">
		<g>
			<polygon class="st16" points="131.5,120.1 131.5,94 105.5,120.1 			"/>
		</g>
	</g>
	<g class="st15">
		<g>
			<polygon class="st16" points="61.8,117.6 97.6,81.8 97.3,81.5 61.8,81.5 			"/>
		</g>
	</g>
	<g>
		<g>
			<path class="st17" d="M107,111.5v-3.5h-1.7v3.5l0,0c-1,0-1.8,0.8-1.8,1.8v5.3h5.3v-5.3C108.9,112.4,108,111.5,107,111.5
				L107,111.5z"/>
		</g>
	</g>
	<g>
		<g>
			<path class="st17" d="M100.2,113.5V111H99v2.5h0c-0.7,0-1.3,0.6-1.3,1.3v3.9h3.9v-3.9C101.5,114.1,100.9,113.5,100.2,113.5
				L100.2,113.5z"/>
		</g>
	</g>
</g>
<g>
	<g>
		<g>
			<rect x="156.3" y="149.9" class="st5" width="28.2" height="55.6"/>
		</g>
	</g>
	<g>
		<g>
			<g>
				<path class="st16" d="M185.9,206h-31v-57.5h31V206z M157.7,203.9h25.5v-52.6h-25.5V203.9z"/>
			</g>
		</g>
	</g>
	<g>
		<g>
			<rect x="154.9" y="141.7" class="st16" width="31" height="6.8"/>
		</g>
	</g>
	<g class="st18">
		<g>
			<rect x="154.9" y="148.5" class="st19" width="31" height="6"/>
		</g>
	</g>
	<g>
		<g>
			<path class="st1" d="M165.5,158.9v9.2h10v-9.2H165.5z M165.5,179.5h10v-9.2h-10V179.5z M165.5,190.8h10v-9.2h-10V190.8z"/>
		</g>
	</g>
	<g>
		<g>
			<circle class="st16" cx="179.4" cy="176.9" r="1.6"/>
		</g>
	</g>
	<g class="st15">
		<g>
			<path class="st16" d="M165.5,179.5h3.5l6.5-6.5v-1.1h-10V179.5z M167.3,160.8l-1.8,1.8v5.6h10v-7.4H167.3z"/>
		</g>
	</g>
</g>
<g>
	<g>
		<g>
			<rect x="154.5" y="81.4" class="st1" width="31.9" height="10.4"/>
		</g>
	</g>
	<g>
		<g>
			<polygon class="st20" points="154.5,91.8 162.1,91.8 171.5,82.4 170.5,81.4 154.5,81.4 			"/>
		</g>
	</g>
	<g>
		<g>
			<g>
				<path class="st16" d="M187.8,93.2h-34.7V80h34.7V93.2z M155.9,90.4H185v-7.6h-29.2V90.4z"/>
			</g>
		</g>
	</g>
</g>
<g>
	<g>
		<rect x="376" y="81.4" class="st1" width="24.1" height="10.4"/>
	</g>
</g>
<g>
	<g>
		<polygon class="st20" points="376,91.8 383.6,91.8 392.9,82.4 391.9,81.4 376,81.4 		"/>
	</g>
</g>
<g>
	<g>
		<g>
			<path class="st5" d="M170.1,111.5h-6.6c-0.6,0-1.1-0.5-1.1-1.1v-1.5c0-0.6,0.5-1.1,1.1-1.1h6.6c0.6,0,1.1,0.5,1.1,1.1v1.5
				C171.2,111,170.7,111.5,170.1,111.5z"/>
		</g>
	</g>
	<g>
		<g>
			<path class="st5" d="M181.2,111.5h-6.6c-0.6,0-1.1-0.5-1.1-1.1v-1.5c0-0.6,0.5-1.1,1.1-1.1h6.6c0.6,0,1.1,0.5,1.1,1.1v1.5
				C182.3,111,181.8,111.5,181.2,111.5z"/>
		</g>
	</g>
	<g>
		<g>
			<path class="st5" d="M175.5,106.2h-6.6c-0.6,0-1.1-0.5-1.1-1.1v-1.5c0-0.6,0.5-1.1,1.1-1.1h6.6c0.6,0,1.1,0.5,1.1,1.1v1.5
				C176.6,105.7,176.1,106.2,175.5,106.2z"/>
		</g>
	</g>
</g>
<g>
	<g>
		<g>
			<path class="st5" d="M195.5,130.7h-6.6c-0.6,0-1.1-0.5-1.1-1.1v-1.5c0-0.6,0.5-1.1,1.1-1.1h6.6c0.6,0,1.1,0.5,1.1,1.1v1.5
				C196.6,130.2,196.1,130.7,195.5,130.7z"/>
		</g>
	</g>
	<g>
		<g>
			<path class="st5" d="M189.8,125.3h-6.6c-0.6,0-1.1-0.5-1.1-1.1v-1.5c0-0.6,0.5-1.1,1.1-1.1h6.6c0.6,0,1.1,0.5,1.1,1.1v1.5
				C190.9,124.9,190.5,125.3,189.8,125.3z"/>
		</g>
	</g>
	<g>
		<g>
			<path class="st5" d="M158.2,125.3h-6.6c-0.6,0-1.1-0.5-1.1-1.1v-1.5c0-0.6,0.5-1.1,1.1-1.1h6.6c0.6,0,1.1,0.5,1.1,1.1v1.5
				C159.3,124.9,158.8,125.3,158.2,125.3z"/>
		</g>
	</g>
</g>
<g>
	<g>
		<path class="st5" d="M373.6,113.5h6.6c0.6,0,1.1-0.5,1.1-1.1v-1.5c0-0.6-0.5-1.1-1.1-1.1h-6.6c-0.6,0-1.1,0.5-1.1,1.1v1.5
			C372.5,113,373,113.5,373.6,113.5z"/>
	</g>
</g>
<g>
	<g>
		<path class="st5" d="M379.3,108.2h6.6c0.6,0,1.1-0.5,1.1-1.1v-1.5c0-0.6-0.5-1.1-1.1-1.1h-6.6c-0.6,0-1.1,0.5-1.1,1.1v1.5
			C378.1,107.7,378.6,108.2,379.3,108.2z"/>
	</g>
</g>
<g>
	<g>
		<path class="st5" d="M400.2,121.6h-5c-0.6,0-1.1,0.5-1.1,1.1v1.5c0,0.6,0.5,1.1,1.1,1.1h5V121.6z"/>
	</g>
</g>
<g>
	<g>
		<path class="st5" d="M46.4,189h-4.9v3.7h4.9c0.6,0,1.1-0.5,1.1-1.1v-1.5C47.6,189.5,47.1,189,46.4,189z"/>
	</g>
</g>
<g>
	<g>
		<g>
			<path class="st5" d="M294.4,187.4h-72.7v0.9c0,0.9,0.7,1.6,1.6,1.6h69.6c0.9,0,1.6-0.7,1.6-1.6V187.4z"/>
		</g>
	</g>
	<g>
		<g>
			<rect x="223.1" y="143" class="st1" width="69.8" height="43"/>
		</g>
	</g>
	<g>
		<g>
			<rect x="227.5" y="149.1" class="st12" width="57.3" height="30.1"/>
		</g>
	</g>
	<g>
		<g>
			<path class="st1" d="M250.3,180.1l5.7-17.8c0.2-0.7,1.3-0.7,1.5,0l5.1,17.8H250.3z"/>
		</g>
	</g>
	<g>
		<g>
			<path class="st1" d="M224.9,180.1l6.9-21.5c0.3-0.9,1.5-0.9,1.8,0l6.2,21.5H224.9z"/>
		</g>
	</g>
	<g>
		<g>
			<path class="st1" d="M260.5,180.1l5.7-17.8c0.2-0.7,1.3-0.7,1.5,0l5.1,17.8H260.5z"/>
		</g>
	</g>
	<g id="XMLID_61_">
		<g>
			<path class="st1" d="M271.1,172.3c0.8-1.3,1.1-2.8,0.7-4.3c-0.2-0.6-0.2-1.2-0.2-1.8c0-1.3,0.4-2.6,1.1-3.6
				c0.7-1.1,0.9-2.4,0.6-3.6c-0.1-0.4-0.2-0.8-0.2-1.3c0-2.9,2.5-5.3,5.4-5.2c2.8,0.1,5,2.4,5,5.2c0,0.4-0.1,0.9-0.2,1.3
				c-0.3,1.2-0.1,2.6,0.6,3.6c0.7,1,1.1,2.3,1.1,3.6c0,0.6,0.4,1.7,0.2,2.2c-0.4,1.4,0.1,2.6,0.9,3.8c0.9,1.4,0.7,3.2,0.6,5
				c-0.2,4.4-3.9,8-8.4,8c-4.7,0-8.5-3.8-8.5-8.4C269.8,175.2,270.3,173.6,271.1,172.3z"/>
		</g>
	</g>
	<g id="XMLID_60_">
		<g>
			<g>
				<path class="st5" d="M281.3,178.2l1.1-3.3h-4.3l1.1,3.3c-1.3,0.4-2.3,1.7-2.3,3.1c0,1.8,1.5,3.3,3.3,3.3c1.8,0,3.3-1.5,3.3-3.3
					C283.6,179.9,282.6,178.7,281.3,178.2z"/>
			</g>
		</g>
	</g>
	<g>
		<g>
			<path class="st16" d="M294.3,187.4h-72.5v-45.8h72.5V187.4z M224.5,184.6h67v-40.2h-67V184.6z"/>
		</g>
	</g>
	<g>
		<g>
			<rect x="244.1" y="143.3" class="st16" width="2.8" height="42.5"/>
		</g>
	</g>
	<g>
		<g>
			<rect x="223.3" y="152" class="st16" width="22.3" height="2.8"/>
		</g>
	</g>
	<g>
		<g>
			<g>
				<g>
					<path class="st14" d="M274.6,176.3c0,2.3-1.1,4.2-1.1,4.2s-1.1-1.9-1.1-4.2c0-2.3,1.1-4.2,1.1-4.2S274.6,174,274.6,176.3z"/>
				</g>
			</g>
			<g>
				<g>
					<path class="st14" d="M272.9,177.9c0.8,1.7,0.7,3.4,0.7,3.4s-1.4-1-2.2-2.6c-0.8-1.7-0.7-3.4-0.7-3.4S272.1,176.3,272.9,177.9z
						"/>
				</g>
			</g>
			<g>
				<g>
					<path class="st14" d="M274,177.9c-0.8,1.7-0.7,3.4-0.7,3.4s1.4-1,2.2-2.6c0.8-1.7,0.7-3.4,0.7-3.4S274.8,176.3,274,177.9z"/>
				</g>
			</g>
		</g>
		<g>
			<g>
				<path class="st10" d="M273.4,184.6L273.4,184.6c-1.3,0-2.3-1-2.3-2.3v-2.4h4.5v2.4C275.7,183.6,274.7,184.6,273.4,184.6z"/>
			</g>
		</g>
	</g>
	<g>
		<g>
			<g>
				<path class="st1" d="M237.7,175.1c0.6,1.5-0.5,3.4-0.5,3.4s-2.1-0.6-2.7-2.1s-0.1-2.4,0.7-2.7
					C236.2,173.2,237.1,173.6,237.7,175.1z"/>
			</g>
		</g>
		<g>
			<g>
				<g>
					
						<rect x="228.9" y="177.4" transform="matrix(0.3374 0.9414 -0.9414 0.3374 321.3237 -101.0847)" class="st14" width="7.2" height="0.7"/>
				</g>
			</g>
		</g>
		<g>
			<g>
				<g>
					
						<rect x="230.6" y="177.1" transform="matrix(7.619938e-02 0.9971 -0.9971 7.619938e-02 393.4267 -69.751)" class="st14" width="7.4" height="0.7"/>
				</g>
			</g>
		</g>
		<g>
			<g>
				<path class="st14" d="M232.4,174.6c-0.3,1.3-2,2-2,2s-1.1-1.4-0.8-2.7c0.3-1.3,1.1-1.7,1.9-1.5
					C232.3,172.6,232.8,173.3,232.4,174.6z"/>
			</g>
		</g>
		<g>
			<g>
				
					<rect x="235.1" y="176" transform="matrix(0.9632 0.2686 -0.2686 0.9632 56.5942 -56.6841)" class="st1" width="0.7" height="4.9"/>
			</g>
		</g>
		<g>
			<g>
				<g>
					
						<rect x="236.9" y="174.1" transform="matrix(0.8565 0.5161 -0.5161 0.8565 125.7687 -96.9544)" class="st14" width="0.7" height="7.3"/>
				</g>
			</g>
		</g>
		<g>
			<g>
				<g>
					
						<rect x="229" y="179" transform="matrix(0.6022 0.7983 -0.7983 0.6022 235.0236 -113.086)" class="st14" width="4" height="0.7"/>
				</g>
			</g>
		</g>
		<g>
			<g>
				<path class="st21" d="M235.4,173.4c-1,1.2-3.2,1.1-3.2,1.1s-0.4-2.1,0.6-3.3s2-1.2,2.8-0.6C236.2,171.2,236.4,172.2,235.4,173.4
					z"/>
			</g>
		</g>
		<g>
			<g>
				<path class="st21" d="M230.1,178.6c-1,1.2-2.7,1.6-2.7,1.6s0.1-1.7,1.1-2.9c1-1.2,1.8-1.4,2.2-1.1
					C231.2,176.5,231.1,177.3,230.1,178.6z"/>
			</g>
		</g>
		<g>
			<g>
				<path class="st11" d="M228.9,180.5c0.9,2.4,3.2,4,5.9,4c2.7,0,5-1.7,5.9-4H228.9z"/>
			</g>
		</g>
		<g>
			<g>
				<g>
					
						<rect x="237.8" y="177.2" transform="matrix(0.1221 0.9925 -0.9925 0.1221 386.1058 -79.8106)" class="st14" width="0.7" height="2.3"/>
				</g>
			</g>
		</g>
		<g>
			<g>
				<path class="st14" d="M241.6,173.6c0.6,1.5-0.5,3.4-0.5,3.4s-2.1-0.6-2.7-2.1s-0.1-2.4,0.7-2.7
					C240.1,171.8,241,172.1,241.6,173.6z"/>
			</g>
		</g>
		<g>
			<g>
				<path class="st14" d="M240.5,178.2c0.8,0.9,0.9,2.1,0.9,2.1s-1.2-0.2-1.9-1.1s-0.8-1.4-0.5-1.7
					C239.2,177.2,239.7,177.3,240.5,178.2z"/>
			</g>
		</g>
	</g>
	<g class="st15">
		<g>
			<path class="st16" d="M223.5,177.5l35.7-34.5h33.4l-0.7,8.2l-34.7,35.2h-34.1C223.1,186.4,223.5,176.7,223.5,177.5z"/>
		</g>
	</g>
	<g>
		<g>
			<g>
				<g>
					
						<rect x="249.9" y="170.4" transform="matrix(7.931776e-02 0.9968 -0.9968 7.931776e-02 402.8382 -95.0093)" class="st14" width="5.8" height="0.4"/>
				</g>
			</g>
			<g>
				<g>
					
						<rect x="253.4" y="168.3" transform="matrix(0.9048 0.4259 -0.4259 0.9048 96.4531 -91.8319)" class="st14" width="0.4" height="3"/>
				</g>
			</g>
		</g>
		<g>
			<g>
				<g>
					<path class="st5" d="M253.1,184.6L253.1,184.6c-0.9,0-1.6-0.7-1.6-1.6v-4.8c0-0.9,0.7-1.6,1.6-1.6l0,0c0.9,0,1.6,0.7,1.6,1.6
						v4.8C254.7,183.9,254,184.6,253.1,184.6z"/>
				</g>
			</g>
			<g>
				<g>
					<rect x="252.5" y="173.2" class="st5" width="1.3" height="4.2"/>
				</g>
			</g>
		</g>
		<g>
			<g>
				<circle class="st5" cx="252.6" cy="167.3" r="0.5"/>
			</g>
		</g>
		<g>
			<g>
				<circle class="st5" cx="254.8" cy="168.3" r="0.5"/>
			</g>
		</g>
		<g>
			<g>
				<circle class="st5" cx="254.4" cy="169.5" r="0.4"/>
			</g>
		</g>
		<g>
			<g>
				<circle class="st5" cx="253.9" cy="170.4" r="0.4"/>
			</g>
		</g>
	</g>
</g>
<g>
	<g>
		<g>
			<g>
				<path class="st10" d="M294.2,128.8h-72.5V80h72.5V128.8z"/>
			</g>
		</g>
	</g>
	<g>
		<g>
			<rect x="224.9" y="111.2" class="st22" width="18.8" height="1.4"/>
		</g>
	</g>
	<g>
		<g>
			<rect x="247.3" y="111.2" class="st22" width="41.1" height="1.4"/>
		</g>
	</g>
	<g>
		<g>
			<rect x="248.2" y="83.7" class="st1" width="42.5" height="26.6"/>
		</g>
	</g>
	<g class="st15">
		<g>
			<polygon class="st16" points="252,83.7 248.2,87.5 248.2,110.3 257.9,110.3 284.5,83.7 			"/>
		</g>
	</g>
	<g>
		<g>
			<path class="st17" d="M261.3,88.6v-5.8h-0.6v5.8c-2.7,0.2-4.9,2.4-4.9,5.2c0,2.9,2.3,5.2,5.2,5.2c2.9,0,5.2-2.3,5.2-5.2
				C266.2,91,264,88.7,261.3,88.6z"/>
		</g>
	</g>
	<g>
		<g>
			<g>
				<path class="st17" d="M269.6,105.9c0,2-0.9,3.7-0.9,3.7s-0.9-1.6-0.9-3.7c0-2,0.9-3.7,0.9-3.7S269.6,103.8,269.6,105.9z"/>
			</g>
		</g>
		<g>
			<g>
				<path class="st17" d="M267.5,106.9c1,1.2,1.2,2.7,1.2,2.7s-1.5-0.4-2.6-1.6s-1.2-2.7-1.2-2.7S266.4,105.7,267.5,106.9z"/>
			</g>
		</g>
		<g>
			<g>
				<path class="st17" d="M271.1,107.2c-0.9,1.3-2.4,1.8-2.4,1.8s0-1.6,0.9-2.9s2.4-1.8,2.4-1.8S272,105.9,271.1,107.2z"/>
			</g>
		</g>
		<g>
			<g>
				<path class="st17" d="M271.5,109c-1.4,0.7-3,0.4-3,0.4s0.7-1.4,2.2-2.1c1.4-0.7,3-0.4,3-0.4S272.9,108.3,271.5,109z"/>
			</g>
		</g>
	</g>
	<g>
		<g>
			<path class="st17" d="M263.2,105.9c0,2.1-1.7,3.7-3.7,3.7s-3.7-1.7-3.7-3.7H263.2z"/>
		</g>
	</g>
	<g>
		<g>
			<path class="st16" d="M289.8,84.6v24.9h-40.7V84.6H289.8 M291.6,82.9h-44.2v28.4h44.2V82.9L291.6,82.9z"/>
		</g>
	</g>
	<g>
		<g>
			<rect x="225.8" y="83.7" class="st1" width="17" height="26.6"/>
		</g>
	</g>
	<g class="st15">
		<g>
			<polygon class="st16" points="225.8,110.3 242.8,110.3 242.8,92.9 225.8,109.9 			"/>
		</g>
	</g>
	<g>
		<g>
			<path class="st16" d="M241.9,84.6v24.9h-15.3V84.6H241.9 M243.6,82.9h-18.8v28.4h18.8V82.9L243.6,82.9z"/>
		</g>
	</g>
	<g id="XMLID_2_">
		<g id="XMLID_24_">
			<g id="XMLID_37_">
				<g id="XMLID_38_">
					<g>
						<g>
							<rect x="287.1" y="119" class="st1" width="1.3" height="5.9"/>
						</g>
					</g>
				</g>
			</g>
			<g id="XMLID_36_">
				<g>
					<path class="st2" d="M287.6,119.1L287.6,119.1c2.5,0,4.5-2,4.5-4.5v-9.9c0-2.5-2-4.5-4.5-4.5h0c-2.5,0-4.5,2-4.5,4.5v9.9
						C283,117.1,285.1,119.1,287.6,119.1z"/>
				</g>
			</g>
			<g id="XMLID_35_">
				<g>
					<path class="st3" d="M287.6,100.2L287.6,100.2c2.1,0,3.8,1.4,4.4,3.4c-0.4-1-1.4-1.8-2.6-1.8c-1.5,0-2.7,1.2-2.7,2.7v8.3
						c0,1.5-1.2,2.7-2.7,2.7l0,0c-0.3,0-0.5,0-0.7-0.1c0-0.3-0.1-0.5-0.1-0.8v-9.9C283,102.2,285.1,100.2,287.6,100.2z"/>
				</g>
			</g>
		</g>
		<g id="XMLID_23_">
			<g>
				<path class="st1" d="M287.9,128.4h-0.8c-1.2,0-2.2-0.9-2.2-2.1l-0.2-2.4c0-0.3,0.2-0.6,0.6-0.6h4.4c0.3,0,0.6,0.3,0.6,0.6
					l-0.2,2.4C290.1,127.5,289.1,128.4,287.9,128.4z"/>
			</g>
		</g>
	</g>
	<g>
		<g>
			<path class="st5" d="M295.9,129.9h-75.8v6.1c0,0.9,0.7,1.6,1.6,1.6h72.5c0.9,0,1.6-0.7,1.6-1.6V129.9z"/>
		</g>
	</g>
	<g>
		<g>
			<rect x="220.1" y="128.5" class="st16" width="75.8" height="2.7"/>
		</g>
	</g>
	<g>
		<g>
			<rect x="220" y="114.7" class="st16" width="3.1" height="13.8"/>
		</g>
	</g>
	<g>
		<g>
			<circle class="st16" cx="221.6" cy="113.2" r="1.5"/>
		</g>
	</g>
	<g>
		<g>
			<g>
				<rect x="292.7" y="114.7" class="st16" width="3.1" height="13.8"/>
			</g>
		</g>
		<g>
			<g>
				<circle class="st16" cx="294.2" cy="113.2" r="1.5"/>
			</g>
		</g>
	</g>
	<g>
		<g>
			<rect x="221.6" y="114.7" class="st16" width="72.5" height="0.8"/>
		</g>
	</g>
	<g>
		<g>
			<rect x="221.6" y="125.9" class="st16" width="72.5" height="0.8"/>
		</g>
	</g>
	<g>
		<g>
			<g>
				<g>
					<path class="st16" d="M227.2,126.5h-2v-4.2c0-0.5,0.4-1,1-1l0,0c0.5,0,1,0.4,1,1V126.5z"/>
				</g>
			</g>
			<g>
				<g>
					<rect x="225.8" y="115.4" class="st16" width="0.8" height="6.6"/>
				</g>
			</g>
		</g>
		<g>
			<g>
				<g>
					<path class="st16" d="M232,126.5h-2v-4.2c0-0.5,0.4-1,1-1l0,0c0.5,0,1,0.4,1,1V126.5z"/>
				</g>
			</g>
			<g>
				<g>
					<rect x="230.6" y="115.4" class="st16" width="0.8" height="6.6"/>
				</g>
			</g>
		</g>
		<g>
			<g>
				<g>
					<path class="st16" d="M236.9,126.5h-2v-4.2c0-0.5,0.4-1,1-1l0,0c0.5,0,1,0.4,1,1V126.5z"/>
				</g>
			</g>
			<g>
				<g>
					<rect x="235.5" y="115.4" class="st16" width="0.8" height="6.6"/>
				</g>
			</g>
		</g>
		<g>
			<g>
				<g>
					<path class="st16" d="M241.8,126.5h-2v-4.2c0-0.5,0.4-1,1-1l0,0c0.5,0,1,0.4,1,1V126.5z"/>
				</g>
			</g>
			<g>
				<g>
					<rect x="240.4" y="115.4" class="st16" width="0.8" height="6.6"/>
				</g>
			</g>
		</g>
		<g>
			<g>
				<g>
					<path class="st16" d="M246.6,126.5h-2v-4.2c0-0.5,0.4-1,1-1l0,0c0.5,0,1,0.4,1,1V126.5z"/>
				</g>
			</g>
			<g>
				<g>
					<rect x="245.2" y="115.4" class="st16" width="0.8" height="6.6"/>
				</g>
			</g>
		</g>
		<g>
			<g>
				<g>
					<path class="st16" d="M251.5,126.5h-2v-4.2c0-0.5,0.4-1,1-1l0,0c0.5,0,1,0.4,1,1V126.5z"/>
				</g>
			</g>
			<g>
				<g>
					<rect x="250.1" y="115.4" class="st16" width="0.8" height="6.6"/>
				</g>
			</g>
		</g>
		<g>
			<g>
				<g>
					<path class="st16" d="M256.3,126.5h-2v-4.2c0-0.5,0.4-1,1-1l0,0c0.5,0,1,0.4,1,1V126.5z"/>
				</g>
			</g>
			<g>
				<g>
					<rect x="254.9" y="115.4" class="st16" width="0.8" height="6.6"/>
				</g>
			</g>
		</g>
		<g>
			<g>
				<g>
					<path class="st16" d="M261.2,126.5h-2v-4.2c0-0.5,0.4-1,1-1l0,0c0.5,0,1,0.4,1,1V126.5z"/>
				</g>
			</g>
			<g>
				<g>
					<rect x="259.8" y="115.4" class="st16" width="0.8" height="6.6"/>
				</g>
			</g>
		</g>
		<g>
			<g>
				<g>
					<path class="st16" d="M266.1,126.5h-2v-4.2c0-0.5,0.4-1,1-1l0,0c0.5,0,1,0.4,1,1V126.5z"/>
				</g>
			</g>
			<g>
				<g>
					<rect x="264.7" y="115.4" class="st16" width="0.8" height="6.6"/>
				</g>
			</g>
		</g>
		<g>
			<g>
				<g>
					<path class="st16" d="M270.9,126.5h-2v-4.2c0-0.5,0.4-1,1-1l0,0c0.5,0,1,0.4,1,1V126.5z"/>
				</g>
			</g>
			<g>
				<g>
					<rect x="269.5" y="115.4" class="st16" width="0.8" height="6.6"/>
				</g>
			</g>
		</g>
		<g>
			<g>
				<g>
					<path class="st16" d="M275.8,126.5h-2v-4.2c0-0.5,0.4-1,1-1l0,0c0.5,0,1,0.4,1,1V126.5z"/>
				</g>
			</g>
			<g>
				<g>
					<rect x="274.4" y="115.4" class="st16" width="0.8" height="6.6"/>
				</g>
			</g>
		</g>
		<g>
			<g>
				<g>
					<path class="st16" d="M280.7,126.5h-2v-4.2c0-0.5,0.4-1,1-1l0,0c0.5,0,1,0.4,1,1V126.5z"/>
				</g>
			</g>
			<g>
				<g>
					<rect x="279.3" y="115.4" class="st16" width="0.8" height="6.6"/>
				</g>
			</g>
		</g>
		<g>
			<g>
				<g>
					<path class="st16" d="M285.5,126.5h-2v-4.2c0-0.5,0.4-1,1-1l0,0c0.5,0,1,0.4,1,1V126.5z"/>
				</g>
			</g>
			<g>
				<g>
					<rect x="284.1" y="115.4" class="st16" width="0.8" height="6.6"/>
				</g>
			</g>
		</g>
		<g>
			<g>
				<g>
					<path class="st16" d="M290.4,126.5h-2v-4.2c0-0.5,0.4-1,1-1l0,0c0.5,0,1,0.4,1,1V126.5z"/>
				</g>
			</g>
			<g>
				<g>
					<rect x="289" y="115.4" class="st16" width="0.8" height="6.6"/>
				</g>
			</g>
		</g>
	</g>
	<g>
		<g>
			<g>
				<path class="st2" d="M249.2,113.1c-0.1,0-0.1,0-0.2,0c0-0.1,0-0.2,0-0.3c0-0.8-0.7-1.5-1.5-1.5c-0.6,0-1,0.3-1.3,0.8
					c-0.2-0.5-0.7-0.8-1.3-0.8c-0.4,0-0.7,0.1-1,0.4c0,0,0,0,0-0.1c0-1.1-0.9-2-2-2c-1.1,0-2,0.9-2,2c0,0.1,0,0.1,0,0.2
					c-0.2-0.1-0.5-0.2-0.7-0.2c-0.5,0-1,0.3-1.2,0.7c-0.3-0.4-0.7-0.7-1.2-0.7c-0.8,0-1.5,0.7-1.5,1.5c0,0,0,0,0,0.1l0,0
					c-0.6,0-1.1,0.5-1.1,1.1c0,0.6,0.5,1.1,1.1,1.1c0.3,0,0.5-0.1,0.7-0.2v1h12.4v-1c0.2,0.1,0.4,0.2,0.6,0.2c0.6,0,1.1-0.5,1.1-1.1
					C250.4,113.6,249.9,113.1,249.2,113.1z"/>
			</g>
		</g>
		<g>
			<g>
				<path class="st1" d="M233.4,114.3l0.9,4.7c0.1,0.8,0.8,1.3,1.6,1.3h13c0.8,0,1.4-0.6,1.6-1.3l0.8-4.7H233.4z"/>
			</g>
		</g>
	</g>
	<g>
		<g>
			<g>
				<path class="st2" d="M278.9,113.1c-0.1,0-0.1,0-0.2,0c0-0.1,0-0.2,0-0.3c0-0.8-0.7-1.5-1.5-1.5c-0.6,0-1,0.3-1.3,0.8
					c-0.2-0.5-0.7-0.8-1.3-0.8c-0.4,0-0.7,0.1-1,0.4c0,0,0,0,0-0.1c0-1.1-0.9-2-2-2c-1.1,0-2,0.9-2,2c0,0.1,0,0.1,0,0.2
					c-0.2-0.1-0.5-0.2-0.7-0.2c-0.5,0-1,0.3-1.2,0.7c-0.3-0.4-0.7-0.7-1.2-0.7c-0.8,0-1.5,0.7-1.5,1.5c0,0,0,0,0,0.1l0,0
					c-0.6,0-1.1,0.5-1.1,1.1c0,0.6,0.5,1.1,1.1,1.1c0.3,0,0.5-0.1,0.7-0.2v1h12.4v-1c0.2,0.1,0.4,0.2,0.6,0.2c0.6,0,1.1-0.5,1.1-1.1
					C280,113.6,279.5,113.1,278.9,113.1z"/>
			</g>
		</g>
		<g>
			<g>
				<path class="st1" d="M263,114.3l0.9,4.7c0.1,0.8,0.8,1.3,1.6,1.3h13c0.8,0,1.4-0.6,1.6-1.3l0.8-4.7H263z"/>
			</g>
		</g>
	</g>
</g>
<g>
	<g>
		<g>
			<rect x="114.6" y="188.6" class="st23" width="1.8" height="10.9"/>
		</g>
	</g>
	<g>
		<g>
			<rect x="146.8" y="188.6" class="st23" width="1.8" height="10.9"/>
		</g>
	</g>
	<g>
		<g>
			<path class="st11" d="M149.6,197.3h-36c-0.6,0-1-0.5-1-1v-1.9c0-0.6,0.5-1,1-1h36c0.6,0,1,0.5,1,1v1.9
				C150.7,196.8,150.2,197.3,149.6,197.3z"/>
		</g>
	</g>
	<g>
		<g>
			<path class="st11" d="M149.6,192.1h-36c-0.6,0-1-0.5-1-1v-1.9c0-0.6,0.5-1,1-1h36c0.6,0,1,0.5,1,1v1.9
				C150.7,191.7,150.2,192.1,149.6,192.1z"/>
		</g>
	</g>
	<g>
		<g>
			<polygon class="st11" points="114.6,206 116.3,200.3 114.4,200.3 112.7,206 			"/>
		</g>
	</g>
	<g>
		<g>
			<polygon class="st11" points="150.4,206 148.7,200.3 146.8,200.3 148.5,206 			"/>
		</g>
	</g>
	<g>
		<g>
			<polygon class="st23" points="113.7,202.7 115.6,202.7 116.3,200.3 114.4,200.3 			"/>
		</g>
	</g>
	<g>
		<g>
			<polygon class="st23" points="148.7,200.3 146.8,200.3 147.5,202.7 149.4,202.7 			"/>
		</g>
	</g>
	<g>
		<g>
			<path class="st11" d="M151.4,200.6h-39.4c-0.6,0-1-0.4-1-1l0,0c0-0.6,0.4-1,1-1h39.4c0.6,0,1,0.4,1,1l0,0
				C152.4,200.2,151.9,200.6,151.4,200.6z"/>
		</g>
	</g>
</g>
<g>
	<g>
		<g>
			<rect x="317.7" y="149.9" class="st10" width="28.2" height="55.6"/>
		</g>
	</g>
	<g>
		<g>
			<g>
				<path class="st16" d="M347.3,206h-31v-57.5h31V206z M319,203.9h25.5v-52.6H319V203.9z"/>
			</g>
		</g>
	</g>
	<g>
		<g>
			<path class="st1" d="M322.6,154.5v29h18.1v-29H322.6z M322.6,200.9h18.1v-14h-18.1V200.9z"/>
		</g>
	</g>
	<g>
		<g>
			<path class="st4" d="M342.6,180.2L342.6,180.2c-0.5,0-0.9-0.4-0.9-0.9v-3.2c0-0.5,0.4-0.9,0.9-0.9l0,0c0.5,0,0.9,0.4,0.9,0.9v3.2
				C343.6,179.8,343.1,180.2,342.6,180.2z"/>
		</g>
	</g>
	<g>
		<g>
			<path class="st20" d="M322.6,154.5V174l18.1-18.1v-1.4H322.6z M322.6,200.9h4.7l13.4-13.4v-0.6h-18.1V200.9z M322.6,183.5h18.1
				v-18.3l-18.1,18.1V183.5z"/>
		</g>
	</g>
	<g>
		<g>
			<rect x="316.3" y="141.7" class="st16" width="31" height="6.8"/>
		</g>
	</g>
	<g class="st18">
		<g>
			<rect x="316.3" y="148.5" class="st19" width="31" height="6"/>
		</g>
	</g>
</g>
<g>
	<g>
		<g>
			<rect x="377.7" y="149.9" class="st5" width="22.4" height="55.6"/>
		</g>
	</g>
	<g>
		<g>
			<polygon class="st16" points="400,203.9 379.1,203.9 379.1,151.3 400,151.3 400,148.5 376.3,148.5 376.3,206 400,206 			"/>
		</g>
	</g>
	<g>
		<g>
			<rect x="376.3" y="141.7" class="st16" width="23.7" height="6.8"/>
		</g>
	</g>
	<g class="st18">
		<g>
			<rect x="376.3" y="148.5" class="st19" width="23.7" height="6"/>
		</g>
	</g>
	<g>
		<g>
			<g>
				<circle class="st11" cx="391.9" cy="168.2" r="6.5"/>
			</g>
		</g>
		<g>
			<g>
				<circle class="st4" cx="391.9" cy="167" r="6.5"/>
			</g>
		</g>
		<g>
			<g>
				<circle class="st1" cx="391.9" cy="167" r="5.4"/>
			</g>
		</g>
		<g>
			<g>
				<path class="st24" d="M391.9,161.7c-3,0-5.4,2.4-5.4,5.4c0,1.4,0.5,2.7,1.4,3.6l7.6-7.6C394.6,162.2,393.3,161.7,391.9,161.7z"
					/>
			</g>
		</g>
	</g>
	<g>
		<g>
			<circle class="st1" cx="382.7" cy="178.7" r="1.5"/>
		</g>
	</g>
	<g>
		<g>
			<rect x="386.8" y="195.8" class="st4" width="10" height="1.8"/>
		</g>
	</g>
</g>
<g>
	<g>
		<g>
			<path class="st10" d="M308.8,80h17.8v30h-17.8V80z M324,82.6h-12.6v24.8H324V82.6z"/>
		</g>
	</g>
	<g>
		<g>
			<rect x="308.8" y="110" class="st5" width="17.8" height="1.2"/>
		</g>
	</g>
	<g>
		<g>
			<rect x="311.4" y="82.6" class="st1" width="12.6" height="24.8"/>
		</g>
	</g>
	<g>
		<g>
			<path class="st10" d="M330.2,80H348v30h-17.8V80z M345.4,82.6h-12.6v24.8h12.6V82.6z"/>
		</g>
	</g>
	<g>
		<g>
			<rect x="330.2" y="110" class="st5" width="17.8" height="1.2"/>
		</g>
	</g>
	<g>
		<g>
			<rect x="332.8" y="82.6" class="st1" width="12.6" height="24.8"/>
		</g>
	</g>
	<g class="st15">
		<g>
			<path class="st16" d="M311.4,107.4H324V85l-12.6,12.6V107.4z M332.8,82.6v20.7l12.6-12.6v-8.1H332.8z"/>
		</g>
	</g>
	<g>
		<g>
			<path class="st16" d="M324.8,108.2h-14.3V81.8h14.3V108.2z M312.2,106.6h11V83.4h-11V106.6z"/>
		</g>
	</g>
	<g>
		<g>
			<path class="st16" d="M346.2,108.2H332V81.8h14.3V108.2z M333.6,106.6h11V83.4h-11V106.6z"/>
		</g>
	</g>
	<g id="XMLID_39_">
		<g>
			<g>
				<path class="st5" d="M341.6,102.1l0.7-2.3h-2.9l0.7,2.3c-0.9,0.3-1.5,1.1-1.5,2.1c0,1.2,1,2.3,2.3,2.3c1.2,0,2.3-1,2.3-2.3
					C343.1,103.2,342.5,102.4,341.6,102.1z"/>
			</g>
		</g>
	</g>
	<g>
		<g>
			<polygon class="st16" points="334.3,106.6 336.7,102.5 339,106.6 			"/>
		</g>
	</g>
	<g>
		<g>
			<circle class="st1" cx="316.9" cy="104.5" r="2"/>
		</g>
	</g>
</g>
<g>
	<g>
		<g>
			
				<rect x="89.5" y="200.7" transform="matrix(0.7063 0.7079 -0.7079 0.7063 170.6455 -4.223)" class="st1" width="1.9" height="5.7"/>
		</g>
	</g>
	<g>
		<g>
			
				<rect x="82.1" y="202.6" transform="matrix(0.1673 0.9859 -0.9859 0.1673 274.0257 82.6867)" class="st1" width="12" height="1.9"/>
		</g>
	</g>
	<g>
		<g>
			<g>
				<circle class="st2" cx="82.3" cy="186.5" r="6.4"/>
			</g>
		</g>
		<g>
			<g>
				<circle class="st2" cx="84.1" cy="195.8" r="6.4"/>
			</g>
		</g>
		<g>
			<g>
				<circle class="st2" cx="88.8" cy="178.8" r="6.7"/>
			</g>
		</g>
		<g>
			<g>
				<circle class="st2" cx="99.1" cy="182.3" r="6.7"/>
			</g>
		</g>
		<g>
			<g>
				<circle class="st2" cx="101.9" cy="191.5" r="6.7"/>
			</g>
		</g>
		<g>
			<g>
				<circle class="st2" cx="89.9" cy="192.6" r="6.7"/>
			</g>
		</g>
		<g>
			<g>
				<circle class="st2" cx="94.9" cy="197.7" r="6.7"/>
			</g>
		</g>
		<g>
			<g>
				<circle class="st2" cx="92.9" cy="187.4" r="6.7"/>
			</g>
		</g>
	</g>
	<g>
		<g>
			
				<rect x="74.9" y="178.5" transform="matrix(0.4519 0.8921 -0.8921 0.4519 203.8947 26.955)" class="st1" width="10.2" height="1.9"/>
		</g>
	</g>
	<g>
		<g>
			<circle class="st2" cx="73.5" cy="173.3" r="3.4"/>
		</g>
	</g>
	<g>
		<g>
			<circle class="st2" cx="78" cy="169.8" r="3.4"/>
		</g>
	</g>
	<g>
		<g>
			<circle class="st2" cx="78" cy="174.4" r="3.4"/>
		</g>
	</g>
</g>
<g>
	<g>
		<g>
			<rect x="235.9" y="30.9" class="st1" width="46.4" height="23.4"/>
		</g>
	</g>
	<g>
		<g>
			<path class="st10" d="M235.9,43.9c1.1-0.2,1.3-1,2.8-1c1.7,0,1.7,1.1,3.4,1.1c1.7,0,1.7-1.1,3.4-1.1c1.7,0,1.7,1.1,3.4,1.1
				c1.7,0,1.7-1.1,3.4-1.1c1.7,0,1.7,1.1,3.4,1.1c1.7,0,1.7-1.1,3.4-1.1c1.7,0,1.7,1.1,3.5,1.1s1.7-1.1,3.5-1.1s1.7,1.1,3.5,1.1
				c1.7,0,1.7-1.1,3.4-1.1c1.7,0,1.7,1.1,3.5,1.1c1.7,0,1.7-1.1,3.5-1.1c1.2,0,1.5,0.5,2.2,0.8V30.9h-46.4V43.9z"/>
		</g>
	</g>
	<g>
		<g>
			<rect x="235.9" y="31.8" class="st25" width="45.9" height="2.1"/>
		</g>
	</g>
	<g class="st15">
		<g>
			<polygon class="st16" points="235.9,54.3 252.9,54.3 276.2,30.9 254.7,30.9 235.9,49.8 			"/>
		</g>
	</g>
	<g>
		<g>
			<g>
				<path class="st16" d="M283.6,55.7h-49.2V29.5h49.2V55.7z M237.2,52.9h43.6V32.3h-43.6V52.9z"/>
			</g>
		</g>
	</g>
	<g>
		<g>
			<rect x="257.5" y="30.9" class="st16" width="2.8" height="23.4"/>
		</g>
	</g>
	<g>
		<g>
			<rect x="234.5" y="29.5" class="st26" width="49.2" height="2.8"/>
		</g>
	</g>
	<g>
		<g>
			<rect x="232.7" y="23.8" class="st16" width="52.7" height="5.9"/>
		</g>
	</g>
</g>
<g>
	<g>
		<g>
			<rect x="164.1" y="6.1" class="st4" width="14.6" height="17"/>
		</g>
	</g>
	<g>
		<g>
			<rect x="164.1" y="23.1" class="st16" width="14.6" height="1.8"/>
		</g>
	</g>
</g>
<g>
	<g>
		<g>
			<rect x="321.2" y="6.1" class="st4" width="14.6" height="17"/>
		</g>
	</g>
	<g>
		<g>
			<rect x="321.2" y="23.1" class="st16" width="14.6" height="1.8"/>
		</g>
	</g>
</g>
<g id="XMLID_1_">
	<g id="XMLID_55_">
		<g id="XMLID_58_">
			<g id="XMLID_59_">
				<g>
					<g>
						<rect x="304.8" y="193.8" class="st1" width="1.7" height="7.7"/>
					</g>
				</g>
			</g>
		</g>
		<g id="XMLID_57_">
			<g>
				<path class="st2" d="M305.4,194L305.4,194c3.3,0,5.9-2.7,5.9-5.9V175c0-3.3-2.7-5.9-5.9-5.9l0,0c-3.3,0-5.9,2.7-5.9,5.9v13.1
					C299.5,191.3,302.1,194,305.4,194z"/>
			</g>
		</g>
		<g id="XMLID_56_">
			<g>
				<path class="st3" d="M305.4,169.1L305.4,169.1c2.7,0,5.1,1.9,5.7,4.4c-0.5-1.4-1.8-2.3-3.4-2.3c-2,0-3.6,1.6-3.6,3.6v10.9
					c0,2-1.6,3.6-3.6,3.6h0c-0.3,0-0.7-0.1-1-0.1c-0.1-0.4-0.1-0.7-0.1-1.1V175C299.5,171.7,302.1,169.1,305.4,169.1z"/>
			</g>
		</g>
	</g>
	<g id="XMLID_50_">
		<g>
			<path class="st16" d="M305.9,206.2h-1c-1.5,0-2.8-1.2-2.9-2.8l-0.2-3.1c0-0.5,0.3-0.8,0.8-0.8h5.8c0.5,0,0.8,0.4,0.8,0.8
				l-0.2,3.1C308.8,205,307.5,206.2,305.9,206.2z"/>
		</g>
	</g>
</g>
<g>
	<g>
		<g>
			<circle class="st14" cx="364.2" cy="177" r="2.1"/>
		</g>
	</g>
	<g>
		<g>
			<circle class="st14" cx="365.8" cy="180.9" r="2.1"/>
		</g>
	</g>
	<g>
		<g>
			<circle class="st14" cx="360.3" cy="187.9" r="2.1"/>
		</g>
	</g>
	<g>
		<g>
			<circle class="st14" cx="363.7" cy="182.6" r="2.1"/>
		</g>
	</g>
	<g>
		<g>
			<path class="st14" d="M355.3,192.3c-0.2,0-0.3-0.1-0.4-0.3c-0.1-0.3-0.2-0.8,0.6-1.5c0.9-0.8,2-1.4,3-2.1
				c1.9-1.2,3.7-2.3,4.7-4.1c1.3-2.4,0.8-5.4,0.3-8c-0.1-0.3,0.1-0.5,0.4-0.5c0.3-0.1,0.5,0.1,0.5,0.4c0.6,2.8,1.1,6-0.4,8.6
				c-1.1,2-3.1,3.3-5,4.5c-1,0.6-2,1.3-2.9,2c-0.3,0.2-0.3,0.4-0.3,0.4c0.1,0.2,0,0.5-0.2,0.6C355.4,192.2,355.3,192.3,355.3,192.3z
				"/>
		</g>
	</g>
	<g>
		<g>
			<circle class="st14" cx="355.9" cy="145.7" r="2.1"/>
		</g>
	</g>
	<g>
		<g>
			<circle class="st14" cx="358.1" cy="149.3" r="2.1"/>
		</g>
	</g>
	<g>
		<g>
			<circle class="st14" cx="354.4" cy="151.4" r="2.1"/>
		</g>
	</g>
	<g>
		<g>
			<circle class="st0" cx="356.7" cy="155.5" r="2.1"/>
		</g>
	</g>
	<g>
		<g>
			<circle class="st3" cx="353.5" cy="156.7" r="2.1"/>
		</g>
	</g>
	<g>
		<g>
			<circle class="st3" cx="356.7" cy="160.8" r="2.1"/>
		</g>
	</g>
	<g>
		<g>
			<circle class="st14" cx="354.5" cy="161.8" r="2.1"/>
		</g>
	</g>
	<g>
		<g>
			<circle class="st14" cx="352.4" cy="164.4" r="2.1"/>
		</g>
	</g>
	<g>
		<g>
			<circle class="st14" cx="355.9" cy="163.9" r="2.1"/>
		</g>
	</g>
	<g>
		<g>
			<circle class="st0" cx="355.7" cy="167.1" r="2.1"/>
		</g>
	</g>
	<g>
		<g>
			<circle class="st14" cx="352.4" cy="169" r="2.1"/>
		</g>
	</g>
	<g>
		<g>
			<circle class="st3" cx="355.7" cy="170.3" r="2.1"/>
		</g>
	</g>
	<g>
		<g>
			<circle class="st14" cx="356.7" cy="179.1" r="2.1"/>
		</g>
	</g>
	<g>
		<g>
			<circle class="st0" cx="354.4" cy="179.1" r="2.1"/>
		</g>
	</g>
	<g>
		<g>
			<circle class="st0" cx="354.5" cy="183" r="2.1"/>
		</g>
	</g>
	<g>
		<g>
			<circle class="st3" cx="357.8" cy="184" r="2.1"/>
		</g>
	</g>
	<g>
		<g>
			<circle class="st14" cx="353.5" cy="174.3" r="2.1"/>
		</g>
	</g>
	<g>
		<g>
			<circle class="st14" cx="356.5" cy="152.3" r="2.1"/>
		</g>
	</g>
	<g>
		<g>
			<path class="st14" d="M354.1,206.5c-0.3,0-0.5-0.2-0.5-0.5c0-2.4,0.7-3.7,1.4-4.9c0.6-1.1,1.2-2.2,1.2-4.4s-0.6-3.3-1.2-4.4
				c-0.7-1.2-1.4-2.4-1.4-4.9c0-2.4,0.7-3.7,1.4-4.9c0.6-1.1,1.2-2.2,1.2-4.4c0-2.2-0.6-3.3-1.2-4.4c-0.7-1.2-1.4-2.4-1.4-4.9
				c0-2.4,0.7-3.7,1.4-4.9c0.6-1.1,1.2-2.2,1.2-4.4c0-2.2-0.6-3.3-1.2-4.4c-0.7-1.2-1.4-2.4-1.4-4.9s0.7-3.7,1.4-4.9
				c0.6-1.1,1.2-2.2,1.2-4.4c0-0.3,0.2-0.5,0.5-0.5s0.5,0.2,0.5,0.5c0,2.4-0.7,3.7-1.4,4.9c-0.6,1.1-1.2,2.2-1.2,4.4
				c0,2.2,0.6,3.3,1.2,4.4c0.7,1.2,1.4,2.4,1.4,4.9c0,2.4-0.7,3.7-1.4,4.9c-0.6,1.1-1.2,2.2-1.2,4.4c0,2.2,0.6,3.3,1.2,4.4
				c0.7,1.2,1.4,2.4,1.4,4.9c0,2.4-0.7,3.7-1.4,4.9c-0.6,1.1-1.2,2.2-1.2,4.4c0,2.2,0.6,3.3,1.2,4.4c0.7,1.2,1.4,2.4,1.4,4.9
				s-0.7,3.7-1.4,4.9c-0.6,1.1-1.2,2.2-1.2,4.4C354.5,206.3,354.3,206.5,354.1,206.5z"/>
		</g>
	</g>
</g>
<g>
	<g>
		<path class="st14" d="M214.8,183.1H213c-2.5,0-4.5-2-4.5-4.5V177h0.9v1.5c0,2,1.6,3.6,3.6,3.6h1.7V183.1z"/>
	</g>
</g>
<g>
	<g>
		<circle class="st14" cx="216.6" cy="152.5" r="1.8"/>
	</g>
</g>
<g>
	<g>
		<circle class="st0" cx="218.4" cy="155.5" r="1.8"/>
	</g>
</g>
<g>
	<g>
		<circle class="st14" cx="215.9" cy="163.6" r="1.8"/>
	</g>
</g>
<g>
	<g>
		<circle class="st14" cx="212.9" cy="183.7" r="1.8"/>
	</g>
</g>
<g>
	<g>
		<circle class="st14" cx="213.7" cy="174.3" r="1.6"/>
	</g>
</g>
<g>
	<g>
		<circle class="st14" cx="215.3" cy="149.9" r="1.1"/>
	</g>
</g>
<g>
	<g>
		<circle class="st0" cx="214.8" cy="177.8" r="2.4"/>
	</g>
</g>
<g>
	<g>
		<circle class="st14" cx="209" cy="177" r="1.1"/>
	</g>
</g>
<g>
	<g>
		<circle class="st14" cx="200.1" cy="185.4" r="1.1"/>
	</g>
</g>
<g>
	<g>
		<circle class="st14" cx="209" cy="180.4" r="1.1"/>
	</g>
</g>
<g>
	<g>
		<circle class="st14" cx="215.3" cy="181.3" r="1.8"/>
	</g>
</g>
<g>
	<g>
		<circle class="st14" cx="212.7" cy="165.4" r="1.8"/>
	</g>
</g>
<g>
	<g>
		<circle class="st14" cx="211.9" cy="170.1" r="1.8"/>
	</g>
</g>
<g>
	<g>
		<circle class="st14" cx="215.9" cy="187" r="1.8"/>
	</g>
</g>
<g>
	<g>
		<circle class="st0" cx="216.6" cy="174" r="2.4"/>
	</g>
</g>
<g>
	<g>
		<circle class="st0" cx="219" cy="158.9" r="2.4"/>
	</g>
</g>
<g>
	<g>
		<circle class="st14" cx="191.8" cy="192.8" r="1.8"/>
	</g>
</g>
<g>
	<g>
		<circle class="st14" cx="211.6" cy="162" r="1.8"/>
	</g>
</g>
<g>
	<g>
		<circle class="st0" cx="194.6" cy="182.6" r="2.4"/>
	</g>
</g>
<g>
	<g>
		<circle class="st14" cx="190.1" cy="188.8" r="2.4"/>
	</g>
</g>
<g>
	<g>
		<circle class="st14" cx="202.5" cy="181.3" r="2.4"/>
	</g>
</g>
<g>
	<g>
		<circle class="st14" cx="198.9" cy="180.9" r="2.4"/>
	</g>
</g>
<g>
	<g>
		<circle class="st14" cx="210.3" cy="165.5" r="2.4"/>
	</g>
</g>
<g>
	<g>
		<g>
			<path class="st14" d="M191.4,206h-0.9v-15.4c0-3.9,3.2-7.1,7.1-7.1c3.4,0,6.2-2.8,6.2-6.2v-5.8h0.9v5.8c0,3.9-3.2,7.1-7.1,7.1
				c-3.4,0-6.2,2.8-6.2,6.2V206z"/>
		</g>
	</g>
</g>
<g>
	<g>
		<g>
			<rect x="198.9" y="70" class="st6" width="2.3" height="135.9"/>
		</g>
	</g>
	<g>
		<g>
			<rect x="198.9" y="79.3" class="st5" width="2.3" height="0.6"/>
		</g>
	</g>
	<g>
		<g>
			<rect x="198.9" y="101.3" class="st5" width="2.3" height="0.6"/>
		</g>
	</g>
	<g>
		<g>
			<rect x="198.9" y="123.3" class="st5" width="2.3" height="0.6"/>
		</g>
	</g>
	<g>
		<g>
			<rect x="198.9" y="147.8" class="st5" width="2.3" height="0.6"/>
		</g>
	</g>
	<g>
		<g>
			<rect x="198.9" y="169.8" class="st5" width="2.3" height="0.6"/>
		</g>
	</g>
	<g>
		<g>
			<rect x="198.9" y="191.7" class="st5" width="2.3" height="0.6"/>
		</g>
	</g>
	<g>
		<g>
			<rect x="198.9" y="71.3" class="st7" width="2.3" height="2.8"/>
		</g>
	</g>
</g>
<g>
	<g>
		<circle class="st14" cx="208.4" cy="190.5" r="3.5"/>
	</g>
</g>
<g>
	<g>
		<circle class="st14" cx="206.4" cy="195.5" r="3.5"/>
	</g>
</g>
<g>
	<g>
		<circle class="st14" cx="214" cy="195.6" r="5.1"/>
	</g>
</g>
<g>
	<g>
		<path class="st14" d="M218.8,207c-0.4-2.1-2.2-3.7-4.4-3.7c-0.5,0-1,0.1-1.5,0.3c-0.1-3.3-2.8-5.9-6.1-5.9c-3.4,0-6.2,2.8-6.2,6.2
			c0,0.3,0,0.5,0.1,0.7c-0.5-0.3-1.1-0.5-1.7-0.5c-1.8,0-3.2,1.3-3.6,2.9H218.8z"/>
	</g>
</g>
<g>
	<g>
		<circle class="st3" cx="214.8" cy="171.1" r="1.8"/>
	</g>
</g>
<g>
	<g>
		<circle class="st3" cx="195.2" cy="185.1" r="2.4"/>
	</g>
</g>
<g>
	<g>
		<circle class="st3" cx="216.1" cy="158" r="1.8"/>
	</g>
</g>
<g>
	<g>
		<g>
			<path class="st2" d="M300.1,195.8h-94.7c-2.9,0-5.2,2.3-5.2,5.2v14.3h105.2V201C305.3,198.1,303,195.8,300.1,195.8z"/>
		</g>
	</g>
	<g>
		<g>
			<path class="st3" d="M205.3,206.2c0-3.3,2.7-5.9,5.9-5.9h83.3c2.5,0,4.5-2,4.5-4.5h-93.6c-2.5,0-4.6,1.8-5.1,4.1l-0.1,11.5
				C203,211.4,205.3,209.1,205.3,206.2z"/>
		</g>
	</g>
</g>
<g>
	<g>
		<g>
			<path class="st2" d="M70.3,195.8H29.5c-2.9,0-5.2,2.3-5.2,5.2v14.3h51.3V201C75.5,198.1,73.2,195.8,70.3,195.8z"/>
		</g>
	</g>
	<g>
		<g>
			<path class="st3" d="M29.4,206.2c0-3.3,2.7-5.9,5.9-5.9h29.4c2.5,0,4.5-2,4.5-4.5H29.5c-2.5,0-4.6,1.8-5.1,4.1l-0.1,11.5
				C27.1,211.4,29.4,209.1,29.4,206.2z"/>
		</g>
	</g>
</g>
<g>
	<g>
		<g>
			<path class="st2" d="M400.5,195.8h-42.9c-2.9,0-5.2,2.3-5.2,5.2v14.3h48.1V195.8z"/>
		</g>
	</g>
	<g>
		<g>
			<path class="st3" d="M356.7,195.9c-0.3,0-0.5,0.1-0.8,0.2c0,0-0.1,0-0.1,0c-0.2,0.1-0.5,0.2-0.7,0.3c0,0-0.1,0-0.1,0
				c-0.2,0.1-0.5,0.3-0.7,0.5c0,0,0,0,0,0c-0.2,0.2-0.4,0.4-0.6,0.6c0,0,0,0-0.1,0.1c-0.2,0.2-0.3,0.4-0.5,0.6c0,0,0,0.1,0,0.1
				c-0.1,0.2-0.3,0.5-0.4,0.7c0,0,0,0,0,0c-0.1,0.3-0.2,0.6-0.3,0.8l-0.1,11.5c2.8,0,5.1-2.3,5.1-5.1c0-3.3,2.7-5.9,5.9-5.9h37v-4.5
				h-42.9c-0.3,0-0.6,0-0.8,0.1C356.8,195.9,356.7,195.9,356.7,195.9z"/>
		</g>
	</g>
</g>
<g>
	<g>
		<polygon class="st27" points="342.9,212.4 340.9,208.6 322.4,208.6 320.4,212.4 		"/>
	</g>
</g>
<g>
	<g>
		<g>
			<g>
				<path class="st0" d="M116.9,215.3v-2.1h-3.7c1-1.4,1.7-3.1,1.7-4.9c0-4.6-3.7-8.3-8.3-8.3c-4.6,0-8.3,3.7-8.3,8.3
					c0,0.5,0.1,1.1,0.2,1.6c-0.7-0.3-1.4-0.4-2.2-0.4c-3.2,0-5.9,2.6-5.9,5.9c0,0,0,0,0,0H116.9z"/>
			</g>
		</g>
	</g>
	<g>
		<g>
			<path class="st2" d="M134.6,215.3c0.1-0.3,0.1-0.6,0.1-1c0-2.7-2.2-4.8-4.8-4.8c-1.1,0-2.2,0.4-3,1c0-0.2,0-0.3,0-0.5
				c0-2.7-2.2-4.8-4.8-4.8c-0.9,0-1.6,0.2-2.3,0.6c-0.3-2.4-2.3-4.2-4.8-4.2c-2.7,0-4.8,2.2-4.8,4.8c0,0.4,0.1,0.8,0.1,1.1
				c-0.3,0-0.5-0.1-0.8-0.1c-3.3,0-6,2.7-6,6c0,0.6,0.1,1.2,0.2,1.7H134.6z"/>
		</g>
	</g>
</g>
<g>
	<g>
		<rect x="31.2" y="68.8" class="st16" width="369" height="2.5"/>
	</g>
</g>
<g>
	<g>
		<path class="st0" d="M145.6,215.3c-0.7-1.8-2.5-3.2-4.6-3.2c-2.1,0-3.9,1.3-4.6,3.2H145.6z"/>
	</g>
</g>
<g>
	<g>
		<path class="st2" d="M143.4,215.4h6.6c1.2-2.8,1.9-6.1,1.9-6.1s-0.7,0.6-1.7,1.5c0.2-2.2,0.1-4,0.1-4s-1.2,1.6-2.3,3.6
			c-0.2-3.3-1.4-6.8-1.4-6.8s-1.6,4.5-1.7,8c0,0.2,0,0.3,0,0.4c-1.9-2.5-4.6-4.6-4.6-4.6s1,4.7,2.9,7.7
			C143.3,215.2,143.3,215.3,143.4,215.4z"/>
	</g>
</g>
<g>
	<g>
		<path class="st0" d="M156.2,215.3c-0.6-1.5-2.1-2.6-3.8-2.6c-1.7,0-3.2,1.1-3.8,2.6H156.2z"/>
	</g>
</g>
<g id="XMLID_1585_">
	<g id="XMLID_1613_">
		<g>
			<rect x="58.7" y="140.2" class="st16" width="69.8" height="15.8"/>
		</g>
	</g>
	<g id="XMLID_1610_">
		<g id="XMLID_1612_">
			<g>
				<rect x="58.5" y="140.2" class="st16" width="8" height="15.8"/>
			</g>
		</g>
		<g id="XMLID_1611_">
			<g>
				<path class="st9" d="M66.4,156.1c0,2.1-1.7,3.9-3.9,3.9s-3.9-1.7-3.9-3.9H66.4z"/>
			</g>
		</g>
	</g>
	<g id="XMLID_1607_">
		<g id="XMLID_1609_">
			<g>
				<rect x="66.4" y="140.2" class="st28" width="7.8" height="15.8"/>
			</g>
		</g>
		<g id="XMLID_1608_">
			<g>
				<path class="st10" d="M74.2,156.1c0,2.1-1.7,3.9-3.9,3.9c-2.1,0-3.9-1.7-3.9-3.9H74.2z"/>
			</g>
		</g>
	</g>
	<g id="XMLID_1604_">
		<g id="XMLID_1606_">
			<g>
				<rect x="74.2" y="140.2" class="st16" width="7.8" height="15.8"/>
			</g>
		</g>
		<g id="XMLID_1605_">
			<g>
				<path class="st9" d="M81.9,156.1c0,2.1-1.7,3.9-3.9,3.9s-3.9-1.7-3.9-3.9H81.9z"/>
			</g>
		</g>
	</g>
	<g id="XMLID_1601_">
		<g id="XMLID_1603_">
			<g>
				<rect x="81.9" y="140.2" class="st28" width="7.8" height="15.8"/>
			</g>
		</g>
		<g id="XMLID_1602_">
			<g>
				<path class="st10" d="M89.7,156.1c0,2.1-1.7,3.9-3.9,3.9c-2.1,0-3.9-1.7-3.9-3.9H89.7z"/>
			</g>
		</g>
	</g>
	<g id="XMLID_1598_">
		<g id="XMLID_1600_">
			<g>
				<rect x="89.7" y="140.2" class="st16" width="7.8" height="15.8"/>
			</g>
		</g>
		<g id="XMLID_1599_">
			<g>
				<path class="st9" d="M97.5,156.1c0,2.1-1.7,3.9-3.9,3.9s-3.9-1.7-3.9-3.9H97.5z"/>
			</g>
		</g>
	</g>
	<g id="XMLID_1595_">
		<g id="XMLID_1597_">
			<g>
				<rect x="97.5" y="140.2" class="st28" width="7.8" height="15.8"/>
			</g>
		</g>
		<g id="XMLID_1596_">
			<g>
				<path class="st10" d="M105.2,156.1c0,2.1-1.7,3.9-3.9,3.9c-2.1,0-3.9-1.7-3.9-3.9H105.2z"/>
			</g>
		</g>
	</g>
	<g id="XMLID_1592_">
		<g id="XMLID_1594_">
			<g>
				<rect x="105.2" y="140.2" class="st16" width="7.8" height="15.8"/>
			</g>
		</g>
		<g id="XMLID_1593_">
			<g>
				<path class="st9" d="M113,156.1c0,2.1-1.7,3.9-3.9,3.9s-3.9-1.7-3.9-3.9H113z"/>
			</g>
		</g>
	</g>
	<g id="XMLID_1589_">
		<g id="XMLID_1591_">
			<g>
				<rect x="113" y="140.2" class="st28" width="7.8" height="15.8"/>
			</g>
		</g>
		<g id="XMLID_1590_">
			<g>
				<path class="st10" d="M120.7,156.1c0,2.1-1.7,3.9-3.9,3.9c-2.1,0-3.9-1.7-3.9-3.9H120.7z"/>
			</g>
		</g>
	</g>
	<g id="XMLID_40_">
		<g id="XMLID_70_">
			<g>
				<rect x="128.7" y="140.2" class="st28" width="7.8" height="15.8"/>
			</g>
		</g>
		<g id="XMLID_69_">
			<g>
				<path class="st10" d="M136.4,156.1c0,2.1-1.7,3.9-3.9,3.9c-2.1,0-3.9-1.7-3.9-3.9H136.4z"/>
			</g>
		</g>
	</g>
	<g id="XMLID_1586_">
		<g id="XMLID_1588_">
			<g>
				<rect x="120.7" y="140.2" class="st16" width="8" height="15.8"/>
			</g>
		</g>
		<g id="XMLID_1587_">
			<g>
				<path class="st9" d="M128.5,156.1c0,2.1-1.7,3.9-3.9,3.9s-3.9-1.7-3.9-3.9H128.5z"/>
			</g>
		</g>
	</g>
</g>
<g id="XMLID_1481_">
	<g id="XMLID_1492_">
		<g>
			<polygon class="st29" points="149.9,165.7 150.6,160.8 143,160.8 143.7,165.7 			"/>
		</g>
	</g>
	<g id="XMLID_1491_">
		<g>
			<polygon class="st16" points="149.9,165.7 149.6,167.1 144,167.1 143.7,165.7 			"/>
		</g>
	</g>
	<g id="XMLID_1485_">
		<g>
			<path class="st1" d="M146.8,168.8c-0.2,0-0.4-0.2-0.4-0.4v-7.6c0-0.2,0.2-0.4,0.4-0.4s0.4,0.2,0.4,0.4v7.6
				C147.2,168.6,147,168.8,146.8,168.8z"/>
		</g>
	</g>
	<g id="XMLID_1484_">
		<g>
			<path class="st1" d="M150,167.7h-6.4l-1.1-7.3h8.6L150,167.7z M144.4,166.8h4.9l0.8-5.6h-6.6L144.4,166.8z"/>
		</g>
	</g>
	<g id="XMLID_1483_">
		<g>
			<path class="st1" d="M146.6,157.9l-4.6,2.2c-0.5,0.2-0.3,1,0.2,1h9.1c0.6,0,0.7-0.8,0.2-1l-4.6-2.2
				C146.9,157.9,146.7,157.9,146.6,157.9z"/>
		</g>
	</g>
	<g id="XMLID_1482_">
		<g>
			<rect x="145.2" y="165.3" class="st1" width="3.1" height="1.9"/>
		</g>
	</g>
</g>
<g>
	<g>
		<polygon class="st16" points="400,90.4 377.3,90.4 377.3,82.8 400,82.8 400,80 374.6,80 374.6,93.2 400,93.2 		"/>
	</g>
</g>
</svg>
