<svg id="rechts" xmlns="http://www.w3.org/2000/svg" viewBox="0 0 400 232"><style>.st0{fill:#b3cf01}.st1{fill:#8fba00}.st2{fill:#55241a}.st3{fill:#f6861e}.st4{fill:#f8a243}.st5{fill:#ffc92f}.st6{fill:#ffba2f}.st7{fill:#f17d0d}.st8{fill:#FFF}.st9{fill:#84d0f0}.st10{fill:#5dc1eb}.st11{fill:#00aae6}.st12{fill:#0095e6}.st13{fill:#f8b000}.st14{fill:#9ec300}.st15{fill:#6a3f36}.st16{fill:#c0ce06}.st17{fill:#fac133}.st18{fill:#71483f}.st19{fill:#96b432}.st20{fill:#d3f0f0}.st21{fill:#e7f1f5}.st22{fill:#ffd100}.st23{display:none}.st24{display:inline;fill:#FFF}.st25{fill:#b0dde2}.st26{display:inline;fill:#f81c13}.st27{display:inline;fill:#ca1c13}.st28{display:inline;fill:#0098e6}.st29{display:inline;fill:#9ec300}.st30{display:inline;fill:#85a600}.st31{display:inline;fill:#55241a}.st32{display:inline;fill:#b3cf01}.st33{fill:#85a600}.st34{fill:#689800}.st35{display:none;fill:#f81c13}</style><circle class="st0" cx="360.5" cy="187.1" r="2.6"/><path class="st1" d="M322.5 201.6v6.4H391v-.2c0-11.9-10.1-21.6-22.5-21.6-3 0-5.8.6-8.3 1.6.1-.7.1-1.3.1-2 0-11.9-10.1-21.6-22.5-21.6s-22.5 9.7-22.5 21.6c0 6.2 2.7 11.8 7.2 15.8z" id="XMLID_185_"/><g id="XMLID_177_"><g id="XMLID_181_"><path class="st2" d="M334.1 160.7h4v37.2h-4z" id="XMLID_184_"/></g><path class="st3" d="M334.9 161.8c16.6 0 30-13.5 30-30V75.3c0-16.6-13.5-30-30-30-16.6 0-30 13.5-30 30v56.5c0 16.6 13.5 30 30 30z" id="XMLID_180_"/><path class="st4" d="M334.9 45.2c13.9 0 25.6 9.5 29 22.3-2.6-6.9-9.3-11.9-17.1-11.9-10.1 0-18.2 8.1-18.3 18.2v31.8c0 10.1-8.2 18.3-18.3 18.3-1.7 0-3.4-.3-5-.7-.3-1.8-.5-3.6-.5-5.5V75.3c.2-16.6 13.7-30.1 30.2-30.1z" id="XMLID_178_"/></g><path class="st5" d="M349.5 142l-3.7-3.3L216.2 26.4 83.6 138.7V208h262.1v-57.7h2.2c1.7 0 3.1-1.4 3.1-3.1v-1.3c.1-1.4-.5-3-1.5-3.9z"/><path class="st6" d="M221.9 117.2l33.9 30.5h6.4v3.7h-4v3.7h-4V208l-29.1.1-18.5-84.2-2.3-6.7z"/><path class="st7" d="M216.2 26.4l-85.4 72.3v18.5H321z"/><path class="st8" d="M209.4 120.5H325c.9 0 1.7-.7 1.7-1.7 0-.9-.7-1.7-1.7-1.7H209.4c-.9 0-1.7.7-1.7 1.7s.7 1.7 1.7 1.7z"/><path class="st8" d="M231.6 119.8h2.1v2.9h-2.1zM259 119.8h2.1v2.9H259zM286.5 119.8h2.1v2.9h-2.1zM314 119.8h2.1v2.9H314z"/><path class="st2" d="M312.3 171.2h19.8V208h-19.8z"/><path class="st8" d="M331 208v-35.8h-17.7V208h-2v-37.8H333V208z"/><path class="st9" d="M313.3 172.2h17.8V208h-17.8z"/><circle class="st2" cx="328.6" cy="184.7" r=".8"/><circle class="st2" cx="328.6" cy="193.4" r=".8"/><path class="st10" d="M316.7 172.2h.7V208h-.7zM321.6 172.2h.7V208h-.7zM326.3 172.2h.7V208h-.7z"/><path class="st3" d="M333 170.2h-21.9s2.6-4.2 10.9-4.2c8.4 0 11 4.2 11 4.2z" id="XMLID_176_"/><path class="st11" d="M242.4 208v-51.5c0-16.4 13.3-23 29.7-23s29.7 6.6 29.7 23V208h-59.4z"/><path class="st12" d="M273.1 133.9h-1.6V208h1.6v-74.1zm-10.7 1.1h-1.6v73h1.6v-73zm-12.5 3.9V208h1.6v-69.1h-1.6zm44.5 1.3h-1.6V208h1.6v-67.8zm-10.5-5.2h-1.6v73h1.6v-73z"/><path class="st8" d="M272.2 132.3c19.7 0 30.9 8.8 30.9 24.2V208h-2.4v-51.5c0-19.7-20-21.8-28.5-21.8-8.6 0-28.5 2.1-28.5 21.8V208h.2-2.6v-51.5c-.1-15.4 11.2-24.2 30.9-24.2z"/><g id="XMLID_172_"><path class="st13" d="M321.7 150.2h-5.4c-.5 0-.9-.4-.9-.9v-1.5c0-.5.4-.9.9-.9h5.4c.5 0 .9.4.9.9v1.5c0 .6-.4.9-.9.9z" id="XMLID_175_"/><path class="st13" d="M332.3 161.8h5.4c.5 0 .9-.4.9-.9v-1.5c0-.5-.4-.9-.9-.9h-5.4c-.5 0-.9.4-.9.9v1.5c0 .5.4.9.9.9z" id="XMLID_174_"/><path class="st13" d="M325.5 145.4h-5.4c-.5 0-.9-.4-.9-.9V143c0-.5.4-.9.9-.9h5.4c.5 0 .9.4.9.9v1.5c0 .5-.4.9-.9.9z" id="XMLID_173_"/></g><g id="XMLID_170_"><path class="st5" d="M139.2 52.4h12.4v23.5h-12.4z" id="XMLID_171_"/><path class="st3" d="M152.7 52.7H138c-.8 0-1.5-.7-1.5-1.5s.7-1.5 1.5-1.5h14.7c.8 0 1.5.7 1.5 1.5s-.7 1.5-1.5 1.5z"/></g><path class="st5" d="M51.6 136.4h185.5V208H51.6z" id="XMLID_169_"/><path class="st13" d="M51.6 189.7h185.5v3.6H51.6zM51.6 166.3h185.5v3.6H51.6zM51.6 155.2h185.5v3.6H51.6z"/><path class="st2" d="M370 192h4.5v15.9H370z"/><path class="st0" d="M358.1 189.8l12.4-44.5c.5-1.7 3-1.7 3.4 0l12.4 44.5c.4 1.5-.7 3-2.3 3h-23.7c-1.5 0-2.6-1.5-2.2-3z"/><path class="st14" d="M374.8 148.1c-1.2 0-2.1 1-2 2.2l3.1 28.3c.5 4.8-3.3 9.1-8.1 9.1h-9.1l-.6 2.1c-.4 1.5.7 3 2.3 3h23.7c1.6 0 2.7-1.5 2.3-3l-11.6-41.7z"/><g id="XMLID_159_"><g id="XMLID_167_"><path class="st2" d="M391.2 223.7l-1.6-5.8c-.3-1-1.2-1.7-2.2-1.7h-2c-1 0-1.9.7-2.2 1.7l-1.6 5.8h-2.4l1.7-6.4c.5-2 2.3-3.4 4.4-3.4h2c2.1 0 3.9 1.4 4.4 3.4l1.7 6.4h-2.2z" id="XMLID_168_"/></g><g id="XMLID_163_"><g id="XMLID_165_"><path class="st2" d="M350.4 215.7h-10c-2.6 0-4.8-1.8-5.4-4.3l-2.4-10.6c-.1-.6.2-1.2.9-1.4.6-.1 1.2.2 1.4.9l2.4 10.6c.3 1.5 1.7 2.5 3.2 2.5h10c.6 0 1.1.5 1.1 1.1 0 .7-.5 1.2-1.2 1.2z" id="XMLID_166_"/></g><path class="st2" d="M337.8 223.3l1.6-5.8c.3-1 1.2-1.7 2.2-1.7h2c1 0 1.9.7 2.2 1.7l1.6 5.8h2.4l-1.7-6.4c-.5-2-2.3-3.4-4.4-3.4h-2c-2.1 0-3.9 1.4-4.4 3.4l-1.7 6.4h2.2z" id="XMLID_164_"/></g><path class="st15" d="M360.9 223.4l15.1-15.9-1.5-1.4-16.5 17.3z"/><path class="st2" d="M371.6 223.4l-16.5-17.3-1.5 1.4 15.1 15.9z"/><g id="XMLID_161_"><path class="st2" d="M379.3 215.7h10c2.6 0 4.8-1.8 5.4-4.3l2.4-10.6c.1-.6-.2-1.2-.9-1.4-.6-.1-1.2.2-1.4.9l-2.4 10.6c-.3 1.5-1.7 2.5-3.2 2.5h-10c-.6 0-1.1.5-1.1 1.1 0 .7.5 1.2 1.2 1.2z" id="XMLID_162_"/></g><path class="st11" d="M352.4 208h25c.7 0 1.3-.6 1.3-1.3 0-.7-.6-1.3-1.3-1.3h-25c-.7 0-1.3.6-1.3 1.3 0 .7.6 1.3 1.3 1.3z" id="XMLID_160_"/></g><path class="st14" d="M5.9 208h63.4v-4.2c0-1.7-1.4-3.1-3.1-3.1H9c-1.7 0-3.1 1.4-3.1 3.1v4.2z" id="XMLID_83_"/><path class="st16" d="M5.9 203.8v3h1c1 0 1.9-.8 1.9-1.9s.8-1.9 1.9-1.9h51.8c1 0 1.9-.8 1.9-1.9v-.5H9c-1.7.1-3.1 1.5-3.1 3.2z"/><g id="XMLID_69_"><g id="XMLID_74_"><path class="st17" d="M320.9 211.3c.3 0 .6-.3.6-.6v-3c0-.3-.3-.6-.6-.6s-.6.3-.6.6v3c0 .4.3.6.6.6z" id="XMLID_80_"/><path class="st17" d="M322.5 211.3c.3 0 .6-.3.6-.6v-3c0-.3-.3-.6-.6-.6s-.6.3-.6.6v3c.1.4.3.6.6.6z" id="XMLID_76_"/><path class="st3" d="M320.2 201.3c2.2-1.1 7.9.5 7.9.5s-.3 6-3.8 7.5c-2.3 1-5 .3-6.1-2-1.1-2.1-.3-4.8 2-6z" id="XMLID_75_"/></g><path class="st3" d="M319 198.4c-.7 0-1.3.6-1.3 1.3v5.6l2.7-2.5v-3.2c0-.6-.6-1.2-1.4-1.2z" id="XMLID_73_"/><path class="st17" d="M317.7 199.7l-1.3 1.2h1.3z" id="XMLID_72_"/><path class="st3" d="M326.9 200.1v2.3l-4.8-1.2 4.6-1.2c.1 0 .2.1.2.1z" id="XMLID_71_"/><path class="st13" d="M322.9 206.8c.5 0 .9-.1 1.4-.2 1.6-.5 2.2-2.4 2.4-3.7-.9-.2-2.3-.4-3.5-.4-.9 0-1.3.1-1.5.2-1.4.6-1.9 1.9-1.2 3 .4.7 1.3 1.1 2.4 1.1z" id="XMLID_70_"/></g><path class="st13" d="M91.8 193.5h20.9v1H91.8z"/><path class="st3" d="M103.1 155.2H82s2.5-3.8 10.6-3.8 10.5 3.8 10.5 3.8z" id="XMLID_68_"/><path class="st13" d="M85.8 152.6l.9 2.7h3.9l-.8-3.7c-1.7.2-3 .5-4 1zm9.4-1.1l-.8 3.7h3.7l1-2.8c-1.1-.3-2.4-.7-3.9-.9z" id="XMLID_65_"/><path class="st2" d="M83.7 156.1h18v36.6h-18z"/><path class="st18" d="M93.3 169.4v-.7h8.3v-8.4l-17.9 18v14.3H91l10.4-10.4H84.1v-.7h17.3v.7l.2-.2v-12.6z"/><path class="st19" d="M97.9 186.1c0 1.5-.7 2.8-.7 2.8s-.7-1.2-.7-2.8c0-1.5.7-2.8.7-2.8s.7 1.3.7 2.8z"/><path class="st19" d="M96.8 187.2c.5 1.1.4 2.2.4 2.2s-.9-.6-1.5-1.7-.4-2.2-.4-2.2 1 .6 1.5 1.7z"/><path class="st19" d="M97.5 187.2c-.5 1.1-.4 2.2-.4 2.2s.9-.6 1.5-1.7.4-2.2.4-2.2-.9.6-1.5 1.7z"/><path class="st11" d="M97.2 191.6c-.8 0-1.5-.7-1.5-1.5v-1.6h3v1.6c0 .8-.7 1.5-1.5 1.5z"/><path class="st8" d="M82.2 155.2v38.3h20.9v-38.3H82.2zm19 36.4H84.1v-34.5h17.1v34.5z"/><path class="st8" d="M83.1 167h19.1v2H83.1zM83.1 179.8h19.1v2H83.1z"/><path class="st8" d="M91.7 155.8h2v36.8h-2z"/><path class="st11" d="M103.1 155.2h10.3v38.3h-10.3z"/><path class="st13" d="M73.2 193.5h20.9v1H73.2z"/><path class="st11" d="M71.9 155.2h10.3v38.3H71.9z"/><path class="st3" d="M82.2 193.5h20.9v1H82.2z"/><path class="st13" d="M102.6 195.6H82.7c-.3 0-.5-.2-.5-.5v-.5h20.9v.5c0 .3-.2.5-.5.5z"/><path class="st3" d="M208.3 155.2h-21.1s2.5-3.8 10.6-3.8c8 0 10.5 3.8 10.5 3.8z" id="XMLID_64_"/><path class="st13" d="M190.9 152.6l.9 2.7h3.9l-.8-3.7c-1.6.2-2.9.5-4 1zm9.4-1.1l-.8 3.7h3.7l1-2.8c-1.1-.3-2.3-.7-3.9-.9z" id="XMLID_55_"/><path class="st2" d="M188.8 156.1h18v36.6h-18z"/><path class="st18" d="M198.4 169.4v-.7h8.4v-8.4l-18 18v14.3h7.3l10.5-10.4h-17.4v-.7h17.4v.7l.2-.2v-12.6z"/><path class="st8" d="M187.3 155.2v38.3h20.9v-38.3h-20.9zm19 36.4h-17.1v-34.5h17.1v34.5z"/><path class="st8" d="M188.3 167h19.1v2h-19.1zM188.3 179.8h19.1v2h-19.1z"/><path class="st8" d="M196.8 155.8h2v36.8h-2z"/><path class="st11" d="M208.3 155.2h10.3v38.3h-10.3z"/><path class="st13" d="M196.9 193.5h20.9v1h-20.9z"/><path class="st11" d="M177.1 155.2h10.3v38.3h-10.3z"/><path class="st13" d="M178.3 193.5h20.9v1h-20.9z"/><g><path class="st3" d="M187.3 193.5h20.9v1h-20.9z"/></g><g><path class="st13" d="M207.7 195.6h-19.9c-.3 0-.5-.2-.5-.5v-.5h20.9v.5c.1.3-.2.5-.5.5z"/></g><g><path class="st3" d="M52.6 135.5H236l-84.4-71.9h-12.4z"/></g><g><path class="st8" d="M46.6 135.5H243v3.7H46.6z"/></g><g><path class="st8" d="M49.6 139.2H240v3.7H49.6z"/></g><g><path class="st20" d="M49.6 139.2H240v.7H49.6z"/></g><g><path class="st11" d="M133.9 157.2h20.7v46.7h-20.7z"/></g><g><path class="st8" d="M156.7 205.9h-23.3v-50.7h23.3v50.7zm-21.4-2h19.3v-46.7h-19.3v46.7z"/></g><g id="XMLID_54_"><path class="st21" d="M130.8 203.6h28.7v5h-28.7z"/></g><g><path class="st2" d="M137.5 159.2h15v6h-15z"/></g><g><path class="st9" d="M150.8 201.7h-11.4v-.4c0-1.1-.9-2.1-2.1-2.1h-.4v-26.6h.4c1.1 0 2.1-.9 2.1-2.1v-.4h11.4v.4c0 1.1.9 2.1 2.1 2.1h.4v26.6h-.4c-1.1 0-2.1.9-2.1 2.1v.4zm-10.6-.8h9.9c.2-1.3 1.2-2.3 2.5-2.5v-25c-1.3-.2-2.3-1.2-2.5-2.5h-9.9c-.2 1.3-1.2 2.3-2.5 2.5v25c1.3.2 2.3 1.2 2.5 2.5z"/></g><g><circle class="st2" cx="150.8" cy="186.6" r=".9"/></g><g><path class="st8" d="M133.9 166.7h22.2v2h-22.2z"/></g><g><path class="st18" d="M152.5 165.1v-4.9h-5.8l-4.9 4.9z"/></g><g><path class="st3" d="M156.7 155.2h-23.3s2.7-4.2 11.6-4.2 11.7 4.2 11.7 4.2z" id="XMLID_53_"/><path class="st13" d="M137.5 152.2l1 2.9h4.3l-.9-4c-1.8.3-3.2.7-4.4 1.1zm10.4-1.1l-.9 4.1h4.1l1.1-3.1c-1.2-.4-2.6-.8-4.3-1z" id="XMLID_50_"/></g><g><path class="st13" d="M52.6 142.9H237v2H52.6z"/></g><g><path class="st5" d="M164.5 99L145 82.9 125.7 99v47.5h38.8z"/></g><g><path class="st13" d="M125.7 102.7l19.4-15.9 19.4 16.1V99L145 82.9 125.7 99z"/></g><g><path class="st8" d="M167.8 101.3h-2.9L145 84.9l-19.7 16.4h-3.2v-3h2.1L145 81l21 17.3h1.8z"/></g><g><path class="st2" d="M137.6 103.2h15.1v28.6h-15.1z"/></g><g><path class="st18" d="M146 113.6h6.2v1.1H145l-7.4 7.4v.7h14.6v1.1h-14.6v8h15V107z"/></g><g><path class="st8" d="M154.2 133H136v-30.8h18.1l.1 30.8zm-16.2-2h14.1v-26.8H138V131z"/></g><g><path class="st8" d="M144.1 103.1h2v29.4h-2z"/></g><g><path class="st8" d="M137 111.9h16.3v2H137z"/></g><g><path class="st8" d="M137 121.1h16.3v2H137z"/></g><g><path class="st3" d="M154.2 102.1H136s2.1-3.3 9-3.3 9.2 3.3 9.2 3.3z" id="XMLID_49_"/><path class="st13" d="M139.3 99.8l.8 2.3h3.3l-.7-3.1c-1.4.1-2.5.4-3.4.8zm8.1-.9l-.7 3.2h3.2l.8-2.4c-.9-.3-2-.6-3.3-.8z" id="XMLID_46_"/></g><g><path class="st13" d="M135.5 142.5h18.8v.7h-18.8z"/><path class="st8" d="M135.5 138.3h18.8v4.2h-18.8z"/></g><g><path class="st8" d="M146.9 83h-3.6v-3.6l1.8-1.7 1.8 1.7z"/></g><g id="XMLID_40_"><path class="st22" d="M170.9 172.8l.8-5h-7.6l.7 5z" id="XMLID_45_"/><path class="st2" d="M167.9 175.9c-.2 0-.4-.2-.4-.4v-7.6c0-.2.2-.4.4-.4s.4.2.4.4v7.6c0 .2-.2.4-.4.4z" id="XMLID_44_"/><path class="st2" d="M171.1 174.7h-6.4l-1.1-7.3h8.6l-1.1 7.3zm-5.7-.8h4.9l.8-5.6h-6.6l.9 5.6z" id="XMLID_43_"/><path class="st2" d="M167.6 165l-4.6 2.2c-.5.2-.3 1 .2 1h9.1c.6 0 .7-.8.2-1l-4.6-2.2c.1-.1-.1-.1-.3 0z" id="XMLID_42_"/><path class="st2" d="M166.3 172.4h3.1v1.9h-3.1z" id="XMLID_41_"/></g><g><path class="st8" d="M222.4 33s.9-.3.9-1.9-4.9-3-4.9-6c0-2.6 1.4-3.4 3.2-3.4 1.7 0 2.8 2 2.3 2.6-.4.6-1.2-.8-2.1-.8-1.1 0-1.7.8-1.4 1.8.8 2.1 6.8 1.8 8.2 5.2s-1.8 6.7-1.8 6.7l-4.4-4.2zM209.8 33s-.9-.3-.9-1.9 4.9-3 4.9-6c0-2.6-1.4-3.4-3.2-3.4-1.7 0-2.8 2-2.3 2.6.4.6 1.2-.8 2.1-.8 1.1 0 1.7.8 1.4 1.8-.8 2.1-6.8 1.8-8.2 5.2s1.8 6.7 1.8 6.7l4.4-4.2zM217.5 27.6h-2.6l-1.1-6.2 2.3-13.7 2.2 13.8z"/><path class="st8" d="M207.7 34.2l-.5-2.3 3.8-4.8 2.4-2.1h5.5l3 3.4 2.7 2.1-.7 3.7h-16.2"/></g><g><path class="st8" d="M50.7 144.5c-.3 0-.5-.1-.7-.3s-.3-.5-.3-.7c0-.3.1-.5.3-.7.4-.4 1-.4 1.4 0 .2.2.3.4.3.7s-.1.5-.3.7-.5.3-.7.3z"/></g><g class="st23"><path class="st24" d="M85.5 149.3c-.5 0-1-.5-1-1s.5-1 1-1c.6 0 1 .5 1 1 0 .6-.5 1-1 1zM88.4 148.3c0-.5.4-1 1-1 .5 0 1 .4 1 1s-.4 1-1 1c-.5 0-1-.4-1-1zM81.5 149.3c-.5 0-1-.5-1-1 0-.6.5-1 1-1s1 .5 1 1c.1.5-.4 1-1 1 .1 0 0 0 0 0zM92.3 148.2c0-.6.4-1 .9-1.1.5 0 1 .4 1.1 1 0 .5-.4 1-.9 1h-.1c-.5 0-.9-.4-1-.9zM77.6 149.1c-.5 0-1-.5-.9-1.1 0-.6.5-1 1.1-.9.5 0 1 .5.9 1.1-.1.5-.5.9-1.1.9zM96.2 147.9c0-.6.4-1 .9-1.1.5 0 1 .4 1.1.9 0 .6-.4 1-.9 1.1h-.1c-.5 0-.9-.4-1-.9zM73.7 148.7c-.5 0-1-.5-.9-1.1 0-.6.5-1 1.1-.9.5 0 1 .5.9 1.1 0 .5-.5.9-1.1.9zM100.2 147.5c-.1-.5.3-1 .9-1.1.6-.1 1 .3 1.1.9.1.6-.3 1.1-.9 1.1h-.1c-.6 0-1-.3-1-.9zM69.7 148.3c-.6-.1-.9-.6-.9-1.1.1-.6.6-.9 1.1-.9.5.1.9.6.9 1.1-.1.5-.5.9-1.1.9.1 0 .1 0 0 0zM104 147.1c-.1-.5.3-1 .9-1.1.5-.1 1 .3 1.1.9.1.5-.3 1.1-.9 1.1h-.1c-.5 0-.9-.4-1-.9zM65.8 147.8c-.5-.1-.9-.6-.8-1.1.1-.5.6-.9 1.1-.8.5.1.9.6.8 1.1-.1.5-.5.9-1.1.8.1 0 .1 0 0 0zM107.9 146.5c-.1-.5.3-1.1.8-1.1.5-.1 1.1.3 1.1.8.1.5-.3 1.1-.8 1.1h-.2c-.4.1-.8-.3-.9-.8zM61.9 147.1c-.5-.1-.9-.6-.8-1.2.1-.5.6-.9 1.2-.8.5.1.9.6.8 1.2-.1.5-.5.8-1 .8h-.2zM111.8 145.9c-.1-.6.3-1.1.8-1.2.5-.1 1.1.3 1.2.8.1.5-.3 1.1-.8 1.2h-.2c-.5 0-.9-.3-1-.8zM58 146.3c-.5-.1-.9-.6-.8-1.2.1-.5.7-.9 1.2-.8.5.1.9.6.8 1.2-.1.5-.5.8-1 .8 0 .1-.1 0-.2 0zM115.7 145.2c-.1-.5.2-1.1.8-1.2.5-.1 1.1.2 1.2.8.1.5-.2 1.1-.8 1.2h-.2c-.5 0-.9-.3-1-.8zM54.2 145.4c-.5-.1-.9-.7-.7-1.2.1-.5.7-.9 1.2-.7.5.1.9.7.7 1.2-.1.5-.5.8-1 .8 0 0-.1 0-.2-.1zM119.5 144.4c-.1-.5.2-1.1.8-1.2.5-.1 1.1.2 1.2.8.1.5-.2 1.1-.8 1.2h-.2c-.5 0-.9-.3-1-.8z"/></g><g class="st23"><path class="st24" d="M199.5 149.3c-.5 0-1-.5-1-1s.5-1 1-1c.6 0 1 .5 1 1 0 .6-.4 1-1 1zM202.4 148.3c0-.5.4-1 1-1 .5 0 1 .4 1 1s-.4 1-1 1c-.5 0-.9-.4-1-1zM195.6 149.3c-.5 0-1-.5-1-1 0-.6.5-1 1-1s1 .5 1 1-.5 1-1 1zM206.4 148.2c0-.6.4-1 .9-1.1.5 0 1 .4 1.1 1 0 .5-.4 1-.9 1h-.1c-.6 0-1-.4-1-.9zM191.6 149.1c-.5 0-1-.5-.9-1.1 0-.6.5-1 1.1-.9.5 0 1 .5.9 1.1 0 .5-.5.9-1.1.9.1 0 0 0 0 0zM210.3 147.9c0-.6.4-1 .9-1.1.5 0 1 .4 1.1.9 0 .6-.4 1-.9 1.1h-.1c-.5 0-1-.4-1-.9zM187.7 148.7c-.5 0-1-.5-.9-1.1 0-.6.5-1 1.1-.9.5 0 1 .5.9 1.1 0 .5-.5.9-1 .9h-.1zM214.2 147.5c-.1-.5.3-1 .9-1.1.6-.1 1 .3 1.1.9.1.6-.3 1.1-.9 1.1h-.1c-.5 0-1-.3-1-.9zM183.8 148.3c-.6-.1-.9-.6-.9-1.1.1-.6.6-.9 1.1-.9.5.1.9.6.9 1.1-.1.5-.5.9-1 .9h-.1zM218.1 147.1c-.1-.5.3-1 .9-1.1.5-.1 1 .3 1.1.9.1.5-.3 1.1-.9 1.1h-.1c-.5 0-1-.4-1-.9zM179.8 147.8c-.5-.1-.9-.6-.8-1.1.1-.5.6-.9 1.1-.8.5.1.9.6.8 1.1-.1.5-.5.9-1 .9.1-.1 0-.1-.1-.1zM222 146.5c-.1-.5.3-1.1.8-1.1.5-.1 1.1.3 1.1.8.1.5-.3 1.1-.8 1.1h-.2c-.4.1-.9-.3-.9-.8zM176 147.1c-.5-.1-.9-.6-.8-1.2.1-.5.6-.9 1.2-.8.5.1.9.6.8 1.2-.1.5-.5.8-1 .8h-.2zM225.8 145.9c-.1-.6.3-1.1.8-1.2.5-.1 1.1.3 1.2.8.1.5-.3 1.1-.8 1.2h-.2c-.5 0-.9-.3-1-.8zM172.1 146.3c-.5-.1-.9-.6-.8-1.2.1-.5.7-.9 1.2-.8.5.1.9.6.8 1.2-.1.5-.5.8-1 .8-.1.1-.2 0-.2 0zM229.7 145.2c-.1-.5.2-1.1.8-1.2.5-.1 1.1.2 1.2.8.1.5-.2 1.1-.8 1.2h-.2c-.5 0-.9-.3-1-.8zM168.2 145.4c-.5-.1-.9-.7-.7-1.2.1-.5.7-.9 1.2-.7.5.1.9.7.7 1.2-.1.5-.5.8-1 .8 0 0-.1 0-.2-.1zM233.5 144.4c-.1-.5.2-1.1.8-1.2.5-.1 1.1.2 1.2.8.1.5-.2 1.1-.8 1.2h-.2c-.5 0-.9-.3-1-.8z"/></g><g class="st23"><path class="st24" d="M124.3 144.2c-.3 0-.5-.1-.7-.3s-.3-.4-.3-.7.1-.5.3-.7c.4-.4 1-.4 1.4 0 .2.2.3.4.3.7s-.1.5-.3.7c-.2.2-.5.3-.7.3z"/></g><g><path class="st2" d="M29.9 183.7h5.9v37.7h-5.9z"/><path class="st14" d="M5.2 179.3l24.3-87.1c.9-3.4 5.8-3.4 6.7 0l24.3 87.1c.8 3-1.4 5.9-4.5 5.9H9.7c-3.1 0-5.3-2.9-4.5-5.9z"/><path class="st1" d="M37.8 97.8c-2.3 0-4.1 2-3.8 4.2l6.1 55.4c1 9.5-6.4 17.7-15.9 17.7H6.4l-1.2 4.1c-.8 3 1.4 5.9 4.5 5.9h46.4c3.1 0 5.3-2.9 4.5-5.9L37.8 97.8z"/></g><g id="XMLID_31_"><path class="st0" d="M206.2 195.6c.3 0 .5 0 .8.1v-.5c0-2.2 1.8-4.1 4.1-4.1 1.8 0 3.4 1.2 3.9 2.9.7-.7 1.7-1.1 2.7-1.1.8 0 1.5.2 2.2.6.2-2 1.9-3.6 4-3.6 2.2 0 4.1 1.8 4.1 4.1 0 .2 0 .4-.1.5.4-.2.9-.3 1.4-.3 2.1 0 3.8 1.7 3.8 3.8s-1.7 3.8-3.8 3.8c-.5 0-.9-.1-1.3-.2v3.1h-19.8v-1.6c-.6.3-1.2.5-1.9.5-2.2 0-4.1-1.8-4.1-4.1 0-2 1.8-3.9 4-3.9z" id="XMLID_34_"/><path class="st19" d="M206.2 195.6c.3 0 .5 0 .8.1v-.5c0-1.5.8-2.7 1.9-3.5-.2 1-.4 1.8 0 2.7.4.8 1.3 1.4 2.2 1.6-.5.7-.5 1.7 0 2.4.4.7 1.2 1.3 1.9 1.7 1.6.9 3.5 1.4 5.3.9-.2 1.1-.5 2.2-1.1 3.1-.1.2-.3.3-.4.5h-8.7V203c-.6.3-1.2.5-1.9.5-2.2 0-4.1-1.8-4.1-4.1.1-1.9 1.9-3.8 4.1-3.8z" id="XMLID_33_"/><path class="st8" d="M234.7 201.1l-3 7.4H203l-3-7.4c-.4-1 .3-2.1 1.4-2.1h31.9c1.1 0 1.8 1.1 1.4 2.1z" id="XMLID_32_"/></g><g id="XMLID_22_"><circle class="st19" cx="255.4" cy="198.6" r="3.7" id="XMLID_30_"/><circle class="st19" cx="253.1" cy="198.6" r="3.7" id="XMLID_29_"/><circle class="st19" cx="265" cy="198.6" r="3.7" id="XMLID_28_"/><circle class="st19" cx="259.1" cy="192.6" r="3.3" id="XMLID_27_"/><circle class="st19" cx="255.4" cy="194.5" r="3.3" id="XMLID_26_"/><circle class="st19" cx="263.5" cy="193.4" r="2.7" id="XMLID_25_"/><path class="st8" d="M260.9 208.5h-3.5c-2.8 0-5.3-2-5.8-4.8l-.8-4.6h16.7l-.8 4.6c-.5 2.8-3 4.8-5.8 4.8z" id="XMLID_24_"/><circle class="st19" cx="260.8" cy="198.1" r="3.3" id="XMLID_23_"/></g><g id="XMLID_1_"><circle class="st0" cx="121.4" cy="198.7" r="3.7" id="XMLID_18_"/><circle class="st0" cx="123.7" cy="198.7" r="3.7" id="XMLID_15_"/><circle class="st0" cx="111.9" cy="198.7" r="3.7" id="XMLID_14_"/><circle class="st0" cx="117.7" cy="192.8" r="3.3" id="XMLID_13_"/><circle class="st0" cx="121.4" cy="194.7" r="3.3" id="XMLID_7_"/><circle class="st0" cx="113.3" cy="193.6" r="2.7" id="XMLID_6_"/><path class="st21" d="M116 208.5h3.5c2.8 0 5.2-2 5.7-4.8l.8-4.6h-16.6l.8 4.6c.5 2.8 3 4.8 5.8 4.8z" id="XMLID_5_"/><circle class="st0" cx="116" cy="198.2" r="3.2" id="XMLID_2_"/></g><g><path class="st25" d="M156.9 213.9l-2.1-3.8h-18.4l-2.1 3.8z"/></g><g><path class="st8" d="M241.2 48.6l-25-21.6-25.5 21.6z"/><path class="st2" d="M235.1 48.6c-.8-2.3-3-4-5.6-4-.3 0-.5 0-.8.1v-.1c0-3.3-2.7-6-6-6h-.6v-.3c0-3.3-2.7-6-6-6s-6 2.7-6 6v.3h-.6c-3.3 0-6 2.7-6 6v.1c-.2 0-.5-.1-.8-.1-2.6 0-4.8 1.7-5.6 4h38z"/><path class="st7" d="M242 51.4l-25.8-22.5-24.6 20.9-1.3-1.6 25.9-22 27.1 23.7z"/><circle class="st8" cx="216.2" cy="43.3" r="1.6"/><path class="st13" d="M187.6 50.6h56.5l-2.3-2h-51.9z"/><path class="st8" d="M216.2 37.4c-.7 0-1.3-.6-1.3-1.3v-4.7h2.5v4.7c0 .8-.5 1.3-1.2 1.3z"/></g><g class="st23"><path class="st26" d="M144.8 168.7h1.2v6h-1.2z"/><path class="st27" d="M144.8 168.7h1.2v.5h-1.2z"/><path class="st28" d="M145.2 174.2c-3.2 0-5.8 2.6-5.8 5.8s2.6 5.8 5.8 5.8 5.8-2.6 5.8-5.8-2.6-5.8-5.8-5.8zm0 8.5c-1.5 0-2.6-1.2-2.6-2.6s1.2-2.6 2.6-2.6c1.5 0 2.6 1.2 2.6 2.6s-1.2 2.6-2.6 2.6z"/><path class="st29" d="M145.2 173.2c-3.2 0-5.8 2.6-5.8 5.8s2.6 5.8 5.8 5.8 5.8-2.6 5.8-5.8-2.6-5.8-5.8-5.8zm0 8.5c-1.5 0-2.6-1.2-2.6-2.6s1.2-2.6 2.6-2.6c1.5 0 2.6 1.2 2.6 2.6s-1.2 2.6-2.6 2.6z"/><path class="st30" d="M145.2 183.5c-3 0-5.4-2.2-5.8-5.1 0 .2-.1.5-.1.7 0 3.2 2.6 5.8 5.8 5.8s5.8-2.6 5.8-5.8c0-.2 0-.5-.1-.7-.2 2.9-2.7 5.1-5.6 5.1z"/><path class="st30" d="M145.2 175.8c-1.5 0-2.6 1.2-2.6 2.6v.3c.1-1.3 1.3-2.3 2.6-2.3 1.4 0 2.5 1 2.6 2.3v-.3c0-1.4-1.2-2.6-2.6-2.6z"/><path class="st29" d="M150.3 177.8c-.4 0-.5-.2-.5-.4s.2-.4.6-.4c.4 0 .9.4.9.4s-.6.4-1 .4zM146.5 174.2c-.3.2-.6.1-.7-.1-.1-.2-.1-.4.3-.6.3-.2 1-.1 1-.1s-.2.6-.6.8z"/><circle class="st31" cx="148.9" cy="176.2" r=".5"/><circle class="st31" cx="149.7" cy="179.1" r=".5"/><circle class="st31" cx="141.2" cy="181.1" r=".5"/><circle class="st31" cx="146.1" cy="183.9" r=".5"/><circle class="st31" cx="142.6" cy="175.1" r=".5"/><path class="st32" d="M147.7 182.4c-.2-.3-.1-.6.1-.7s.4-.1.7.2.1 1 .1 1-.7-.2-.9-.5zM140.4 180.2c.3-.3.5-.2.7-.1.2.2.2.4-.1.7s-.9.3-.9.3 0-.6.3-.9z"/><path class="st29" d="M141.5 183.2c.3-.3.5-.2.7-.1.2.2.2.4-.1.7s-.9.3-.9.3 0-.7.3-.9zM145.2 184.5c-.1-.4.1-.6.3-.6s.4.1.5.5-.3.9-.3.9-.4-.4-.5-.8z"/><path class="st32" d="M146.9 175.4c-.2-.3-.1-.6.1-.7.2-.1.4-.1.6.3.2.3.1 1 .1 1s-.6-.2-.8-.6zM141.9 176.2c.4-.1.6.1.6.3s-.1.4-.5.5-.9-.3-.9-.3.4-.5.8-.5zM139.9 177.5c.4-.1.6.1.6.3s-.1.4-.5.5-.9-.3-.9-.3.4-.4.8-.5zM143.9 173.5c.3.2.3.5.2.7s-.4.2-.7 0-.4-.9-.4-.9.6 0 .9.2zM149 179.9c-.2-.3-.1-.6.1-.7.2-.1.4-.1.7.2.2.3.1 1 .1 1s-.7-.1-.9-.5zM147.1 182.2c.1-.4.3-.5.5-.5s.4.2.3.6c-.1.4-.6.8-.6.8s-.3-.6-.2-.9z"/><circle class="st26" cx="142.5" cy="181.8" r=".9"/><circle class="st26" cx="143.8" cy="183.3" r=".9"/><circle class="st26" cx="144.4" cy="181.4" r=".9"/></g><g><path class="st2" d="M167.6 203.5h2.7v4.2h-2.7z"/><path class="st33" d="M175.7 204.1l-3.3-6.9h1.8l-2.4-5h1.5l-4.1-8.7-4.7 8.7h1.8l-2.7 5h2.2l-3.7 6.9z"/><path class="st34" d="M169.2 183.5l1.2 6.7c.2 1-.6 2-1.7 2h4.6l-4.1-8.7z"/><path class="st34" d="M170.2 192l1.1 3.8c.2.7-.3 1.4-1 1.4l-1.2.1h5.1l-2.4-5.2-1.6-.1z"/><path class="st34" d="M170.7 197.3l.7 3.6c.3 1.7-.9 3.2-2.6 3.2h-.1 7l-3.2-6.9-1.8.1z"/><path class="st3" d="M172.6 214h-7.7l-.6-8.2h9z"/><circle class="st35" cx="169.9" cy="196.1" r=".9"/><circle class="st35" cx="169.9" cy="188.8" r=".9"/><circle class="st35" cx="168.4" cy="192.4" r=".9"/><circle class="st35" cx="166.4" cy="201" r=".9"/><circle class="st35" cx="170.5" cy="200.2" r=".9"/></g><path class="st2" d="M313.3 189.2h17.8v.7h-17.8z"/><g><path class="st8" d="M151.4 23.7c0 .9.7 1.7 1.7 1.7h5.9c.9 0 1.7-.7 1.7-1.7 0-.9-.7-1.7-1.7-1.7h-5.9c-.9 0-1.7.8-1.7 1.7zM159.1 29.2h-21.6c-1.1 0-2 .9-2 2v.2c0 1.1.9 2 2 2h9.4c1 0 1.9.7 2 1.7.1 1.1-.8 2.1-1.9 2.1h-4.7c-1.1 0-2.1.9-2.1 2.1 0 1.1.9 2.1 2.1 2.1h13.4c1.1 0 2.1-.8 2.2-1.9.1-1.2-.9-2.2-2-2.2h-.7c-1.1 0-1.9-.9-1.9-1.9v-.2c0-1.1.9-1.9 1.9-1.9h3.8c1 0 1.8-.6 2-1.6.3-1.3-.6-2.5-1.9-2.5zM148.7 46.3h-4.1c-.8 0-1.4-.6-1.4-1.4 0-.8.6-1.4 1.4-1.4h4.1c.8 0 1.4.6 1.4 1.4 0 .8-.6 1.4-1.4 1.4z"/><path class="st8" d="M148.4 29.3h-5.6c-.9 0-1.7-.8-1.7-1.7 0-.9.8-1.7 1.7-1.7h5.6c.9 0 1.7.8 1.7 1.7 0 .9-.8 1.7-1.7 1.7z"/></g></svg>