<svg id="RECHTS" xmlns="http://www.w3.org/2000/svg" viewBox="0 0 400 232"><style>.st0{fill:#85a600}.st1{fill:#f6861e}.st2{fill:#55241a}.st3{stroke-width:3.2908}.st3,.st4{fill:none;stroke:#55241a;stroke-miterlimit:10}.st4{stroke-width:2.6326}.st5{stroke-width:2.9617}.st5,.st6{fill:none;stroke:#55241a;stroke-miterlimit:10}.st6{stroke-width:2.3035}.st7{fill:#f8a243}.st8{fill:#d5521e}.st9{fill:#f8b000}.st10{fill:#9ec300}.st11{fill:#84d0f0}.st12{fill:#00aae6}.st13{fill:#62c3ec}.st14{fill:#ffc92f}.st15{fill:#ffbc10}.st16{fill:#764f47}.st17{fill:#50bcea}.st18{fill:none}.st19{fill:#8fba00}.st20{fill:#82d0dc}.st21{fill:#FFF}.st22{fill:#6d433a}.st23{display:none}.st24{display:inline;fill:#FFF}.st25{display:none;fill:#ca1c13}.st26{display:inline;fill:#f81c13}.st27{display:inline;fill:#0098e6}.st28{display:inline;fill:#9ec300}.st29{display:inline;fill:#85a600}.st30{display:inline;fill:#55241a}.st31{display:inline;fill:#b3cf01}.st32{fill:#e7f1f5}.st33{fill:#0078c7}.st34{fill:#689800}.st35{display:none;fill:#f81c13}.st36{fill:#00589e}.st37{fill:#ff8e2f}</style><path class="st0" d="M261.4 207.8v5.7h61.5v-.2c0-10.7-9-19.4-20.2-19.4-2.6 0-5.2.5-7.5 1.4.1-.6.1-1.2.1-1.8 0-10.7-9-19.4-20.2-19.4s-20.2 8.7-20.2 19.4c0 5.7 2.5 10.8 6.5 14.3z" id="XMLID_14_"/><g id="XMLID_1645_"><path class="st1" d="M279.8 83.8H295V63.1h24c6.1 0 11.1 5 11.1 11.1V88c0 4.4-3.6 8-8 8h-.6v20.8c0 6.5-5.3 11.8-11.8 11.8h-11.6c-6.5 0-11.8-5.3-11.8-11.8v-2.9h-6.6c-6.5 0-11.8-5.3-11.8-11.8v-6.4c.1-6.6 5.4-11.9 11.9-11.9z"/><g id="XMLID_1653_"><path id="XMLID_1654_" class="st2" d="M301 151.1h-5.3v-2.5h5.3c2.8 0 5-2.2 5-5v-5.8h2.5v5.8c0 4.2-3.3 7.5-7.5 7.5z"/></g><g id="XMLID_1650_"><g id="XMLID_1651_"><path id="XMLID_1652_" class="st2" d="M293.9 100.1h3.5v104.7h-3.5z"/></g></g><path class="st3" d="M295.7 117.1h6.3c4.3 0 7.8-3.5 7.8-7.8v-5.9"/><path class="st4" d="M295.7 108.7h-8.5c-4.3 0-7.7-3.5-7.7-7.7v-9.6"/><path class="st5" d="M305.3 78.8v17c0 2.9-2.4 5.3-5.3 5.3h-6.1c-2.9 0-5.3-2.4-5.3-5.3V68.7"/><path class="st6" d="M289.7 77.9h-1.9c-3.2 0-5.8-2.6-5.8-5.8v-7.7"/><path class="st4" d="M305.3 88.4h2.5c2.7 0 4.8-2.2 4.8-4.8V72.7M304.4 88h-.3c-2.5 0-4.4-2-4.4-4.4v-4.7"/><path class="st7" d="M283.5 71.1h12.7c4.2 0 7.6-3.4 7.6-7.6V50.1c0-4.2-3.4-7.6-7.6-7.6h-12.7c-4.2 0-7.6 3.4-7.6 7.6v13.4c.1 4.2 3.5 7.6 7.6 7.6zM271.4 95.5h14c3.5 0 6.3-2.8 6.3-6.3v-1.6c0-3.5-2.8-6.3-6.3-6.3h-14c-3.5 0-6.3 2.8-6.3 6.3v1.6c-.1 3.5 2.8 6.3 6.3 6.3zM306.5 107.2h20.3c3.9 0 7.1-3.2 7.1-7.1v-1.8c0-3.9-3.2-7.1-7.1-7.1h-20.3c-3.9 0-7.1 3.2-7.1 7.1v1.8c0 3.9 3.2 7.1 7.1 7.1z"/><path class="st8" d="M316.9 72.7c-.8.6-2.4.2-2.4.2s0-1.7.8-2.3 2.6-.3 2.6-.3-.2 1.8-1 2.4z"/><path class="st9" d="M316.2 81.5c-1.1-.1-2-1.5-2-1.5s1.2-1.3 2.3-1.2c1.1.1 2.2 1.6 2.2 1.6s-1.4 1.2-2.5 1.1z"/><path class="st8" d="M308.2 76.9c1.1.7 3.1.1 3.1.1s-.1-2.1-1.2-2.9-3.3-.2-3.3-.2.3 2.3 1.4 3z"/><path class="st1" d="M311.4 141.6c-1 .6-2.7.1-2.7.1s.1-1.9 1.1-2.5 2.9-.1 2.9-.1-.3 1.9-1.3 2.5z"/><path class="st9" d="M275.1 99.9c1 .4 2.4-.5 2.4-.5s-.5-1.7-1.5-2c-1-.4-2.6.5-2.6.5s.7 1.6 1.7 2z"/><path class="st8" d="M313 68.9c.6 1.2-.3 3-.3 3s-2.1-.4-2.7-1.6.3-3.3.3-3.3 2.1.7 2.7 1.9z"/><path class="st1" d="M306.9 134.8c-.6 1.2.3 3 .3 3s2.1-.4 2.7-1.6c.6-1.2-.3-3.3-.3-3.3s-2.1.7-2.7 1.9zM303.7 137.8c.8.6 2.2.2 2.2.2s0-1.6-.8-2.1c-.8-.6-2.4-.2-2.4-.2s.2 1.5 1 2.1z"/></g><path class="st10" d="M305.1 213.6c-.9-6.9-6.8-12.2-13.9-12.2-.8 0-1.6.1-2.4.2-2.4-5.2-7.7-8.9-13.8-8.9-7.8 0-14.1 5.8-15.1 13.3h20.9c-1.9 2.1-3.1 4.7-3.5 7.6h27.8z"/><g id="XMLID_201_"><path class="st9" d="M236.4 97.4c.2 0 .4-.2.4-.4v-3c0-.2-.2-.4-.4-.4s-.4.2-.4.4v3c.1.2.2.4.4.4z"/><path class="st11" d="M236.5 88.1l5.8 4c-.8 2-2.7 3.4-4.9 3.4-2.9 0-5.3-2.4-5.3-5.3 0-.7.2-1.4.4-2.1h4z"/><path class="st9" d="M232.5 86.1h-1.4s.2-.5.7-.9c.3-.2.5-.3.7-.4v1.3z"/><path class="st12" d="M233.3 86.6c0-.3-.2-.5-.5-.5h-.3v-1.5c0-1 .8-2 1.8-2.1 1.2-.1 2.2.8 2.2 2v3.6l-4.4 2.1c0-.6.1-1.2.3-1.8.1-.2.1-.3.2-.5l.7-1.3zM246.6 95l-4.7-3.2-1 1.5 3.2 2.2c.8.5 1.9.3 2.5-.5z"/><path class="st13" d="M242.1 92.5c-.7 1.3-1.9 2.3-3.4 2.7-.4-.1-.7-.3-1-.5-2-1.3-2.5-4-1.1-6l5.5 3.8z"/><path class="st11" d="M236.6 88.1c-1.3 2-.8 4.6 1.1 6s4.6.8 6-1.1l-7.1-4.9z"/><path class="st12" d="M241.8 91.7l-2.5 3.1c.5.1 1 .1 1.5 0l2-2.4-1-.7zm-4.5 2.1c.1.1.3.2.4.3l.6.3 2.7-3.3-1-.7-2.7 3.4z"/><path class="st14" d="M284.3 145.7l-47.8-45.5-47.9 45.5v68h95.7z" id="XMLID_220_"/><path class="st15" d="M284.3 149.6l-.1 5.3-47.8-45.3-36.7 34.1-.9-6.8 37.7-33.9z" id="XMLID_219_"/><path class="st15" d="M204.3 130.8l-6.2 5.7-.3.2-9.2 9v68h9.3l6.4-.1z"/><g id="XMLID_217_"><path class="st2" d="M200.8 152h71v61.7h-71z" id="XMLID_218_"/></g><g><path class="st16" d="M263 213.6h-11.5c-.7 0-1.2-.6-1.1-1.3l1.2-5.8c.1-.5.5-.9 1.1-.9h11.5c.7 0 1.2.6 1.1 1.3l-1.2 5.8c-.1.5-.6.9-1.1.9z"/><path class="st16" d="M263.2 187.9h-1.8l-4.1 19.6h1.9z"/></g><g id="XMLID_207_"><path class="st11" d="M200.8 151.5h71v38.4h-71z" id="XMLID_210_"/><path class="st17" d="M200.8 151.5h71V169h-71z" id="XMLID_209_"/><g id="XMLID_208_"><path class="st18" d="M239.2 184.8h-5.6"/><path class="st2" d="M239.2 186h-5.6c-.6 0-1.1-.5-1.1-1.1s.5-1.1 1.1-1.1h5.6c.6 0 1.1.5 1.1 1.1s-.5 1.1-1.1 1.1z"/></g></g><g><path class="st16" d="M234.8 213.7h-23.7c-.6 0-1.1-.5-1.1-1.1s.5-1.1 1.1-1.1h23.7c5.4 0 9.7-4.4 9.7-9.7 0-.6.5-1.1 1.1-1.1s1.1.5 1.1 1.1c0 6.5-5.3 11.9-11.9 11.9z"/><path class="st16" d="M216.3 202.9h2.2v9.7h-2.2zM230.9 202.9h2.2v9.7h-2.2z"/><path class="st16" d="M244.7 204.1h-34c-.5 0-.8-.4-.8-.8s.4-.8.8-.8h34c.5 0 .8.4.8.8s-.3.8-.8.8z"/></g><g><path class="st12" d="M270 213.7v-59.8h-65.7v59.8h-3.7v-63.5h73.1v63.5z"/></g><g id="XMLID_203_"><path class="st9" d="M249.5 143.6h5.2c.4 0 .7-.3.7-.7v-1.5c0-.4-.3-.7-.7-.7h-5.2c-.4 0-.7.3-.7.7v1.5c-.1.3.3.7.7.7z" id="XMLID_206_"/><path class="st9" d="M245 139.2h5.2c.4 0 .7-.3.7-.7V137c0-.4-.3-.7-.7-.7H245c-.4 0-.7.3-.7.7v1.5c0 .4.3.7.7.7z" id="XMLID_205_"/><path class="st9" d="M241.4 143.6h4.6c.5 0 .8-.4.8-.8v-1.4c0-.5-.4-.8-.8-.8h-4.6c-.5 0-.8.4-.8.8v1.4c0 .4.4.8.8.8z" id="XMLID_204_"/></g><g id="XMLID_202_"><path class="st1" d="M284.3 149.6l-47.8-45.5-47.9 45.5-3.9-4 51.8-49.3 51.7 49.3z"/></g></g><path class="st14" d="M152.4 38.3h7.1v22.6h-7.1z"/><path class="st1" d="M151.2 36.5h9.4V39h-9.4z"/><path class="st2" d="M23.3 186.8h5.6v25.4h-5.6z"/><path class="st10" d="M.8 182.9L23 103.4c.9-3.1 5.3-3.1 6.1 0l22.2 79.5c.8 2.7-1.3 5.4-4.1 5.4H4.9c-2.8-.1-4.8-2.7-4.1-5.4z"/><path class="st19" d="M30.6 108.4c-2.1 0-3.7 1.8-3.5 3.9l5.5 50.6c.9 8.6-5.8 16.2-14.5 16.2H1.9l-1.1 3.8c-.8 2.7 1.3 5.4 4.1 5.4h42.3c2.8 0 4.8-2.7 4.1-5.4l-20.7-74.5z"/><path class="st0" d="M66.4 213.8v-3.1h-5.5c1.5-2 2.4-4.5 2.4-7.3 0-6.7-5.5-12.2-12.2-12.2S39 196.7 39 203.5c0 .8.1 1.6.2 2.3-1-.4-2-.6-3.2-.6-4.8 0-8.6 3.9-8.6 8.6h39z"/><path class="st0" d="M32.5 213.8c-.9-2.7-3.5-4.7-6.5-4.7s-5.6 2-6.5 4.7h13z"/><g id="XMLID_192_"><path class="st14" d="M60.6 36.3h39.7v42.2H60.6z" id="XMLID_195_"/><path class="st20" d="M53.1 33.7h52.7v12.9H53.1z" id="XMLID_194_"/><path class="st12" d="M53.1 33.7h52.7v4.7H53.1z" id="XMLID_193_"/></g><g id="XMLID_190_"><path class="st14" d="M37.9 125.6l78.7-112.2 78.6 112.2z" id="XMLID_191_"/></g><path class="st21" d="M192.8 125.4L116.6 20.1l-75 104.8-4.9-3.6L116.6 9.6l81.1 112.2z"/><path class="st1" d="M35.4 124.9l-5-3.6L116.6.7l86.3 119.5-5 3.6-81.3-112.7z"/><path class="st14" d="M44.6 120.3h143.9v93.4H44.6z" id="XMLID_189_"/><path class="st15" d="M44.6 127.5h5.2l-5.2 4.6z" id="XMLID_188_"/><path class="st21" d="M28.2 119.6h21.5v7.8H28.2z" id="XMLID_187_"/><path class="st21" d="M204.9 126.4v-6.8h-21.5v7.9h20.4z"/><path class="st15" d="M188.5 127.5h-5.1l5.1 4.6z" id="XMLID_185_"/><g id="XMLID_176_"><path class="st1" d="M82.4 120.1h68.3v1.7H82.4z" id="XMLID_184_"/><path class="st9" d="M150.8 121.8H82.4v1.2c0 1.2 1 2.2 2.2 2.2h64c1.2 0 2.2-1 2.2-2.2v-1.2z" id="XMLID_183_"/><path class="st2" d="M84.1 83.1h65v35.5h-65z"/><path class="st22" d="M144.3 83.9l-33.9-.3-24.6 25.5v7.9H112z" id="XMLID_182_"/><path class="st2" d="M100.8 109.3h-3.2c0-.7-.2-1.4-.6-1.9l.1-1.9-1.5.8c-.4-.2-.9-.3-1.3-.3-.5 0-.9.1-1.4.3l-1.5-.8.1 2c-.4.5-.6 1.2-.6 1.9v7.4h14.7v-2.7c-.1-2.7-2.2-4.8-4.8-4.8z" id="XMLID_181_"/><path class="st21" d="M150.7 120.1H82.5V81.5h68.2v38.6zm-65-3.1h61.8V84.7H85.7V117z"/><g id="XMLID_178_"><path class="st21" d="M99.7 83.1h2.1v34.3h-2.1z" id="XMLID_180_"/><path class="st21" d="M131.3 83.1h2.1v34.3h-2.1z" id="XMLID_179_"/></g><path class="st9" d="M126 110l1.1-3.5h-4.4l1.1 3.5c-1.4.5-2.4 1.7-2.4 3.3 0 1.9 1.5 3.5 3.5 3.5 1.9 0 3.5-1.5 3.5-3.5 0-1.5-1-2.8-2.4-3.3z" id="XMLID_177_"/><path class="st23 st24" d="M115.4 91.5c-.6 0-1-.5-1-1 0-.6.5-1 1-1 .6 0 1 .5 1 1s-.4 1-1 1zm3-1.1c0-.6.4-1 1-1.1.5 0 1 .4 1 1s-.4 1-1 1c-.5.1-1-.3-1-.9zm-7.1.9c-.6 0-1-.5-.9-1.1 0-.5.5-1 1.1-.9.5 0 1 .5.9 1.1 0 .5-.5.9-1.1.9.1 0 .1 0 0 0zm11.1-1.1c0-.5.4-1 .9-1.1.5 0 1 .4 1.1.9 0 .5-.4 1-.9 1.1h-.1c-.5 0-1-.4-1-.9zm-15.1.8c-.6-.1-1-.5-.9-1.1.1-.5.6-.9 1.1-.9.5 0 1 .5.9 1.1 0 .5-.5.9-1.1.9.1 0 0 0 0 0zm19.1-1.2c-.1-.5.3-1 .9-1.1.6-.1 1.1.3 1.1.9.1.5-.3 1-.9 1.1h-.1c-.5 0-1-.4-1-.9zm-23.1.7c-.5-.1-.9-.6-.9-1.1.1-.5.6-.9 1.1-.9.6.1.9.6.9 1.1-.1.5-.5.9-1.1.9zm27-1.2c-.1-.5.3-1.1.8-1.1.5-.1 1.1.3 1.1.8.1.5-.3 1.1-.8 1.1h-.2c-.3 0-.8-.3-.9-.8zm-31 .6c-.5-.1-.9-.6-.8-1.1.1-.5.6-.9 1.1-.8.5.1.9.6.8 1.2-.1.5-.5.8-1.1.7.1 0 .1 0 0 0zm35-1.3c-.1-.5.2-1.1.8-1.2.5-.1 1.1.3 1.2.8.1.5-.3 1.1-.8 1.2h-.2c-.5 0-.9-.3-1-.8zm-38.9.5c-.5-.1-.9-.6-.8-1.2.1-.6.6-.9 1.2-.8.5.1.9.6.8 1.2-.1.5-.5.8-1 .8-.1.1-.2 0-.2 0zm42.8-1.3c-.1-.5.2-1.1.8-1.2.5-.1 1.1.2 1.2.8.1.5-.2 1.1-.8 1.2h-.2c-.5 0-.9-.3-1-.8zm-46.8.5c-.5-.1-.9-.7-.8-1.2.1-.5.7-.9 1.2-.7.5.1.9.7.8 1.2-.1.5-.5.8-1 .8 0-.1-.1-.1-.2-.1zm50.7-1.3c-.1-.5.2-1.1.7-1.2.5-.1 1.1.2 1.2.7.1.5-.2 1.1-.7 1.2h-.2c-.4.1-.8-.3-1-.7zm-54.6.3c-.5-.1-.8-.7-.7-1.2.2-.5.7-.8 1.2-.7.5.1.8.7.7 1.2-.1.4-.5.7-1 .7h-.2z"/></g><path class="st12" d="M120.7 200.8h55.2v13h-55.2z" id="XMLID_175_"/><path class="st21" d="M118.8 198.6h58.9v4.2h-58.9z" id="XMLID_174_"/><path class="st2" d="M120.7 160.3h55.2v38.3h-55.2z" id="XMLID_173_"/><g id="XMLID_170_"><path class="st22" d="M140.5 160.3s.9 11.5-5.9 21.3l.1 17h-14v-38.3h19.8z" id="XMLID_172_"/><path class="st22" d="M156 160.3s-.9 11.5 5.9 21.3l-.3 17h14.3v-38.3H156z" id="XMLID_171_"/></g><path class="st21" d="M127.3 158.1h2.6v42.7h-2.6z" id="XMLID_169_"/><path class="st21" d="M166.5 158.1h2.6v42.7h-2.6z" id="XMLID_168_"/><path class="st1" d="M116.9 150h62.4v6.3h-62.4z" id="XMLID_167_"/><path class="st21" d="M118.8 156.3h58.9v4.2h-58.9z" id="XMLID_166_"/><g id="XMLID_157_"><path class="st21" d="M145.6 188.2v-10.9h.5v10.8l-.5.1z"/><path class="st21" d="M145.9 188.1l-4.2-7.5.4-.2 3.7 6.4 1.3-3.5.5.2z" id="XMLID_165_"/><circle class="st14" cx="141.9" cy="180.5" r="1.1" id="XMLID_164_"/><circle class="st14" cx="147.4" cy="183.6" r="1.1" id="XMLID_163_"/><circle class="st14" cx="145.9" cy="177.3" r="1.1" id="XMLID_162_"/><g id="XMLID_159_"><path class="st11" d="M144.3 189.8v-3.1h3v3.1c0 .4.3.7.7.7.4 0 .7.3.7.7v7.5H143v-7.5c0-.4.3-.7.7-.7.3 0 .6-.3.6-.7z"/></g><g id="XMLID_158_"><path class="st12" d="M151.2 198.6h-3c-1.1-.5-1.8-1.7-1.8-3 0-1.2.6-2.2 1.6-2.8.2-.1.4-.4.4-.7v-3h2.8v3c0 .3.1.5.4.7 1 .6 1.6 1.7 1.6 2.9-.1 1.2-.9 2.3-2 2.9z"/></g></g><path class="st21" d="M120.6 166.6h55.2v2.6h-55.2z" id="XMLID_156_"/><g id="XMLID_148_"><g id="XMLID_151_"><path class="st21" d="M125.6 59.5h-18v-18h18v18zm-14.8-3.1h11.6V44.7h-11.6v11.7z" id="XMLID_153_"/><path class="st2" d="M109.8 43.7h13.7v13.7h-13.7z" id="XMLID_152_"/></g><path class="st1" d="M107.5 59.4h18.1v1.7h-18.1z" id="XMLID_150_"/><path class="st9" d="M125.6 61h-18.1v1.2c0 1.2 1 2.2 2.2 2.2h13.7c1.2 0 2.2-1 2.2-2.2V61z" id="XMLID_149_"/></g><g id="XMLID_144_"><path class="st9" d="M77.2 141.7h-5.7c-.5 0-.9-.4-.9-.9v-1.6c0-.5.4-.9.9-.9h5.7c.5 0 .9.4.9.9v1.6c.1.5-.3.9-.9.9z" id="XMLID_147_"/><path class="st9" d="M81.8 137H76c-.5 0-.9-.4-.9-.9v-1.6c0-.5.4-.9.9-.9h5.7c.5 0 .9.4.9.9v1.6c.1.5-.3.9-.8.9z" id="XMLID_146_"/><path class="st9" d="M85.5 141.7h-5.1c-.5 0-.9-.4-.9-.9v-1.6c0-.5.4-.9.9-.9h5.1c.5 0 .9.4.9.9v1.6c0 .5-.4.9-.9.9z" id="XMLID_145_"/></g><g id="XMLID_143_"><path class="st9" d="M128.2 133.6h5.7c.5 0 .9.4.9.9v1.6c0 .5-.4.9-.9.9h-5.7c-.5 0-.9-.4-.9-.9v-1.6c-.1-.5.4-.9.9-.9z"/></g><g><path class="st9" d="M48.7 203.2h-4v3.4h4c.5 0 .9-.4.9-.9v-1.6c0-.5-.4-.9-.9-.9z"/></g><g id="XMLID_142_"><path class="st9" d="M132.3 138.2h5.7c.5 0 .9.4.9.9v1.6c0 .5-.4.9-.9.9h-5.7c-.5 0-.9-.4-.9-.9v-1.6c0-.4.4-.9.9-.9z"/></g><g id="XMLID_139_"><path class="st9" d="M133.4 64.6h5.7c.5 0 .9.4.9.9v1.6c0 .5-.4.9-.9.9h-5.7c-.5 0-.9-.4-.9-.9v-1.6c0-.5.4-.9.9-.9z" id="XMLID_141_"/><path class="st9" d="M129.3 69.3h5.7c.5 0 .9.4.9.9v1.6c0 .5-.4.9-.9.9h-5.7c-.5 0-.9-.4-.9-.9v-1.6c0-.5.4-.9.9-.9z" id="XMLID_140_"/></g><g id="XMLID_137_"><path class="st9" d="M163.3 109.3h5.7c.5 0 .9.4.9.9v1.6c0 .5-.4.9-.9.9h-5.7c-.5 0-.9-.4-.9-.9v-1.6c0-.5.4-.9.9-.9z" id="XMLID_138_"/></g><g id="XMLID_129_"><path class="st21" d="M103.6 169.4c0-10.7-8.7-19.3-19.3-19.3S65 158.8 65 169.4v19.3h38.7l-.1-19.3z" id="XMLID_136_"/><g id="XMLID_131_"><g id="XMLID_133_"><path class="st12" d="M98.1 213.8v-43.6c0-7.6-6.2-13.8-13.8-13.8s-13.8 6.2-13.8 13.8v43.6"/><path class="st25" d="M83.7 157.5h1.4v2.4h-1.4z"/><path class="st21" d="M99.7 213.8h-3.2v-43.6c0-6.7-5.5-12.2-12.2-12.2s-12.2 5.5-12.2 12.2v43.6h-3.2v-43.6c0-8.5 6.9-15.4 15.4-15.4s15.4 6.9 15.4 15.4v43.6z"/></g><g class="st23"><path class="st26" d="M83.7 159.3h1.4v7.3h-1.4z"/><path class="st27" d="M84.2 166.1c-3.9 0-7.1 3.2-7.1 7.1 0 3.9 3.2 7.1 7.1 7.1s7.1-3.2 7.1-7.1c0-3.9-3.2-7.1-7.1-7.1zm0 10.4c-1.8 0-3.2-1.4-3.2-3.2s1.4-3.2 3.2-3.2c1.8 0 3.2 1.4 3.2 3.2 0 1.8-1.5 3.2-3.2 3.2z"/><path class="st28" d="M84.2 164.9c-3.9 0-7.1 3.2-7.1 7.1 0 3.9 3.2 7.1 7.1 7.1s7.1-3.2 7.1-7.1c0-3.9-3.2-7.1-7.1-7.1zm0 10.4c-1.8 0-3.2-1.4-3.2-3.2s1.4-3.2 3.2-3.2c1.8 0 3.2 1.4 3.2 3.2s-1.5 3.2-3.2 3.2z"/><path class="st29" d="M84.2 177.4c-3.6 0-6.6-2.7-7.1-6.3 0 .3-.1.6-.1.9 0 3.9 3.2 7.1 7.1 7.1s7.1-3.2 7.1-7.1c0-.3-.1-.6-.1-.9-.3 3.6-3.3 6.3-6.9 6.3z"/><path class="st29" d="M84.2 168c-1.8 0-3.2 1.4-3.2 3.2v.4c.2-1.6 1.5-2.9 3.2-2.9s3 1.3 3.2 2.9v-.4c0-1.7-1.5-3.2-3.2-3.2z"/><path class="st28" d="M90.5 170.5c-.5 0-.7-.2-.7-.5s.2-.5.7-.5 1.1.5 1.1.5-.6.5-1.1.5zM85.9 166c-.4.2-.7.1-.8-.1-.1-.3-.1-.5.3-.8s1.2-.1 1.2-.1-.3.8-.7 1z"/><circle class="st30" cx="88.8" cy="168.5" r=".6"/><circle class="st30" cx="89.7" cy="172.1" r=".6"/><circle class="st30" cx="79.3" cy="174.6" r=".6"/><circle class="st30" cx="85.3" cy="178" r=".6"/><circle class="st30" cx="81.1" cy="167.2" r=".6"/><path class="st31" d="M87.3 176.1c-.3-.4-.2-.7.1-.8.2-.2.5-.1.8.3.3.4.1 1.2.1 1.2s-.7-.3-1-.7zM78.3 173.4c.4-.3.7-.3.8-.1.2.2.2.5-.1.8-.4.3-1.2.3-1.2.3s.1-.7.5-1z"/><path class="st28" d="M79.7 177.1c.4-.3.7-.3.8-.1.2.2.2.5-.1.8-.4.3-1.2.3-1.2.3s.1-.7.5-1zM84.2 178.6c-.1-.5.1-.7.4-.7s.5.1.6.6-.4 1.1-.4 1.1-.5-.5-.6-1z"/><path class="st31" d="M86.3 167.6c-.2-.4-.1-.7.1-.8s.5-.1.8.3.1 1.2.1 1.2-.8-.3-1-.7zM80.1 168.5c.5-.1.7.1.8.4 0 .3-.1.5-.6.6s-1.2-.3-1.2-.3.5-.6 1-.7zM77.7 170.2c.5-.1.7.1.8.4s-.1.5-.6.6-1.2-.3-1.2-.3.5-.7 1-.7zM82.6 165.3c.4.3.4.6.2.8-.2.2-.5.3-.9 0s-.5-1.1-.5-1.1.8 0 1.2.3zM88.9 173.1c-.3-.4-.2-.7.1-.8.2-.2.5-.1.8.3.3.4.1 1.2.1 1.2s-.7-.3-1-.7zM86.5 175.8c.1-.5.4-.6.6-.6.3.1.5.3.4.8s-.7 1-.7 1-.4-.7-.3-1.2z"/><circle class="st26" cx="80.9" cy="175.3" r="1.1"/><circle class="st26" cx="82.5" cy="177.2" r="1.1"/><circle class="st26" cx="83.2" cy="174.8" r="1.1"/></g></g><path class="st32" d="M67.3 210.4h34.5v4.5H67.3z" id="XMLID_130_"/></g><g id="XMLID_128_"><circle class="st14" cx="93.9" cy="188.4" r="1.8"/></g><g id="XMLID_1_"><path class="st32" d="M54.7 222.2h8.7v-19.8c0-2.4-1.9-4.3-4.3-4.3s-4.3 1.9-4.3 4.3v19.8h-.1z" id="XMLID_127_"/><path class="st32" d="M25.9 222.2h8.7v-19.8c0-2.4-1.9-4.3-4.3-4.3S26 200 26 202.4v19.8h-.1z" id="XMLID_126_"/><path class="st32" d="M30.2 207.5h28.9v2H30.2z" id="XMLID_125_"/></g><g><circle class="st21" cx="192.1" cy="183.1" r="7.5"/><path class="st21" d="M200.5 202c.9-1.5 1.4-3.2 1.4-5.1 0-5.4-4.4-9.8-9.8-9.8s-9.8 4.4-9.8 9.8c0 1.9.5 3.6 1.4 5.1-3 2.4-4.9 6.2-4.9 10.3 0 4.2 1.9 7.9 5 10.4h16.7c3-2.4 5-6.2 5-10.4-.1-4.1-2-7.8-5-10.3z"/><path class="st1" d="M189.2 181.4c0-.5-.5-.9-1-.8l-7.1 1.1c-.5.1-.5.9 0 .9l7.1 1.1c.5.1 1-.3 1-.8v-1.5z"/><path class="st12" d="M194.4 187.1V195.9h.5v-.7h.6v.7h.5v-.7h.6v.7h.5v-.7h.6v.7h.5V187.1z"/><path class="st33" d="M194.4 189.9h3.7v.9h-3.7z"/><path class="st12" d="M185.3 186.1h13.8v3.8h-13.8z"/><circle class="st2" cx="189.2" cy="194.8" r="1.2"/><circle class="st2" cx="189.2" cy="200" r="1.2"/><circle class="st2" cx="189.2" cy="205.3" r="1.2"/><path class="st21" d="M202.7 220.5h-21.1s-2.8.5-2.8 2.2h26.8c0-1.9-2.9-2.2-2.9-2.2z"/><path class="st2" d="M187.8 167.9h8.9v9h-8.9z"/><path class="st2" d="M198.9 177.7h-13.4c-.4 0-.8-.3-.8-.8 0-.4.3-.8.8-.8h13.4c.4 0 .8.3.8.8s-.4.8-.8.8z"/></g><g><path class="st2" d="M109.5 208.6h2.7v4.2h-2.7z"/><path class="st0" d="M117.6 209.2l-3.2-6.9h1.7l-2.3-4.9h1.4l-4.1-8.8-4.6 8.8h1.7l-2.6 4.9h2.1l-3.6 6.9z"/><path class="st34" d="M111.1 188.6l1.2 6.7c.2 1-.6 2-1.7 2h4.6l-4.1-8.7z"/><path class="st34" d="M112.1 197.1l1.1 3.8c.2.7-.3 1.4-1 1.4l-1.2.1h5.1l-2.4-5.2-1.6-.1z"/><path class="st34" d="M112.6 202.4l.7 3.6c.3 1.7-.9 3.2-2.6 3.2h-.1 7l-3.2-6.9-1.8.1z"/><path class="st1" d="M114.6 219.1h-7.7l-.7-8.2h9.1z"/><circle class="st35" cx="111.9" cy="201.2" r=".9"/><circle class="st35" cx="111.8" cy="193.9" r=".9"/><circle class="st35" cx="110.3" cy="197.5" r=".9"/><circle class="st35" cx="108.4" cy="206.1" r=".9"/><circle class="st35" cx="112.5" cy="205.3" r=".9"/></g><g><path class="st21" d="M162.3 11.8c0 .8.7 1.5 1.5 1.5h5.5c.8 0 1.5-.7 1.5-1.5s-.7-1.5-1.5-1.5h-5.5c-.8 0-1.5.7-1.5 1.5zM169.4 16.9h-19.8c-1 0-1.8.8-1.8 1.8v.2c0 1 .8 1.8 1.8 1.8h8.7c.9 0 1.7.7 1.8 1.6.1 1-.7 1.9-1.7 1.9H154c-1 0-1.9.8-1.9 1.9 0 1 .8 1.9 1.9 1.9h12.3c1 0 1.9-.8 2-1.8.1-1.1-.8-2-1.9-2h-.6c-1 0-1.7-.8-1.7-1.7v-.2c0-1 .8-1.7 1.7-1.7h3.5c.9 0 1.7-.6 1.9-1.5.2-1.2-.7-2.2-1.8-2.2zM159.8 32.6H156c-.7 0-1.3-.6-1.3-1.3 0-.7.6-1.3 1.3-1.3h3.8c.7 0 1.3.6 1.3 1.3 0 .7-.6 1.3-1.3 1.3zM159.5 16.9h-5.2c-.9 0-1.5-.7-1.5-1.5 0-.9.7-1.5 1.5-1.5h5.2c.9 0 1.5.7 1.5 1.5.1.8-.6 1.5-1.5 1.5z"/></g><g><path class="st9" d="M364 214.1l-11.5-40.9-11.6 40.9h-3.1l13.1-46.7c.2-.6.7-1.1 1.4-1.1s1.3.4 1.5 1l13.3 46.8H364z"/><path class="st9" d="M345.3 193.5h15v3h-15z"/><path class="st2" d="M340.3 168.1h1v36.6h-1zM331.5 168.1h1v36.6h-1z"/><path class="st36" d="M329.5 204.2h10.8v2.2h-10.8z"/><path class="st12" d="M334.8 206.4h10.3c.6 0 1.1-.5 1.1-1.1 0-.6-.5-1.1-1.1-1.1h-10.3v2.2z"/><g><path class="st14" d="M318.4 169.2h34c.8 0 1.5-.7 1.5-1.5s-.7-1.5-1.5-1.5h-34c-.8 0-1.5.7-1.5 1.5s.6 1.5 1.5 1.5z"/></g><g><path class="st14" d="M311 193.5h15.2v3H311z"/><path class="st14" d="M329.8 214.1l-11.5-40.9-11.6 40.9h-3.1l13.1-46.7c.2-.6.7-1.1 1.4-1.1s1.3.4 1.5 1l13.3 46.8h-3.1z"/></g></g><g><path class="st14" d="M366.9 208.3l1.4-1.9c.4-.6 1-1 1.7-1h.7c1.4 0 2.4 1.4 1.9 2.7l-1.1 3.3c-.3 1-1.3 1.6-2.3 1.3-.6-.2-1.1-.6-1.3-1.1l-.9-1.9c-.2-.6-.4-.9-.1-1.4z"/><path class="st14" d="M358.4 208.7h10.4v2.3h-10.4z"/><path class="st14" d="M353.6 209.1c.3-.3.8-.4 1.2-.3h.1c1.1.3 1.1 1.5 1.2 2.4.2 1.5 1.6 1.9 3.3 1.9v-.8s.8-3.4.8-3.5c0-.3 0-.5-.1-.7-.3-2-1.5-5.9-3.6-8.2-1.6-1.8-4.5-1.3-5.5.9l-2.9 6.4c-.5 1.2-.1 2.6 1 3.3 1 .6 2.3.5 3.2-.3l1.3-1.1z"/><path class="st2" d="M367.9 209.3h-8c-.4 0-.6-.3-.6-.6 0-.4.3-.6.6-.6h8c.4 0 .6.3.6.6.1.3-.2.6-.6.6z"/><path class="st37" d="M361.5 217c-.2 0-.3-.1-.4-.2-.1-.2-.1-.5.2-.6l4.4-2.7c.2-.1.5-.1.6.2.1.2.1.5-.2.6l-4.4 2.7h-.2zM361.5 214.2c-.2 0-.3-.1-.4-.2-.1-.2-.1-.5.2-.6l4.4-2.7c.2-.1.5-.1.6.2.1.2.1.5-.2.6l-4.4 2.7h-.2zM361.5 219.8c-.2 0-.3-.1-.4-.2-.1-.2-.1-.5.2-.6l4.4-2.7c.2-.1.5-.1.6.2.1.2.1.5-.2.6l-4.4 2.7c-.1-.1-.1 0-.2 0zM361.5 222.5c-.2 0-.3-.1-.4-.2-.1-.2-.1-.5.2-.6l4.4-2.7c.2-.1.5-.1.6.2.1.2.1.5-.2.6l-4.4 2.7h-.2z"/><path class="st9" d="M366.3 214.3h-4.8c-.3 0-.5-.2-.5-.5s.2-.5.5-.5h4.8c.3 0 .5.2.5.5s-.2.5-.5.5zM366.3 217h-4.8c-.3 0-.5-.2-.5-.5s.2-.5.5-.5h4.8c.3 0 .5.2.5.5s-.2.5-.5.5zM366.3 219.8h-4.8c-.3 0-.5-.2-.5-.5s.2-.5.5-.5h4.8c.3 0 .5.2.5.5s-.2.5-.5.5zM366.3 222.6h-4.8c-.3 0-.5-.2-.5-.5s.2-.5.5-.5h4.8c.3 0 .5.2.5.5 0 .2-.2.5-.5.5z"/><path class="st37" d="M367.8 212.5h-8.4v-1c0-.8.7-1.5 1.5-1.5h5.5c.8 0 1.5.7 1.5 1.5v1h-.1z"/><circle class="st21" cx="352.8" cy="204.3" r="1.1"/><circle class="st37" cx="354.4" cy="201" r=".9"/><circle class="st37" cx="358.3" cy="211.3" r=".7"/><circle class="st37" cx="369.3" cy="211.3" r=".7"/></g><g><path class="st2" d="M375 190.6h5.2v32H375z"/><path class="st10" d="M355.7 192.1l19.3-69c.8-2.7 4.6-2.7 5.3 0l19.3 69c.7 2.3-1.1 4.7-3.5 4.7h-36.8c-2.5 0-4.2-2.3-3.6-4.7z"/><path class="st19" d="M381.5 127.5c-1.8 0-3.2 1.6-3 3.4l4.8 43.9c.8 7.5-5.1 14.1-12.6 14.1h-14.1l-.9 3.3c-.7 2.3 1.1 4.7 3.6 4.7H396c2.4 0 4.2-2.3 3.6-4.7l-18.1-64.7z"/></g></svg>