<svg id="links" xmlns="http://www.w3.org/2000/svg" width="180" height="232"><style>.st0{fill:#FAC133;} .st1{fill:#F6861E;} .st2{fill:#F8B000;} .st3{fill:#55241A;} .st4{fill:none;stroke:#55241A;stroke-width:5;stroke-miterlimit:10;} .st5{fill:none;stroke:#55241A;stroke-width:4;stroke-miterlimit:10;} .st6{fill:none;stroke:#55241A;stroke-width:4.5;stroke-miterlimit:10;} .st7{fill:none;stroke:#55241A;stroke-width:3.5;stroke-miterlimit:10;} .st8{fill:#F8A243;} .st9{fill:#D5521E;} .st10{fill:#FFC92F;} .st11{fill:none;stroke:#FFC92F;stroke-width:0.9728;stroke-miterlimit:10;} .st12{fill:#00AAE6;} .st13{fill:#84D0F0;} .st14{fill:none;stroke:#55241A;stroke-width:0.6042;stroke-miterlimit:10;} .st15{fill:#F8A300;} .st16{fill:#9EC300;} .st17{fill:#62C3EC;}</style><g id="XMLID_179_"><g id="XMLID_252_"><g id="XMLID_922_"><path class="st0" d="M171.3 232.1c-.6 0-1-.4-1-1v-5.3c0-.6.4-1 1-1s1 .4 1 1v5.3c0 .5-.5 1-1 1z" id="XMLID_929_"/><path class="st0" d="M168.5 232.1c-.6 0-1-.4-1-1v-5.3c0-.6.4-1 1-1s1 .4 1 1v5.3c0 .5-.5 1-1 1z" id="XMLID_928_"/><path class="st1" d="M172.6 214.4c-3.9-2-14 .9-14 .9s.5 10.5 6.7 13.3c4 1.8 8.7.5 10.7-3.5 2.1-3.9.5-8.7-3.4-10.7z" id="XMLID_927_"/></g><path class="st1" d="M174.6 209.2c1.3 0 2.4 1.1 2.4 2.4v9.9l-4.8-4.3v-5.6c0-1.3 1.1-2.4 2.4-2.4z" id="XMLID_921_"/><path class="st0" d="M177 211.5l2.3 2.2H177z" id="XMLID_716_"/><path class="st1" d="M160.7 212.3v4.1l8.4-2.1-8.2-2.1c0-.1-.2 0-.2.1z" id="XMLID_715_"/><path class="st2" d="M167.8 224c-.8 0-1.6-.1-2.4-.4-2.7-1-3.8-4.3-4.2-6.6 1.7-.3 4.1-.7 6.2-.7 1.6 0 2.3.2 2.6.3 2.4 1 3.4 3.3 2.1 5.3-.8 1.4-2.4 2.1-4.3 2.1z" id="XMLID_253_"/></g><path class="st1" d="M84.4 228.4v-.5c0-9.1-7.4-16.4-16.4-16.4-9.1 0-16.4 7.4-16.4 16.4v.5h32.8z"/><path id="XMLID_251_" class="st1" d="M29.5 226.5v5.5h58.3c0-10.1-8.6-18.5-19.1-18.5-2.5 0-4.9.5-7.1 1.3.1-.6.1-1.1.1-1.7 0-10.1-8.6-18.3-19.1-18.3-10.6 0-19.1 8.2-19.1 18.3-.2 5.3 2.2 10 6 13.4z"/><g id="XMLID_1645_"><path class="st1" d="M23.3 75.3h23V43.8h36.5c9.3 0 16.9 7.6 16.9 16.9v21c0 6.7-5.4 12.2-12.2 12.2h-.9v31.5c0 9.9-8 17.9-17.9 17.9H51.2c-9.9 0-17.9-8-17.9-17.9V121h-10c-9.9 0-17.9-8-17.9-17.9v-9.8c-.1-10 8-18 17.9-18z"/><g id="XMLID_1653_"><path id="XMLID_1654_" class="st3" d="M54.3 175.2h-5.1v-3.9h5.1c4.2 0 7.6-3.4 7.6-7.6v-5.5h3.9v5.5c0 6.4-5.2 11.5-11.5 11.5z"/></g><g id="XMLID_1650_"><g id="XMLID_1651_"><path id="XMLID_1652_" class="st3" d="M44.7 100H50v125.1h-5.3z"/></g></g><path class="st4" d="M47.4 125.9H57c6.5 0 11.8-5.3 11.8-11.8v-9"/><path class="st5" d="M47.4 113.1H34.5c-6.5 0-11.8-5.3-11.8-11.8V86.7"/><path class="st6" d="M62 67.7v25.8c0 4.4-3.6 8.1-8.1 8.1h-9.3c-4.4 0-8.1-3.6-8.1-8.1V52.3"/><path class="st7" d="M38.3 66.2h-3c-4.8 0-8.8-3.9-8.8-8.8V45.7"/><path class="st5" d="M62 82.2h3.8c4.1 0 7.4-3.3 7.4-7.4V58.4M60.6 81.6h-.5c-3.7 0-6.7-3-6.7-6.7v-7.2"/><path class="st8" d="M28.9 56h19.3c6.3 0 11.5-5.1 11.5-11.5V24.1c0-6.3-5.1-11.5-11.5-11.5H28.9c-6.3 0-11.5 5.1-11.5 11.5v20.4c0 6.3 5.2 11.5 11.5 11.5zM10.4 93.1h21.3c5.3 0 9.6-4.3 9.6-9.6V81c0-5.3-4.3-9.6-9.6-9.6H10.4C5.1 71.4.8 75.7.8 81v2.4c0 5.4 4.3 9.7 9.6 9.7zM63.8 110.8h30.9c6 0 10.8-4.9 10.8-10.8v-2.7c0-6-4.9-10.8-10.8-10.8H63.8c-6 0-10.8 4.9-10.8 10.8v2.7c0 6 4.8 10.8 10.8 10.8z"/><path class="st9" d="M79.6 58.4c-1.2 1-3.6.4-3.6.4s0-2.5 1.2-3.5 3.9-.4 3.9-.4-.2 2.6-1.5 3.5z"/><path class="st2" d="M78.6 71.7c-1.7-.2-3.1-2.4-3.1-2.4s1.8-2 3.5-1.8 3.4 2.5 3.4 2.5-2.2 1.9-3.8 1.7z"/><path class="st9" d="M66.4 64.8c1.7 1.1 4.6.2 4.6.2s-.2-3.2-1.9-4.3c-1.7-1.1-5-.2-5-.2s.6 3.2 2.3 4.3z"/><path class="st10" d="M70.1 164.1c-1.5 1-4.1.1-4.1.1s.2-2.8 1.6-3.8 4.4-.2 4.4-.2-.4 2.9-1.9 3.9z"/><path class="st2" d="M16.1 99.7c1.5.6 3.7-.7 3.7-.7s-.7-2.5-2.2-3.1c-1.5-.6-4 .7-4 .7s1 2.5 2.5 3.1z"/><path class="st9" d="M73.6 52.6c.9 1.8-.4 4.6-.4 4.6s-3.2-.6-4.1-2.4c-.9-1.8.4-5 .4-5s3.2 1 4.1 2.8z"/><path class="st10" d="M63.3 153.7c-.9 1.8.4 4.6.4 4.6s3.2-.6 4.1-2.4c.9-1.8-.4-5-.4-5s-3.2 1-4.1 2.8z"/><path class="st1" d="M58.4 158.2c1.2.9 3.4.3 3.4.3s0-2.4-1.2-3.2c-1.2-.9-3.6-.3-3.6-.3s.2 2.4 1.4 3.2z"/><path class="st3" d="M21.1 154.8h25.3v4.1H21.1z"/><path class="st11" d="M28.5 182.9l-1.8 1.6"/><path class="st12" d="M31.3 190.7c.3-.9-.2-1.8-1.1-2.1l-5.1-1.5-.5 1.6 6.7 2z"/><path class="st13" d="M21.3 187.4c-.3-.8-.6-1.7-.7-2.6v-.1c-.1-.5-.4-.7-.8-.8.2-.5.5-1 1.1-1.3.6-.3 1.2-.5 1.7-.6 1.7-.3 3 .3 3.8 1.4 1 1.1 1.1 3 .1 4.9-.5.9-1.6 1.1-2.6 1.1 0-.3-.1-.7-.4-.9-.4-.3-.8-.4-1.3-.6-.1-.2-.3-.4-.6-.4-.1-.1-.2-.1-.3-.1z"/><path class="st2" d="M22.8 179.4l2 .9-1.7.8z"/><path class="st13" d="M19.8 185.4h3.4v-5c0-.9-.8-1.7-1.7-1.7-.9 0-1.7.8-1.7 1.7v5z"/><path class="st12" d="M19.8 183.7s2.5.3 3.9 1.3c1.7 1.2 2.8 5.1 2.8 5.1s-2.7.3-5.1-1.2c-2-1.3-1.6-3.5-1.6-5.2z"/><g><path class="st14" d="M26.2 174.9l4.9-16.4L36 175"/><circle class="st2" cx="31.1" cy="177.8" r="6.1"/><path class="st15" d="M33.5 172.2c.6.9.9 2 .9 3.1 0 3.3-2.7 6.1-6.1 6.1-.9 0-1.7-.2-2.4-.5 1.1 1.7 3 2.9 5.2 2.9 3.3 0 6.1-2.7 6.1-6.1-.1-2.4-1.6-4.5-3.7-5.5z"/></g></g><path id="XMLID_240_" class="st16" d="M59.3 231.9c0-8-6.5-14.6-14.6-14.6h-.4c-1.5-4.3-5.8-7.4-10.8-7.4-6.3 0-11.4 4.9-11.4 10.9 0 .3 0 .7.1 1-1.3-.5-2.7-.8-4.2-.8-6.3 0-11.4 4.9-11.4 10.9h52.7z"/><circle id="XMLID_239_" class="st8" cx="122.7" cy="216.2" r="11.3"/><path id="XMLID_238_" class="st8" d="M154.8 231.9c0-7.1-5.8-12.9-12.9-12.9h-.4c-1.3-3.8-5.1-6.6-9.5-6.6-5.6 0-10.1 4.3-10.1 9.7v.9c-1.2-.4-2.4-.7-3.7-.7-5.6 0-10.1 4.3-10.1 9.6h46.7z"/><path id="XMLID_237_" class="st8" d="M115.1 231.9c0-7.1-5.8-12.9-12.9-12.9h-.4c-1.3-3.8-5.1-6.6-9.5-6.6-5.6 0-10.1 4.3-10.1 9.7v.9c-1.2-.4-2.4-.7-3.7-.7-5.6 0-10.1 4.3-10.1 9.6h46.7z"/><g id="XMLID_231_"><path id="XMLID_236_" class="st3" d="M111.5 182.1h7.4v49.8h-7.4z"/><path id="XMLID_235_" class="st3" d="M55.5 182.1h7.4v49.8h-7.4z"/><path id="XMLID_234_" class="st3" d="M59.2 186.8h55.9v9.4H59.2z"/><path id="XMLID_233_" class="st3" d="M59.2 200.8h55.9v8.9H59.2z"/><path id="XMLID_232_" class="st3" d="M59.2 214.8h55.9v10H59.2z"/></g><path class="st2" d="M116.5 182.1c.2 0 .4-.2.4-.4v-3.3c0-.2-.2-.4-.4-.4s-.4.2-.4.4v3.3c0 .3.2.4.4.4zM115 182.1c.2 0 .4-.2.4-.4v-3.3c0-.2-.2-.4-.4-.4s-.4.2-.4.4v3.3c0 .3.2.4.4.4z"/><path class="st13" d="M116 171.9l6.4 4.4c-.8 2.2-2.9 3.7-5.4 3.7-3.2 0-5.8-2.6-5.8-5.8 0-.8.2-1.6.5-2.3h4.3z"/><path class="st2" d="M111.7 169.7h-1.5s.2-.6.8-1c.3-.2.6-.4.7-.4v1.4z"/><path class="st12" d="M112.6 170.2c0-.3-.2-.5-.5-.5h-.4V168c0-1.1.8-2.2 2-2.3 1.3-.1 2.4.9 2.4 2.2v3.9l-4.8 2.3c0-.7.1-1.3.3-1.9.1-.2.1-.3.2-.5l.7-1.3c.1 0 .1-.1.1-.2zM127.2 179.5L122 176l-1.1 1.7 3.5 2.4c.9.5 2.1.3 2.8-.6z"/><path class="st17" d="M122.2 176.8c-.7 1.5-2.1 2.6-3.7 3-.4-.1-.8-.3-1.1-.6-2.1-1.5-2.7-4.4-1.2-6.6l6 4.2z"/><path class="st13" d="M116.1 171.9c-1.5 2.1-.9 5.1 1.2 6.6s5.1.9 6.6-1.2l-7.8-5.4z"/><path class="st12" d="M121.8 175.8l-2.8 3.4c.5.1 1.1.1 1.6 0l2.2-2.7-1-.7zm-4.9 2.4c.1.1.3.2.4.3.2.1.4.3.7.4l3-3.6-1.1-.7-3 3.6z"/></g></svg>