<?xml version="1.0" encoding="utf-8"?>
<!-- Generator: Adobe Illustrator 19.1.0, SVG Export Plug-In . SVG Version: 6.00 Build 0)  -->
<svg version="1.1" id="LINKS" xmlns="http://www.w3.org/2000/svg" xmlns:xlink="http://www.w3.org/1999/xlink" x="0px" y="0px"
	 viewBox="0 0 180 232" style="enable-background:new 0 0 180 232;" xml:space="preserve">
<style type="text/css">
	.st0{fill:#55241A;}
	.st1{fill:#9EC300;}
	.st2{fill:#C0CE06;}
	.st3{fill:#84D0F0;}
	.st4{fill:#00AAE6;}
	.st5{fill:#3175B2;}
	.st6{fill:#7C90A6;}
	.st7{fill:#F6861E;}
	.st8{fill:#F8B000;}
	.st9{fill:#FE9B00;}
	.st10{fill:#009FE3;}
	.st11{fill:#FFC92F;}
	.st12{fill:#FFFFFF;}
</style>
<g>
	<g id="XMLID_1645_">
		<g id="XMLID_1653_">
			<path id="XMLID_1654_" class="st0" d="M50.6,177.8H49v-3.9h1.6c4.2,0,7.6-3.4,7.6-7.6v-11.8h3.9v11.8
				C62.1,172.6,57,177.8,50.6,177.8z"/>
		</g>
		<g id="XMLID_1650_">
			<g id="XMLID_1651_">
				<rect id="XMLID_1652_" x="46.4" y="159.2" class="st0" width="5.3" height="64.1"/>
			</g>
		</g>
		<g id="XMLID_1648_">
			<path id="XMLID_1649_" class="st1" d="M50.1,160.6L50.1,160.6c20.2,0,36.6-16.4,36.6-36.6V52.1c0-20.2-16.4-36.6-36.6-36.6h0
				c-20.2,0-36.6,16.4-36.6,36.6V124C13.5,144.2,29.9,160.6,50.1,160.6z"/>
		</g>
		<g id="XMLID_1646_">
			<path id="XMLID_1647_" class="st2" d="M50.1,15.5L50.1,15.5c17,0,31.2,11.5,35.4,27.2c-3.2-8.4-11.3-14.5-20.8-14.5
				c-12.3,0-22.2,9.9-22.2,22.1v58.8c0,12.3-10,22.3-22.3,22.3h0c-2.1,0-4.1-0.3-6-0.9c-0.4-2.2-0.6-4.4-0.6-6.7V52.1
				C13.5,31.9,29.9,15.5,50.1,15.5z"/>
		</g>
		<g>
			<path class="st0" d="M49,189.8h-3c-8.3,0-15-6.7-15-15h4.8c0,5.6,4.6,10.1,10.1,10.1h3V189.8z"/>
		</g>
		<path class="st1" d="M37.1,176.8H25.3c-3.5,0-6.3-2.8-6.3-6.3v0c0-3.5,2.8-6.3,6.3-6.3h11.8c3.5,0,6.3,2.8,6.3,6.3v0
			C43.4,174,40.5,176.8,37.1,176.8z"/>
	</g>
	<g>
		<circle class="st1" cx="45.8" cy="218.1" r="2.2"/>
		<g>
			<polygon class="st1" points="50.8,218.3 54.5,204.7 52.7,218 			"/>
			<polygon class="st1" points="52.2,218.3 56.2,211.5 54.6,218.1 			"/>
			<polygon class="st1" points="46.5,218.1 44,211.5 44.6,218.1 			"/>
			<polygon class="st1" points="44,217.8 40.5,211.5 41.6,217.8 			"/>
			<polygon class="st1" points="54.5,218 56.8,214.9 56.1,218 			"/>
		</g>
		<path class="st3" d="M73.2,224H24.9v-3.6c0-1.6,1.3-2.8,2.8-2.8h42.7c1.6,0,2.8,1.3,2.8,2.8V224z"/>
		<path class="st4" d="M73.2,224H62.1v-6.4h8.3c1.6,0,2.8,1.3,2.8,2.8V224z"/>
	</g>
</g>
<g id="XMLID_5_">
	<g id="XMLID_1404_">
		
			<rect id="XMLID_1405_" x="103" y="183.7" transform="matrix(-0.9636 0.2672 -0.2672 -0.9636 259.456 366.5836)" class="st5" width="3.5" height="34.5"/>
	</g>
	<g id="XMLID_1402_">
		<path id="XMLID_1403_" class="st6" d="M89.8,215.2c0-1.6-1.3-2.9-2.9-2.9c-1.6,0-2.9,1.3-2.9,2.9c0,1.6,1.3,2.9,2.9,2.9
			C88.5,218,89.8,216.7,89.8,215.2z"/>
	</g>
	<g id="XMLID_1400_">
		<path id="XMLID_1401_" class="st6" d="M101.6,195.4c0.1,0,0.1,0,0.2,0c0.4-0.1,0.6-0.5,0.5-0.9l-2.3-7.5c-0.1-0.4-0.5-0.6-0.9-0.5
			c-0.4,0.1-0.6,0.5-0.5,0.9l2.3,7.5C101,195.2,101.3,195.4,101.6,195.4z"/>
	</g>
	<g id="XMLID_1398_">
		<path id="XMLID_1399_" class="st0" d="M108.4,185.9H92c0,0,1.3,4.6,5.9,4.6c4.6,0,3.8-2.7,7.6-2.7
			C109.3,187.8,110.9,185.9,108.4,185.9z"/>
	</g>
	<g id="XMLID_48_">
		<path id="XMLID_1397_" class="st7" d="M132.9,189c0.7,0,1.4-0.3,1.9-0.8c1-1,1-2.7,0-3.7l-19-18.6c-1-1-2.7-1-3.7,0
			c-1,1-1,2.7,0,3.7l19,18.6C131.6,188.7,132.3,189,132.9,189z"/>
	</g>
	<g id="XMLID_46_">
		<circle id="XMLID_47_" class="st8" cx="135.1" cy="187.4" r="3.8"/>
	</g>
	<g id="XMLID_44_">
		<path id="XMLID_45_" class="st6" d="M130.4,194c0,0,0.1,0,0.1,0c0.4-0.1,0.7-0.4,0.6-0.8l-1-6.4h5.3c0.4,0,0.7-0.3,0.7-0.7
			c0-0.4-0.3-0.7-0.7-0.7h-6.1c-0.2,0-0.4,0.1-0.5,0.3c-0.1,0.2-0.2,0.4-0.2,0.6l1.1,7.2C129.7,193.8,130,194,130.4,194z"/>
	</g>
	<g id="XMLID_42_">
		<path id="XMLID_43_" class="st9" d="M136.6,197.4C136.6,197.4,136.6,197.4,136.6,197.4c2.1-0.2,6-1.7,6-6.4c0-1.7-0.5-3.1-1.6-4.1
			c-1.8-1.7-4.5-1.6-4.6-1.6c-0.5,0-0.8,0.4-0.8,0.9c0,0.5,0.4,0.8,0.9,0.8c0,0,2.1-0.1,3.4,1.2c0.7,0.7,1.1,1.6,1.1,2.9
			c0,4.3-4.2,4.7-4.3,4.7c-0.5,0-0.8,0.5-0.8,0.9C135.7,197.1,136.1,197.4,136.6,197.4z"/>
	</g>
	<g id="XMLID_32_">
		<path id="XMLID_33_" class="st9" d="M124,215c0,9.2,7.5,16.7,16.7,16.7c9.2,0,16.7-7.5,16.7-16.7c0-9.2-7.5-16.7-16.7-16.7
			C131.5,198.3,124,205.8,124,215z M126.5,215c0-7.9,6.4-14.3,14.3-14.3c7.9,0,14.3,6.4,14.3,14.3c0,7.9-6.4,14.3-14.3,14.3
			C132.9,229.3,126.5,222.9,126.5,215z"/>
	</g>
	<g id="XMLID_28_">
		<path id="XMLID_29_" class="st9" d="M70.2,215c0,9.2,7.5,16.7,16.7,16.7c9.2,0,16.7-7.5,16.7-16.7c0-9.2-7.5-16.7-16.7-16.7
			C77.7,198.3,70.2,205.8,70.2,215z M72.6,215c0-7.9,6.4-14.3,14.3-14.3c7.9,0,14.3,6.4,14.3,14.3c0,7.9-6.4,14.3-14.3,14.3
			C79.1,229.3,72.6,222.9,72.6,215z"/>
	</g>
	<g id="XMLID_1378_">
		<path id="XMLID_1379_" class="st0" d="M110.1,218.1c-0.4-0.1-0.7-0.4-0.8-0.7l-9-24.4c-0.1-0.4-0.1-0.7,0.1-1s0.6-0.5,0.9-0.5
			h28.9c0.5,0,1,0.4,1.1,0.9c0,0.1,1.3,5.4,3.5,12.4c0.9,2.9,3.4,5.7,5.2,7.8c0.5,0.5,0.9,1,1.2,1.4c0.4,0.5,0.3,1.2-0.2,1.6
			c-0.5,0.4-1.2,0.3-1.6-0.2c-0.3-0.4-0.7-0.9-1.2-1.4c-2-2.2-4.6-5.3-5.7-8.6c-0.8-2.6-1.5-4.9-2.1-6.9l-19.6,19.3
			c-0.2,0.2-0.5,0.3-0.8,0.3C110.3,218.2,110.2,218.2,110.1,218.1z M129.5,193.8h-26.4l7.8,21.2l19.3-18.9
			C129.8,195.1,129.6,194.3,129.5,193.8z"/>
	</g>
	<g id="XMLID_1376_">
		<path id="XMLID_1377_" class="st0" d="M110.4,218c0.4,0,0.8-0.3,0.9-0.8c0-0.5-0.3-0.9-0.8-0.9l-22.4-2.1l14.1-21.1
			c0.3-0.4,0.2-0.9-0.2-1.2c-0.4-0.3-0.9-0.2-1.2,0.2l-14.9,22.3c-0.2,0.3-0.2,0.6-0.1,0.8c0.1,0.3,0.4,0.5,0.7,0.5L110.4,218
			C110.3,218,110.4,218,110.4,218z"/>
	</g>
	<g id="XMLID_1374_">
		<circle id="XMLID_1375_" class="st6" cx="111.1" cy="216.8" r="5.3"/>
	</g>
	<g id="XMLID_1372_">
		<path id="XMLID_1373_" class="st10" d="M109.7,187.5c-3,3.1-7.8,3.8-11.7,1.5c-3.9-2.3-5.5-6.9-4.1-11L109.7,187.5z"/>
	</g>
	<g id="XMLID_1370_">
		<path id="XMLID_1371_" class="st11" d="M116.8,175.9l-7,12.4l-16.2-9.7l8.2-11.2c0,0,5.5-8,12.4-3.8
			C121.3,167.7,116.8,175.9,116.8,175.9z"/>
	</g>
	<g id="XMLID_1368_">
		<path id="XMLID_1369_" class="st10" d="M111.7,211.3l4.3-15c0.2-0.7,0-1.4-0.6-1.9l-12.3-9.6l-2.2,2.8l11.3,8.9l-4,13.8
			L111.7,211.3z"/>
	</g>
	<g id="XMLID_1366_">
		<path id="XMLID_1367_" class="st0" d="M108.4,209.9l5.5,2.3c0.8,0.3,1.2,1.2,0.9,1.9c-0.3,0.7-1.2,1-1.9,0.7l-5.5-2.3L108.4,209.9
			z"/>
	</g>
	<polygon class="st8" points="107.1,173.6 112.9,182.8 114.1,180.7 	"/>
	<g id="XMLID_26_">
		<path id="XMLID_27_" class="st11" d="M123.6,189c0.7,0,1.4-0.3,1.9-0.8c1-1,1-2.7-0.1-3.7l-16.1-15.6c-1-1-2.7-1-3.7,0.1
			c-1,1-1,2.7,0.1,3.7l16.1,15.6C122.3,188.7,122.9,189,123.6,189z"/>
	</g>
	<g id="XMLID_22_">
		<path id="XMLID_25_" class="st9" d="M124.2,197.4C124.2,197.4,124.2,197.4,124.2,197.4c2.1-0.2,6-1.7,6-6.4c0-1.7-0.5-3.1-1.6-4.1
			c-1.8-1.7-4.5-1.6-4.6-1.6c-0.5,0-0.8,0.4-0.8,0.9c0,0.5,0.4,0.8,0.9,0.8c0,0,2.1-0.1,3.4,1.2c0.7,0.7,1.1,1.6,1.1,2.9
			c0,4.3-4.2,4.7-4.3,4.7c-0.5,0-0.8,0.5-0.8,0.9C123.4,197.1,123.7,197.4,124.2,197.4z"/>
	</g>
	<g id="XMLID_15_">
		<circle id="XMLID_18_" class="st8" cx="125.7" cy="187.4" r="3.8"/>
	</g>
	<path id="XMLID_14_" class="st8" d="M117.8,167.4L117.8,167.4c-4.5,0-8.1-3.6-8.1-8.1v-7.4c0-4.5,3.6-8.1,8.1-8.1h0
		c4.5,0,8.1,3.6,8.1,8.1v7.4C125.9,163.7,122.3,167.4,117.8,167.4z"/>
	<path id="XMLID_13_" class="st7" d="M128.4,142.2h-11.7c-1.4,0-2.6,1.2-2.6,2.6v5.4h9.5c2.6,0,4.8-2.1,4.8-4.8V142.2z"/>
	<path id="XMLID_7_" class="st7" d="M111,155.7h-1.3v-9.3c0-1.1,0.9-2,2-2h3.1v7.6C114.7,154.1,113.1,155.7,111,155.7z"/>
	<path id="XMLID_6_" class="st12" d="M124.8,157.8c0,1.3-1.1,2.4-2.4,2.4c-1.3,0-2.4-1.1-2.4-2.4H124.8z"/>
</g>
</svg>
