<?xml version="1.0" encoding="utf-8"?>
<!-- Generator: Adobe Illustrator 19.1.0, SVG Export Plug-In . SVG Version: 6.00 Build 0)  -->
<svg version="1.1" id="LINKS" xmlns="http://www.w3.org/2000/svg" xmlns:xlink="http://www.w3.org/1999/xlink" x="0px" y="0px"
	 viewBox="0 0 180 232" style="enable-background:new 0 0 180 232;" xml:space="preserve">
<style type="text/css">
	.st0{fill:none;stroke:#FAC133;stroke-width:1.6681;stroke-linecap:round;stroke-miterlimit:10;}
	.st1{fill:#82D0DC;}
	.st2{fill:#FAC133;}
	.st3{fill:#3BB6C8;}
	.st4{fill:#9EC300;}
	.st5{fill:#55241A;}
	.st6{fill:#FFC92F;}
	.st7{fill:#FFFFFF;}
	.st8{fill:none;stroke:#FAC133;stroke-width:1.7373;stroke-linecap:round;stroke-miterlimit:10;}
	.st9{fill:#B3CF01;}
</style>
<g id="XMLID_1019_">
	<g id="XMLID_1166_">
		<line id="XMLID_1179_" class="st0" x1="147.3" y1="219.1" x2="147.3" y2="223.5"/>
		<line id="XMLID_1171_" class="st0" x1="145.2" y1="219.1" x2="145.2" y2="223.5"/>
		<path id="XMLID_1170_" class="st1" d="M150,212.2c-2.2-2.2-11.2-3.3-11.2-3.3s1.2,9,3.4,11.2c2.2,2.2,5.7,2.2,7.9,0
			C152.2,217.9,152.2,214.4,150,212.2z"/>
		<path id="XMLID_1169_" class="st1" d="M157,219.4L157,219.4c0,1.3-1,2.3-2.3,2.3h-8.3v-4.6h8.3C156,217.1,157,218.1,157,219.4z"/>
		<polygon id="XMLID_1168_" class="st2" points="154.7,221.7 152.9,224 152.9,221.7 		"/>
		<path id="XMLID_1167_" class="st3" d="M148.2,213.5c-1.3-1.3-6.9-2.1-6.9-2.1s0.7,5.6,2.1,6.9c1.3,1.3,3.5,1.3,4.9,0
			C149.5,217.1,149.5,214.9,148.2,213.5z"/>
	</g>
	<path class="st4" d="M44.1,227.9v4.1h61.5c-0.8-10-9.5-17.9-20.1-17.9c-2.6,0-5.2,0.5-7.5,1.4c0.1-0.6,0.1-1.2,0.1-1.8
		c0-10.7-9-19.4-20.2-19.4c-11.2,0-20.2,8.7-20.2,19.4C37.7,219.3,40.2,224.3,44.1,227.9z"/>
	<rect x="51.7" y="95.4" class="st5" width="5.3" height="135.1"/>
	<path class="st5" d="M59.5,229.7v-47.5c0-1.6-1.3-3-3-3h-4.4c-1.6,0-3,1.3-3,3v47.5H59.5z"/>
	<path id="XMLID_1162_" class="st6" d="M28.3,68.6h-13c-3.1,0-5.7-2.5-5.7-5.7v0h24.3v0C33.9,66,31.4,68.6,28.3,68.6z"/>
	<path id="XMLID_1161_" class="st6" d="M93.4,68.6h-13c-3.1,0-5.7-2.5-5.7-5.7v0H99v0C99,66,96.5,68.6,93.4,68.6z"/>
	<g id="XMLID_1155_">
		<path id="XMLID_1158_" class="st5" d="M54.3,99.6c-1.4,0-2.5-1.1-2.5-2.5V84c0-0.1,0-7.9-5.6-13.6c-4-4.1-10.1-6.2-17.9-6.2H9.6
			c-1.4,0-2.5-1.1-2.5-2.5s1.1-2.5,2.5-2.5h18.7c9.3,0,16.5,2.6,21.5,7.7c7.1,7.2,7,16.7,7,17.1v13C56.8,98.5,55.7,99.6,54.3,99.6z"
			/>
	</g>
	<g id="XMLID_1151_">
		<path id="XMLID_1152_" class="st5" d="M54.3,99.6c-1.4,0-2.5-1.1-2.5-2.5V84c0-0.4-0.1-9.9,7-17c5-5.1,12.3-7.7,21.5-7.7H99
			c1.4,0,2.5,1.1,2.5,2.5s-1.1,2.5-2.5,2.5H80.3c-7.9,0-13.9,2.1-18,6.2c-5.6,5.7-5.5,13.4-5.5,13.5v13.1
			C56.8,98.5,55.7,99.6,54.3,99.6z"/>
	</g>
	<path id="XMLID_1148_" class="st3" d="M73,129.1H35.5c-2.3,0-4.2-1.9-4.2-4.2V98.8c0-2.3,1.9-4.2,4.2-4.2H73c2.3,0,4.2,1.9,4.2,4.2
		v26.1C77.2,127.2,75.4,129.1,73,129.1z"/>
	<path id="XMLID_1143_" class="st7" d="M73.1,98c0.4,0,0.8,0.4,0.8,0.8v26.1c0,0.4-0.4,0.8-0.8,0.8H35.6c-0.4,0-0.8-0.4-0.8-0.8
		V98.8c0-0.4,0.4-0.8,0.8-0.8H73.1 M73.1,96.8H35.6c-1.1,0-1.9,0.9-1.9,1.9v26.1c0,1.1,0.9,1.9,1.9,1.9h37.5c1.1,0,1.9-0.9,1.9-1.9
		V98.8C75,97.7,74.2,96.8,73.1,96.8L73.1,96.8z"/>
	<g id="XMLID_1139_">
		<path id="XMLID_1140_" class="st7" d="M67.6,109.5V107c0-0.6-0.5-1-1-1h0c-0.6,0-1,0.5-1,1v0.8l-3.4-3.4c-0.4-0.4-1.1-0.4-1.5,0
			l-7.3,7.3c-0.2,0.2-0.3,0.5-0.3,0.7v7.7c0,0.6,0.5,1,1,1h0.4c0.6,0,1-0.5,1-1v-4.9c0-0.6,0.5-1,1-1h1.9c0.6,0,1,0.5,1,1v4.9
			c0,0.6,0.5,1,1,1H69c0.6,0,1-0.5,1-1v-7.4c0-0.3-0.1-0.5-0.3-0.7l-1.9-1.9C67.7,110,67.6,109.8,67.6,109.5z M66.7,118.5h-4.1
			c-0.6,0-1-0.5-1-1v-2.2c0-0.6,0.5-1,1-1h4.1c0.6,0,1,0.5,1,1v2.2C67.7,118.1,67.2,118.5,66.7,118.5z"/>
	</g>
	<g id="XMLID_1042_">
		<g id="XMLID_1136_">
			<path id="XMLID_1137_" class="st7" d="M46.1,121.7c-0.2,0-0.4-0.1-0.5-0.3l-2-3.4l-1.4,2.1l-2.7-0.8c-0.3-0.1-0.5-0.4-0.4-0.7
				c0.1-0.3,0.4-0.5,0.7-0.4l1.9,0.6l2-2.9l2.8,4.9c0.2,0.3,0.1,0.6-0.2,0.8C46.3,121.6,46.2,121.7,46.1,121.7z"/>
		</g>
		<g id="XMLID_1133_">
			<g id="XMLID_1134_">
				<path id="XMLID_1135_" class="st7" d="M41.9,116.1c-0.3,0-0.5-0.2-0.6-0.5l-0.3-1.6c0-0.2,0-0.3,0.1-0.4
					c0.1-0.1,0.2-0.2,0.4-0.2l2.2-0.2c0.3,0,0.6,0.2,0.6,0.5c0,0.3-0.2,0.6-0.5,0.6l-1.6,0.1l0.2,1c0.1,0.3-0.1,0.6-0.4,0.7
					C41.9,116.1,41.9,116.1,41.9,116.1z"/>
			</g>
		</g>
		<g id="XMLID_1048_">
			<g id="XMLID_1131_">
				<path id="XMLID_1132_" class="st7" d="M46.9,116.2c-0.2,0.1-0.4,0.1-0.6-0.1l-1.5-1.5c-0.2-0.2-0.2-0.6,0-0.8
					c0.2-0.2,0.6-0.2,0.8,0l1.2,1.1l1-0.5c0.3-0.1,0.6,0,0.8,0.2c0.1,0.3,0,0.6-0.2,0.8L46.9,116.2z"/>
			</g>
		</g>
		<g id="XMLID_1046_">
			<path id="XMLID_1047_" class="st7" d="M43.1,116.6l-0.1-2.7c0-0.5,0.5-0.8,1-0.7l1.2,0.3c0.7,0.2,1,0.9,0.7,1.6l-1.1,2.7
				C44.4,118.4,43.1,117.4,43.1,116.6z"/>
		</g>
		<g id="XMLID_1044_">
			<circle id="XMLID_1045_" class="st7" cx="45.2" cy="111.1" r="1.5"/>
		</g>
	</g>
	<g id="XMLID_1040_">
		<circle id="XMLID_1041_" class="st7" cx="51.3" cy="104.2" r="1.9"/>
	</g>
	<g id="XMLID_1020_">
		<path id="XMLID_1039_" class="st1" d="M27.1,39.5L27.1,39.5c1.3,0,2.4,1.1,2.4,2.4v10.3h-4.8V41.9C24.7,40.6,25.8,39.5,27.1,39.5z
			"/>
		<line id="XMLID_1038_" class="st8" x1="25.3" y1="55" x2="25.3" y2="59.6"/>
		<line id="XMLID_1024_" class="st8" x1="23.1" y1="55" x2="23.1" y2="59.6"/>
		<path id="XMLID_1023_" class="st1" d="M23.7,46.2c-3.2,0-10.7,5.8-10.7,5.8s7.5,5.8,10.7,5.8c3.2,0,5.8-2.6,5.8-5.8
			C29.5,48.8,26.9,46.2,23.7,46.2z"/>
		<polygon id="XMLID_1022_" class="st2" points="29.5,41.9 32,43.8 29.5,43.8 		"/>
		<path id="XMLID_1021_" class="st3" d="M23.4,48.4c-2,0-6.6,3.6-6.6,3.6s4.7,3.6,6.6,3.6S27,54,27,52C27,50,25.4,48.4,23.4,48.4z"
			/>
	</g>
	<path class="st9" d="M61.1,232c0.7-1.7,1.1-3.6,1.1-5.5c0-8.1-6.5-14.6-14.6-14.6c-7.6,0-13.8,5.8-14.5,13.1
		c-1.5-1-3.3-1.6-5.3-1.6c-4.9,0-9,3.8-9.3,8.7H61.1z"/>
	<path class="st9" d="M159.6,232c-2.8-4.7-8-7.9-13.9-7.9s-11,3.2-13.9,7.9H159.6z"/>
</g>
</svg>
